{"asset":{"version":"2.0","generator":"Yudian original solar-r1 Python stdlib"},"scene":0,"scenes":[{"nodes":[0]}],"nodes":[{"name":"solar-r1","translation":[0,0,0],"children":[1]},{"name":"Model","translation":[0,0,0],"children":[2,6,9,12,15,18,27,47,71,74,81,84,85]},{"name":"Base","translation":[0,0,0],"children":[3,4,5,67,68,69,70,76,77,78,79,80,83,86,87,88,89,90]},{"name":"SpineFrame","translation":[0,0.51,0],"mesh":0},{"name":"SpineShell","translation":[0,0.78,0],"mesh":1},{"name":"FrontNose","translation":[0,0.4,-1.42],"mesh":2},{"name":"LFFoot","translation":[-0.58,0,-1.1],"children":[7,8]},{"name":"Pad6","translation":[0,0.04,0],"mesh":3},{"name":"Arm6","translation":[0.14,0.19,0],"mesh":4},{"name":"LBFoot","translation":[-0.58,0,1.1],"children":[10,11]},{"name":"Pad9","translation":[0,0.04,0],"mesh":5},{"name":"Arm9","translation":[0.14,0.19,0],"mesh":6},{"name":"RFFoot","translation":[0.58,0,-1.1],"children":[13,14]},{"name":"Pad12","translation":[0,0.04,0],"mesh":7},{"name":"Arm12","translation":[-0.14,0.19,0],"mesh":8},{"name":"RBFoot","translation":[0.58,0,1.1],"children":[16,17]},{"name":"Pad15","translation":[0,0.04,0],"mesh":9},{"name":"Arm15","translation":[-0.14,0.19,0],"mesh":10},{"name":"Straps","translation":[0,0,0],"children":[19,20,21,22,23,24,25,26]},{"name":"StrapSide19","translation":[-0.585,1.35,-0.9],"mesh":11},{"name":"StrapSide20","translation":[0.585,1.35,-0.9],"mesh":12},{"name":"StrapCross21","translation":[0,0.82,-0.9],"mesh":13},{"name":"StrapCross22","translation":[0,1.88,-0.9],"mesh":14},{"name":"StrapSide23","translation":[-0.585,1.35,0.9],"mesh":15},{"name":"StrapSide24","translation":[0.585,1.35,0.9],"mesh":16},{"name":"StrapCross25","translation":[0,0.82,0.9],"mesh":17},{"name":"StrapCross26","translation":[0,1.88,0.9],"mesh":18},{"name":"LeftInner","translation":[-0.4,0.85,0],"rotation":[0.0,0.0,-0.10452846326765347,0.9945218953682733],"children":[28,29,30,31,32,33,34,35,36,37]},{"name":"LeftInnerBack","translation":[-0.5,-0.025,0],"mesh":19},{"name":"LeftInnerFace","translation":[-0.5,0.013,0],"mesh":20},{"name":"LeftInnerEdge0.02","translation":[-0.02,0.007,0],"mesh":21},{"name":"LeftInnerEdge0.98","translation":[-0.98,0.007,0],"mesh":22},{"name":"LeftInnerEnd-1.38","translation":[-0.5,0.007,-1.38],"mesh":23},{"name":"LeftInnerEnd1.38","translation":[-0.5,0.007,1.38],"mesh":24},{"name":"LeftInnerGrid-0.7","translation":[-0.5,0.037,-0.7],"mesh":25},{"name":"LeftInnerGrid0","translation":[-0.5,0.037,0],"mesh":26},{"name":"LeftInnerGrid0.7","translation":[-0.5,0.037,0.7],"mesh":27},{"name":"LeftOuter","translation":[-1,-0.1,0],"children":[38,39,40,41,42,43,44,45,46]},{"name":"LeftOuterBack","translation":[-0.5,-0.025,0],"mesh":28},{"name":"LeftOuterFace","translation":[-0.5,0.013,0],"mesh":29},{"name":"LeftOuterEdge0.02","translation":[-0.02,0.007,0],"mesh":30},{"name":"LeftOuterEdge0.98","translation":[-0.98,0.007,0],"mesh":31},{"name":"LeftOuterEnd-1.38","translation":[-0.5,0.007,-1.38],"mesh":32},{"name":"LeftOuterEnd1.38","translation":[-0.5,0.007,1.38],"mesh":33},{"name":"LeftOuterGrid-0.7","translation":[-0.5,0.037,-0.7],"mesh":34},{"name":"LeftOuterGrid0","translation":[-0.5,0.037,0],"mesh":35},{"name":"LeftOuterGrid0.7","translation":[-0.5,0.037,0.7],"mesh":36},{"name":"RightInner","translation":[0.4,0.85,0],"rotation":[0.0,0.0,0.10452846326765347,0.9945218953682733],"children":[48,49,50,51,52,53,54,55,56,57]},{"name":"RightInnerBack","translation":[0.5,-0.025,0],"mesh":37},{"name":"RightInnerFace","translation":[0.5,0.013,0],"mesh":38},{"name":"RightInnerEdge0.02","translation":[0.02,0.007,0],"mesh":39},{"name":"RightInnerEdge0.98","translation":[0.98,0.007,0],"mesh":40},{"name":"RightInnerEnd-1.38","translation":[0.5,0.007,-1.38],"mesh":41},{"name":"RightInnerEnd1.38","translation":[0.5,0.007,1.38],"mesh":42},{"name":"RightInnerGrid-0.7","translation":[0.5,0.037,-0.7],"mesh":43},{"name":"RightInnerGrid0","translation":[0.5,0.037,0],"mesh":44},{"name":"RightInnerGrid0.7","translation":[0.5,0.037,0.7],"mesh":45},{"name":"RightOuter","translation":[1,-0.1,0],"children":[58,59,60,61,62,63,64,65,66]},{"name":"RightOuterBack","translation":[0.5,-0.025,0],"mesh":46},{"name":"RightOuterFace","translation":[0.5,0.013,0],"mesh":47},{"name":"RightOuterEdge0.02","translation":[0.02,0.007,0],"mesh":48},{"name":"RightOuterEdge0.98","translation":[0.98,0.007,0],"mesh":49},{"name":"RightOuterEnd-1.38","translation":[0.5,0.007,-1.38],"mesh":50},{"name":"RightOuterEnd1.38","translation":[0.5,0.007,1.38],"mesh":51},{"name":"RightOuterGrid-0.7","translation":[0.5,0.037,-0.7],"mesh":52},{"name":"RightOuterGrid0","translation":[0.5,0.037,0],"mesh":53},{"name":"RightOuterGrid0.7","translation":[0.5,0.037,0.7],"mesh":54},{"name":"ServiceSide-0.31","translation":[-0.31,0.58,1.43],"mesh":55},{"name":"ServiceSide0.31","translation":[0.31,0.58,1.43],"mesh":56},{"name":"ServiceEdge0.37","translation":[0,0.37,1.43],"mesh":57},{"name":"ServiceEdge0.79","translation":[0,0.79,1.43],"mesh":58},{"name":"ServiceCover","translation":[0,0.8,1.48],"children":[72,73]},{"name":"CoverPanel","translation":[0,-0.18,0],"mesh":59},{"name":"CoverHandle","translation":[0,-0.28,0.025],"mesh":60},{"name":"WorkIndicator","translation":[0,1.05,1.54],"children":[75]},{"name":"IndicatorBlade","translation":[0,0,0],"mesh":61},{"name":"IndicatorStand","translation":[0.36,0.73,1.58],"mesh":62},{"name":"IndicatorArm","translation":[0.18,1.05,1.58],"mesh":63},{"name":"IndicatorAxle","translation":[0,1.05,1.56],"mesh":64},{"name":"StandFoot","translation":[0.36,0.38,1.5],"mesh":65},{"name":"StopAxle","translation":[0.36,0.57,1.45],"mesh":66},{"name":"StopFlap","translation":[0.36,0.57,1.51],"children":[82]},{"name":"StopBlade","translation":[0,0.16,0],"mesh":67},{"name":"PowerDuct","translation":[0,0.3,1.46],"mesh":68},{"name":"Socket_PowerOut","translation":[0,0.3,1.45],"rotation":[0.0,1.0,0.0,6.123233995736766e-17]},{"name":"Socket_Service","translation":[0,0.65,1.35],"rotation":[0.0,1.0,0.0,6.123233995736766e-17]},{"name":"ElectronicsMount","translation":[0,0.58,1.4075],"mesh":69},{"name":"ProtectedElectronics","translation":[0,0.58,1.435],"mesh":70},{"name":"ElectronicsInnerCover","translation":[0,0.58,1.4575],"mesh":71},{"name":"FixedCableGuardL","translation":[-0.415,0.68,1.06],"mesh":72},{"name":"FixedCableGuardR","translation":[0.415,0.68,1.06],"mesh":73}],"meshes":[{"name":"SpineFrame","primitives":[{"attributes":{"POSITION":0,"NORMAL":1},"material":1,"mode":4}]},{"name":"SpineShell","primitives":[{"attributes":{"POSITION":2,"NORMAL":3},"material":0,"mode":4}]},{"name":"FrontNose","primitives":[{"attributes":{"POSITION":4,"NORMAL":5},"material":2,"mode":4}]},{"name":"Pad6","primitives":[{"attributes":{"POSITION":6,"NORMAL":7},"material":1,"mode":4}]},{"name":"Arm6","primitives":[{"attributes":{"POSITION":8,"NORMAL":9},"material":0,"mode":4}]},{"name":"Pad9","primitives":[{"attributes":{"POSITION":10,"NORMAL":11},"material":1,"mode":4}]},{"name":"Arm9","primitives":[{"attributes":{"POSITION":12,"NORMAL":13},"material":0,"mode":4}]},{"name":"Pad12","primitives":[{"attributes":{"POSITION":14,"NORMAL":15},"material":1,"mode":4}]},{"name":"Arm12","primitives":[{"attributes":{"POSITION":16,"NORMAL":17},"material":0,"mode":4}]},{"name":"Pad15","primitives":[{"attributes":{"POSITION":18,"NORMAL":19},"material":1,"mode":4}]},{"name":"Arm15","primitives":[{"attributes":{"POSITION":20,"NORMAL":21},"material":0,"mode":4}]},{"name":"StrapSide19","primitives":[{"attributes":{"POSITION":22,"NORMAL":23},"material":2,"mode":4}]},{"name":"StrapSide20","primitives":[{"attributes":{"POSITION":24,"NORMAL":25},"material":2,"mode":4}]},{"name":"StrapCross21","primitives":[{"attributes":{"POSITION":26,"NORMAL":27},"material":2,"mode":4}]},{"name":"StrapCross22","primitives":[{"attributes":{"POSITION":28,"NORMAL":29},"material":2,"mode":4}]},{"name":"StrapSide23","primitives":[{"attributes":{"POSITION":30,"NORMAL":31},"material":2,"mode":4}]},{"name":"StrapSide24","primitives":[{"attributes":{"POSITION":32,"NORMAL":33},"material":2,"mode":4}]},{"name":"StrapCross25","primitives":[{"attributes":{"POSITION":34,"NORMAL":35},"material":2,"mode":4}]},{"name":"StrapCross26","primitives":[{"attributes":{"POSITION":36,"NORMAL":37},"material":2,"mode":4}]},{"name":"LeftInnerBack","primitives":[{"attributes":{"POSITION":38,"NORMAL":39},"material":1,"mode":4}]},{"name":"LeftInnerFace","primitives":[{"attributes":{"POSITION":40,"NORMAL":41},"material":3,"mode":4}]},{"name":"LeftInnerEdge0.02","primitives":[{"attributes":{"POSITION":42,"NORMAL":43},"material":0,"mode":4}]},{"name":"LeftInnerEdge0.98","primitives":[{"attributes":{"POSITION":44,"NORMAL":45},"material":0,"mode":4}]},{"name":"LeftInnerEnd-1.38","primitives":[{"attributes":{"POSITION":46,"NORMAL":47},"material":0,"mode":4}]},{"name":"LeftInnerEnd1.38","primitives":[{"attributes":{"POSITION":48,"NORMAL":49},"material":0,"mode":4}]},{"name":"LeftInnerGrid-0.7","primitives":[{"attributes":{"POSITION":50,"NORMAL":51},"material":0,"mode":4}]},{"name":"LeftInnerGrid0","primitives":[{"attributes":{"POSITION":52,"NORMAL":53},"material":0,"mode":4}]},{"name":"LeftInnerGrid0.7","primitives":[{"attributes":{"POSITION":54,"NORMAL":55},"material":0,"mode":4}]},{"name":"LeftOuterBack","primitives":[{"attributes":{"POSITION":56,"NORMAL":57},"material":1,"mode":4}]},{"name":"LeftOuterFace","primitives":[{"attributes":{"POSITION":58,"NORMAL":59},"material":3,"mode":4}]},{"name":"LeftOuterEdge0.02","primitives":[{"attributes":{"POSITION":60,"NORMAL":61},"material":0,"mode":4}]},{"name":"LeftOuterEdge0.98","primitives":[{"attributes":{"POSITION":62,"NORMAL":63},"material":0,"mode":4}]},{"name":"LeftOuterEnd-1.38","primitives":[{"attributes":{"POSITION":64,"NORMAL":65},"material":0,"mode":4}]},{"name":"LeftOuterEnd1.38","primitives":[{"attributes":{"POSITION":66,"NORMAL":67},"material":0,"mode":4}]},{"name":"LeftOuterGrid-0.7","primitives":[{"attributes":{"POSITION":68,"NORMAL":69},"material":0,"mode":4}]},{"name":"LeftOuterGrid0","primitives":[{"attributes":{"POSITION":70,"NORMAL":71},"material":0,"mode":4}]},{"name":"LeftOuterGrid0.7","primitives":[{"attributes":{"POSITION":72,"NORMAL":73},"material":0,"mode":4}]},{"name":"RightInnerBack","primitives":[{"attributes":{"POSITION":74,"NORMAL":75},"material":1,"mode":4}]},{"name":"RightInnerFace","primitives":[{"attributes":{"POSITION":76,"NORMAL":77},"material":3,"mode":4}]},{"name":"RightInnerEdge0.02","primitives":[{"attributes":{"POSITION":78,"NORMAL":79},"material":0,"mode":4}]},{"name":"RightInnerEdge0.98","primitives":[{"attributes":{"POSITION":80,"NORMAL":81},"material":0,"mode":4}]},{"name":"RightInnerEnd-1.38","primitives":[{"attributes":{"POSITION":82,"NORMAL":83},"material":0,"mode":4}]},{"name":"RightInnerEnd1.38","primitives":[{"attributes":{"POSITION":84,"NORMAL":85},"material":0,"mode":4}]},{"name":"RightInnerGrid-0.7","primitives":[{"attributes":{"POSITION":86,"NORMAL":87},"material":0,"mode":4}]},{"name":"RightInnerGrid0","primitives":[{"attributes":{"POSITION":88,"NORMAL":89},"material":0,"mode":4}]},{"name":"RightInnerGrid0.7","primitives":[{"attributes":{"POSITION":90,"NORMAL":91},"material":0,"mode":4}]},{"name":"RightOuterBack","primitives":[{"attributes":{"POSITION":92,"NORMAL":93},"material":1,"mode":4}]},{"name":"RightOuterFace","primitives":[{"attributes":{"POSITION":94,"NORMAL":95},"material":3,"mode":4}]},{"name":"RightOuterEdge0.02","primitives":[{"attributes":{"POSITION":96,"NORMAL":97},"material":0,"mode":4}]},{"name":"RightOuterEdge0.98","primitives":[{"attributes":{"POSITION":98,"NORMAL":99},"material":0,"mode":4}]},{"name":"RightOuterEnd-1.38","primitives":[{"attributes":{"POSITION":100,"NORMAL":101},"material":0,"mode":4}]},{"name":"RightOuterEnd1.38","primitives":[{"attributes":{"POSITION":102,"NORMAL":103},"material":0,"mode":4}]},{"name":"RightOuterGrid-0.7","primitives":[{"attributes":{"POSITION":104,"NORMAL":105},"material":0,"mode":4}]},{"name":"RightOuterGrid0","primitives":[{"attributes":{"POSITION":106,"NORMAL":107},"material":0,"mode":4}]},{"name":"RightOuterGrid0.7","primitives":[{"attributes":{"POSITION":108,"NORMAL":109},"material":0,"mode":4}]},{"name":"ServiceSide-0.31","primitives":[{"attributes":{"POSITION":110,"NORMAL":111},"material":1,"mode":4}]},{"name":"ServiceSide0.31","primitives":[{"attributes":{"POSITION":112,"NORMAL":113},"material":1,"mode":4}]},{"name":"ServiceEdge0.37","primitives":[{"attributes":{"POSITION":114,"NORMAL":115},"material":1,"mode":4}]},{"name":"ServiceEdge0.79","primitives":[{"attributes":{"POSITION":116,"NORMAL":117},"material":1,"mode":4}]},{"name":"CoverPanel","primitives":[{"attributes":{"POSITION":118,"NORMAL":119},"material":0,"mode":4}]},{"name":"CoverHandle","primitives":[{"attributes":{"POSITION":120,"NORMAL":121},"material":2,"mode":4}]},{"name":"IndicatorBlade","primitives":[{"attributes":{"POSITION":122,"NORMAL":123},"material":2,"mode":4}]},{"name":"IndicatorStand","primitives":[{"attributes":{"POSITION":124,"NORMAL":125},"material":1,"mode":4}]},{"name":"IndicatorArm","primitives":[{"attributes":{"POSITION":126,"NORMAL":127},"material":1,"mode":4}]},{"name":"IndicatorAxle","primitives":[{"attributes":{"POSITION":128,"NORMAL":129},"material":1,"mode":4}]},{"name":"StandFoot","primitives":[{"attributes":{"POSITION":130,"NORMAL":131},"material":1,"mode":4}]},{"name":"StopAxle","primitives":[{"attributes":{"POSITION":132,"NORMAL":133},"material":1,"mode":4}]},{"name":"StopBlade","primitives":[{"attributes":{"POSITION":134,"NORMAL":135},"material":2,"mode":4}]},{"name":"PowerDuct","primitives":[{"attributes":{"POSITION":136,"NORMAL":137},"material":1,"mode":4}]},{"name":"ElectronicsMount","primitives":[{"attributes":{"POSITION":138,"NORMAL":139},"material":1,"mode":4}]},{"name":"ProtectedElectronics","primitives":[{"attributes":{"POSITION":140,"NORMAL":141},"material":1,"mode":4}]},{"name":"ElectronicsInnerCover","primitives":[{"attributes":{"POSITION":142,"NORMAL":143},"material":0,"mode":4}]},{"name":"FixedCableGuardL","primitives":[{"attributes":{"POSITION":144,"NORMAL":145},"material":1,"mode":4}]},{"name":"FixedCableGuardR","primitives":[{"attributes":{"POSITION":146,"NORMAL":147},"material":1,"mode":4}]}],"materials":[{"name":"body_light","pbrMetallicRoughness":{"baseColorFactor":[0.8470588235294118,0.8627450980392157,0.8392156862745098,1.0],"metallicFactor":0.0,"roughnessFactor":0.65}},{"name":"frame_dark","pbrMetallicRoughness":{"baseColorFactor":[0.2196078431372549,0.27058823529411763,0.29411764705882354,1.0],"metallicFactor":0.0,"roughnessFactor":0.65}},{"name":"accent_warm","pbrMetallicRoughness":{"baseColorFactor":[0.8431372549019608,0.4823529411764706,0.23921568627450981,1.0],"metallicFactor":0.0,"roughnessFactor":0.65}},{"name":"solar_face","pbrMetallicRoughness":{"baseColorFactor":[0.12549019607843137,0.23137254901960785,0.3215686274509804,1.0],"metallicFactor":0.0,"roughnessFactor":0.65}}],"accessors":[{"bufferView":0,"componentType":5126,"count":36,"type":"VEC3","min":[-0.4,-0.25,-1.4],"max":[0.4,0.25,1.4]},{"bufferView":1,"componentType":5126,"count":36,"type":"VEC3","min":[-1.0,-1.0,-1.0],"max":[1.0,1.0,1.0]},{"bufferView":2,"componentType":5126,"count":36,"type":"VEC3","min":[-0.38,-0.02,-1.36],"max":[0.38,0.02,1.36]},{"bufferView":3,"componentType":5126,"count":36,"type":"VEC3","min":[-1.0,-1.0,-1.0],"max":[1.0,1.0,1.0]},{"bufferView":4,"componentType":5126,"count":36,"type":"VEC3","min":[-0.29,-0.08,-0.04],"max":[0.29,0.08,0.04]},{"bufferView":5,"componentType":5126,"count":36,"type":"VEC3","min":[-1.0,-1.0,-1.0],"max":[1.0,1.0,1.0]},{"bufferView":6,"componentType":5126,"count":36,"type":"VEC3","min":[-0.22,-0.04,-0.16],"max":[0.22,0.04,0.16]},{"bufferView":7,"componentType":5126,"count":36,"type":"VEC3","min":[-1.0,-1.0,-1.0],"max":[1.0,1.0,1.0]},{"bufferView":8,"componentType":5126,"count":36,"type":"VEC3","min":[-0.16,-0.07,-0.08],"max":[0.16,0.07,0.08]},{"bufferView":9,"componentType":5126,"count":36,"type":"VEC3","min":[-1.0,-1.0,-1.0],"max":[1.0,1.0,1.0]},{"bufferView":10,"componentType":5126,"count":36,"type":"VEC3","min":[-0.22,-0.04,-0.16],"max":[0.22,0.04,0.16]},{"bufferView":11,"componentType":5126,"count":36,"type":"VEC3","min":[-1.0,-1.0,-1.0],"max":[1.0,1.0,1.0]},{"bufferView":12,"componentType":5126,"count":36,"type":"VEC3","min":[-0.16,-0.07,-0.08],"max":[0.16,0.07,0.08]},{"bufferView":13,"componentType":5126,"count":36,"type":"VEC3","min":[-1.0,-1.0,-1.0],"max":[1.0,1.0,1.0]},{"bufferView":14,"componentType":5126,"count":36,"type":"VEC3","min":[-0.22,-0.04,-0.16],"max":[0.22,0.04,0.16]},{"bufferView":15,"componentType":5126,"count":36,"type":"VEC3","min":[-1.0,-1.0,-1.0],"max":[1.0,1.0,1.0]},{"bufferView":16,"componentType":5126,"count":36,"type":"VEC3","min":[-0.16,-0.07,-0.08],"max":[0.16,0.07,0.08]},{"bufferView":17,"componentType":5126,"count":36,"type":"VEC3","min":[-1.0,-1.0,-1.0],"max":[1.0,1.0,1.0]},{"bufferView":18,"componentType":5126,"count":36,"type":"VEC3","min":[-0.22,-0.04,-0.16],"max":[0.22,0.04,0.16]},{"bufferView":19,"componentType":5126,"count":36,"type":"VEC3","min":[-1.0,-1.0,-1.0],"max":[1.0,1.0,1.0]},{"bufferView":20,"componentType":5126,"count":36,"type":"VEC3","min":[-0.16,-0.07,-0.08],"max":[0.16,0.07,0.08]},{"bufferView":21,"componentType":5126,"count":36,"type":"VEC3","min":[-1.0,-1.0,-1.0],"max":[1.0,1.0,1.0]},{"bufferView":22,"componentType":5126,"count":36,"type":"VEC3","min":[-0.015,-0.54,-0.05],"max":[0.015,0.54,0.05]},{"bufferView":23,"componentType":5126,"count":36,"type":"VEC3","min":[-1.0,-1.0,-1.0],"max":[1.0,1.0,1.0]},{"bufferView":24,"componentType":5126,"count":36,"type":"VEC3","min":[-0.015,-0.54,-0.05],"max":[0.015,0.54,0.05]},{"bufferView":25,"componentType":5126,"count":36,"type":"VEC3","min":[-1.0,-1.0,-1.0],"max":[1.0,1.0,1.0]},{"bufferView":26,"componentType":5126,"count":36,"type":"VEC3","min":[-0.57,-0.01,-0.05],"max":[0.57,0.01,0.05]},{"bufferView":27,"componentType":5126,"count":36,"type":"VEC3","min":[-1.0,-1.0,-1.0],"max":[1.0,1.0,1.0]},{"bufferView":28,"componentType":5126,"count":36,"type":"VEC3","min":[-0.57,-0.01,-0.05],"max":[0.57,0.01,0.05]},{"bufferView":29,"componentType":5126,"count":36,"type":"VEC3","min":[-1.0,-1.0,-1.0],"max":[1.0,1.0,1.0]},{"bufferView":30,"componentType":5126,"count":36,"type":"VEC3","min":[-0.015,-0.54,-0.05],"max":[0.015,0.54,0.05]},{"bufferView":31,"componentType":5126,"count":36,"type":"VEC3","min":[-1.0,-1.0,-1.0],"max":[1.0,1.0,1.0]},{"bufferView":32,"componentType":5126,"count":36,"type":"VEC3","min":[-0.015,-0.54,-0.05],"max":[0.015,0.54,0.05]},{"bufferView":33,"componentType":5126,"count":36,"type":"VEC3","min":[-1.0,-1.0,-1.0],"max":[1.0,1.0,1.0]},{"bufferView":34,"componentType":5126,"count":36,"type":"VEC3","min":[-0.57,-0.01,-0.05],"max":[0.57,0.01,0.05]},{"bufferView":35,"componentType":5126,"count":36,"type":"VEC3","min":[-1.0,-1.0,-1.0],"max":[1.0,1.0,1.0]},{"bufferView":36,"componentType":5126,"count":36,"type":"VEC3","min":[-0.57,-0.01,-0.05],"max":[0.57,0.01,0.05]},{"bufferView":37,"componentType":5126,"count":36,"type":"VEC3","min":[-1.0,-1.0,-1.0],"max":[1.0,1.0,1.0]},{"bufferView":38,"componentType":5126,"count":36,"type":"VEC3","min":[-0.5,-0.015,-1.4],"max":[0.5,0.015,1.4]},{"bufferView":39,"componentType":5126,"count":36,"type":"VEC3","min":[-1.0,-1.0,-1.0],"max":[1.0,1.0,1.0]},{"bufferView":40,"componentType":5126,"count":36,"type":"VEC3","min":[-0.46,-0.023,-1.35],"max":[0.46,0.023,1.35]},{"bufferView":41,"componentType":5126,"count":36,"type":"VEC3","min":[-1.0,-1.0,-1.0],"max":[1.0,1.0,1.0]},{"bufferView":42,"componentType":5126,"count":36,"type":"VEC3","min":[-0.02,-0.033,-1.4],"max":[0.02,0.033,1.4]},{"bufferView":43,"componentType":5126,"count":36,"type":"VEC3","min":[-1.0,-1.0,-1.0],"max":[1.0,1.0,1.0]},{"bufferView":44,"componentType":5126,"count":36,"type":"VEC3","min":[-0.02,-0.033,-1.4],"max":[0.02,0.033,1.4]},{"bufferView":45,"componentType":5126,"count":36,"type":"VEC3","min":[-1.0,-1.0,-1.0],"max":[1.0,1.0,1.0]},{"bufferView":46,"componentType":5126,"count":36,"type":"VEC3","min":[-0.46,-0.033,-0.02],"max":[0.46,0.033,0.02]},{"bufferView":47,"componentType":5126,"count":36,"type":"VEC3","min":[-1.0,-1.0,-1.0],"max":[1.0,1.0,1.0]},{"bufferView":48,"componentType":5126,"count":36,"type":"VEC3","min":[-0.46,-0.033,-0.02],"max":[0.46,0.033,0.02]},{"bufferView":49,"componentType":5126,"count":36,"type":"VEC3","min":[-1.0,-1.0,-1.0],"max":[1.0,1.0,1.0]},{"bufferView":50,"componentType":5126,"count":36,"type":"VEC3","min":[-0.46,-0.003,-0.006],"max":[0.46,0.003,0.006]},{"bufferView":51,"componentType":5126,"count":36,"type":"VEC3","min":[-1.0,-1.0,-1.0],"max":[1.0,1.0,1.0]},{"bufferView":52,"componentType":5126,"count":36,"type":"VEC3","min":[-0.46,-0.003,-0.006],"max":[0.46,0.003,0.006]},{"bufferView":53,"componentType":5126,"count":36,"type":"VEC3","min":[-1.0,-1.0,-1.0],"max":[1.0,1.0,1.0]},{"bufferView":54,"componentType":5126,"count":36,"type":"VEC3","min":[-0.46,-0.003,-0.006],"max":[0.46,0.003,0.006]},{"bufferView":55,"componentType":5126,"count":36,"type":"VEC3","min":[-1.0,-1.0,-1.0],"max":[1.0,1.0,1.0]},{"bufferView":56,"componentType":5126,"count":36,"type":"VEC3","min":[-0.5,-0.015,-1.4],"max":[0.5,0.015,1.4]},{"bufferView":57,"componentType":5126,"count":36,"type":"VEC3","min":[-1.0,-1.0,-1.0],"max":[1.0,1.0,1.0]},{"bufferView":58,"componentType":5126,"count":36,"type":"VEC3","min":[-0.46,-0.023,-1.35],"max":[0.46,0.023,1.35]},{"bufferView":59,"componentType":5126,"count":36,"type":"VEC3","min":[-1.0,-1.0,-1.0],"max":[1.0,1.0,1.0]},{"bufferView":60,"componentType":5126,"count":36,"type":"VEC3","min":[-0.02,-0.033,-1.4],"max":[0.02,0.033,1.4]},{"bufferView":61,"componentType":5126,"count":36,"type":"VEC3","min":[-1.0,-1.0,-1.0],"max":[1.0,1.0,1.0]},{"bufferView":62,"componentType":5126,"count":36,"type":"VEC3","min":[-0.02,-0.033,-1.4],"max":[0.02,0.033,1.4]},{"bufferView":63,"componentType":5126,"count":36,"type":"VEC3","min":[-1.0,-1.0,-1.0],"max":[1.0,1.0,1.0]},{"bufferView":64,"componentType":5126,"count":36,"type":"VEC3","min":[-0.46,-0.033,-0.02],"max":[0.46,0.033,0.02]},{"bufferView":65,"componentType":5126,"count":36,"type":"VEC3","min":[-1.0,-1.0,-1.0],"max":[1.0,1.0,1.0]},{"bufferView":66,"componentType":5126,"count":36,"type":"VEC3","min":[-0.46,-0.033,-0.02],"max":[0.46,0.033,0.02]},{"bufferView":67,"componentType":5126,"count":36,"type":"VEC3","min":[-1.0,-1.0,-1.0],"max":[1.0,1.0,1.0]},{"bufferView":68,"componentType":5126,"count":36,"type":"VEC3","min":[-0.46,-0.003,-0.006],"max":[0.46,0.003,0.006]},{"bufferView":69,"componentType":5126,"count":36,"type":"VEC3","min":[-1.0,-1.0,-1.0],"max":[1.0,1.0,1.0]},{"bufferView":70,"componentType":5126,"count":36,"type":"VEC3","min":[-0.46,-0.003,-0.006],"max":[0.46,0.003,0.006]},{"bufferView":71,"componentType":5126,"count":36,"type":"VEC3","min":[-1.0,-1.0,-1.0],"max":[1.0,1.0,1.0]},{"bufferView":72,"componentType":5126,"count":36,"type":"VEC3","min":[-0.46,-0.003,-0.006],"max":[0.46,0.003,0.006]},{"bufferView":73,"componentType":5126,"count":36,"type":"VEC3","min":[-1.0,-1.0,-1.0],"max":[1.0,1.0,1.0]},{"bufferView":74,"componentType":5126,"count":36,"type":"VEC3","min":[-0.5,-0.015,-1.4],"max":[0.5,0.015,1.4]},{"bufferView":75,"componentType":5126,"count":36,"type":"VEC3","min":[-1.0,-1.0,-1.0],"max":[1.0,1.0,1.0]},{"bufferView":76,"componentType":5126,"count":36,"type":"VEC3","min":[-0.46,-0.023,-1.35],"max":[0.46,0.023,1.35]},{"bufferView":77,"componentType":5126,"count":36,"type":"VEC3","min":[-1.0,-1.0,-1.0],"max":[1.0,1.0,1.0]},{"bufferView":78,"componentType":5126,"count":36,"type":"VEC3","min":[-0.02,-0.033,-1.4],"max":[0.02,0.033,1.4]},{"bufferView":79,"componentType":5126,"count":36,"type":"VEC3","min":[-1.0,-1.0,-1.0],"max":[1.0,1.0,1.0]},{"bufferView":80,"componentType":5126,"count":36,"type":"VEC3","min":[-0.02,-0.033,-1.4],"max":[0.02,0.033,1.4]},{"bufferView":81,"componentType":5126,"count":36,"type":"VEC3","min":[-1.0,-1.0,-1.0],"max":[1.0,1.0,1.0]},{"bufferView":82,"componentType":5126,"count":36,"type":"VEC3","min":[-0.46,-0.033,-0.02],"max":[0.46,0.033,0.02]},{"bufferView":83,"componentType":5126,"count":36,"type":"VEC3","min":[-1.0,-1.0,-1.0],"max":[1.0,1.0,1.0]},{"bufferView":84,"componentType":5126,"count":36,"type":"VEC3","min":[-0.46,-0.033,-0.02],"max":[0.46,0.033,0.02]},{"bufferView":85,"componentType":5126,"count":36,"type":"VEC3","min":[-1.0,-1.0,-1.0],"max":[1.0,1.0,1.0]},{"bufferView":86,"componentType":5126,"count":36,"type":"VEC3","min":[-0.46,-0.003,-0.006],"max":[0.46,0.003,0.006]},{"bufferView":87,"componentType":5126,"count":36,"type":"VEC3","min":[-1.0,-1.0,-1.0],"max":[1.0,1.0,1.0]},{"bufferView":88,"componentType":5126,"count":36,"type":"VEC3","min":[-0.46,-0.003,-0.006],"max":[0.46,0.003,0.006]},{"bufferView":89,"componentType":5126,"count":36,"type":"VEC3","min":[-1.0,-1.0,-1.0],"max":[1.0,1.0,1.0]},{"bufferView":90,"componentType":5126,"count":36,"type":"VEC3","min":[-0.46,-0.003,-0.006],"max":[0.46,0.003,0.006]},{"bufferView":91,"componentType":5126,"count":36,"type":"VEC3","min":[-1.0,-1.0,-1.0],"max":[1.0,1.0,1.0]},{"bufferView":92,"componentType":5126,"count":36,"type":"VEC3","min":[-0.5,-0.015,-1.4],"max":[0.5,0.015,1.4]},{"bufferView":93,"componentType":5126,"count":36,"type":"VEC3","min":[-1.0,-1.0,-1.0],"max":[1.0,1.0,1.0]},{"bufferView":94,"componentType":5126,"count":36,"type":"VEC3","min":[-0.46,-0.023,-1.35],"max":[0.46,0.023,1.35]},{"bufferView":95,"componentType":5126,"count":36,"type":"VEC3","min":[-1.0,-1.0,-1.0],"max":[1.0,1.0,1.0]},{"bufferView":96,"componentType":5126,"count":36,"type":"VEC3","min":[-0.02,-0.033,-1.4],"max":[0.02,0.033,1.4]},{"bufferView":97,"componentType":5126,"count":36,"type":"VEC3","min":[-1.0,-1.0,-1.0],"max":[1.0,1.0,1.0]},{"bufferView":98,"componentType":5126,"count":36,"type":"VEC3","min":[-0.02,-0.033,-1.4],"max":[0.02,0.033,1.4]},{"bufferView":99,"componentType":5126,"count":36,"type":"VEC3","min":[-1.0,-1.0,-1.0],"max":[1.0,1.0,1.0]},{"bufferView":100,"componentType":5126,"count":36,"type":"VEC3","min":[-0.46,-0.033,-0.02],"max":[0.46,0.033,0.02]},{"bufferView":101,"componentType":5126,"count":36,"type":"VEC3","min":[-1.0,-1.0,-1.0],"max":[1.0,1.0,1.0]},{"bufferView":102,"componentType":5126,"count":36,"type":"VEC3","min":[-0.46,-0.033,-0.02],"max":[0.46,0.033,0.02]},{"bufferView":103,"componentType":5126,"count":36,"type":"VEC3","min":[-1.0,-1.0,-1.0],"max":[1.0,1.0,1.0]},{"bufferView":104,"componentType":5126,"count":36,"type":"VEC3","min":[-0.46,-0.003,-0.006],"max":[0.46,0.003,0.006]},{"bufferView":105,"componentType":5126,"count":36,"type":"VEC3","min":[-1.0,-1.0,-1.0],"max":[1.0,1.0,1.0]},{"bufferView":106,"componentType":5126,"count":36,"type":"VEC3","min":[-0.46,-0.003,-0.006],"max":[0.46,0.003,0.006]},{"bufferView":107,"componentType":5126,"count":36,"type":"VEC3","min":[-1.0,-1.0,-1.0],"max":[1.0,1.0,1.0]},{"bufferView":108,"componentType":5126,"count":36,"type":"VEC3","min":[-0.46,-0.003,-0.006],"max":[0.46,0.003,0.006]},{"bufferView":109,"componentType":5126,"count":36,"type":"VEC3","min":[-1.0,-1.0,-1.0],"max":[1.0,1.0,1.0]},{"bufferView":110,"componentType":5126,"count":36,"type":"VEC3","min":[-0.01,-0.22,-0.03],"max":[0.01,0.22,0.03]},{"bufferView":111,"componentType":5126,"count":36,"type":"VEC3","min":[-1.0,-1.0,-1.0],"max":[1.0,1.0,1.0]},{"bufferView":112,"componentType":5126,"count":36,"type":"VEC3","min":[-0.01,-0.22,-0.03],"max":[0.01,0.22,0.03]},{"bufferView":113,"componentType":5126,"count":36,"type":"VEC3","min":[-1.0,-1.0,-1.0],"max":[1.0,1.0,1.0]},{"bufferView":114,"componentType":5126,"count":36,"type":"VEC3","min":[-0.3,-0.01,-0.03],"max":[0.3,0.01,0.03]},{"bufferView":115,"componentType":5126,"count":36,"type":"VEC3","min":[-1.0,-1.0,-1.0],"max":[1.0,1.0,1.0]},{"bufferView":116,"componentType":5126,"count":36,"type":"VEC3","min":[-0.3,-0.01,-0.03],"max":[0.3,0.01,0.03]},{"bufferView":117,"componentType":5126,"count":36,"type":"VEC3","min":[-1.0,-1.0,-1.0],"max":[1.0,1.0,1.0]},{"bufferView":118,"componentType":5126,"count":36,"type":"VEC3","min":[-0.29,-0.18,-0.0125],"max":[0.29,0.18,0.0125]},{"bufferView":119,"componentType":5126,"count":36,"type":"VEC3","min":[-1.0,-1.0,-1.0],"max":[1.0,1.0,1.0]},{"bufferView":120,"componentType":5126,"count":36,"type":"VEC3","min":[-0.17,-0.0225,-0.0125],"max":[0.17,0.0225,0.0125]},{"bufferView":121,"componentType":5126,"count":36,"type":"VEC3","min":[-1.0,-1.0,-1.0],"max":[1.0,1.0,1.0]},{"bufferView":122,"componentType":5126,"count":36,"type":"VEC3","min":[-0.25,-0.15,-0.0125],"max":[0.25,0.15,0.0125]},{"bufferView":123,"componentType":5126,"count":36,"type":"VEC3","min":[-1.0,-1.0,-1.0],"max":[1.0,1.0,1.0]},{"bufferView":124,"componentType":5126,"count":36,"type":"VEC3","min":[-0.0175,-0.35,-0.0175],"max":[0.0175,0.35,0.0175]},{"bufferView":125,"componentType":5126,"count":36,"type":"VEC3","min":[-1.0,-1.0,-1.0],"max":[1.0,1.0,1.0]},{"bufferView":126,"componentType":5126,"count":36,"type":"VEC3","min":[-0.18,-0.0175,-0.0175],"max":[0.18,0.0175,0.0175]},{"bufferView":127,"componentType":5126,"count":36,"type":"VEC3","min":[-1.0,-1.0,-1.0],"max":[1.0,1.0,1.0]},{"bufferView":128,"componentType":5126,"count":36,"type":"VEC3","min":[-0.02,-0.02,-0.02],"max":[0.02,0.02,0.02]},{"bufferView":129,"componentType":5126,"count":36,"type":"VEC3","min":[-1.0,-1.0,-1.0],"max":[1.0,1.0,1.0]},{"bufferView":130,"componentType":5126,"count":36,"type":"VEC3","min":[-0.03,-0.03,-0.1],"max":[0.03,0.03,0.1]},{"bufferView":131,"componentType":5126,"count":36,"type":"VEC3","min":[-1.0,-1.0,-1.0],"max":[1.0,1.0,1.0]},{"bufferView":132,"componentType":5126,"count":36,"type":"VEC3","min":[-0.02,-0.02,-0.07],"max":[0.02,0.02,0.07]},{"bufferView":133,"componentType":5126,"count":36,"type":"VEC3","min":[-1.0,-1.0,-1.0],"max":[1.0,1.0,1.0]},{"bufferView":134,"componentType":5126,"count":36,"type":"VEC3","min":[-0.05,-0.16,-0.0125],"max":[0.05,0.16,0.0125]},{"bufferView":135,"componentType":5126,"count":36,"type":"VEC3","min":[-1.0,-1.0,-1.0],"max":[1.0,1.0,1.0]},{"bufferView":136,"componentType":5126,"count":36,"type":"VEC3","min":[-0.15,-0.1,-0.04],"max":[0.15,0.1,0.04]},{"bufferView":137,"componentType":5126,"count":36,"type":"VEC3","min":[-1.0,-1.0,-1.0],"max":[1.0,1.0,1.0]},{"bufferView":138,"componentType":5126,"count":36,"type":"VEC3","min":[-0.12,-0.08,-0.0075],"max":[0.12,0.08,0.0075]},{"bufferView":139,"componentType":5126,"count":36,"type":"VEC3","min":[-1.0,-1.0,-1.0],"max":[1.0,1.0,1.0]},{"bufferView":140,"componentType":5126,"count":36,"type":"VEC3","min":[-0.21,-0.11,-0.02],"max":[0.21,0.11,0.02]},{"bufferView":141,"componentType":5126,"count":36,"type":"VEC3","min":[-1.0,-1.0,-1.0],"max":[1.0,1.0,1.0]},{"bufferView":142,"componentType":5126,"count":36,"type":"VEC3","min":[-0.23,-0.13,-0.0025],"max":[0.23,0.13,0.0025]},{"bufferView":143,"componentType":5126,"count":36,"type":"VEC3","min":[-1.0,-1.0,-1.0],"max":[1.0,1.0,1.0]},{"bufferView":144,"componentType":5126,"count":36,"type":"VEC3","min":[-0.015,-0.04,-0.325],"max":[0.015,0.04,0.325]},{"bufferView":145,"componentType":5126,"count":36,"type":"VEC3","min":[-1.0,-1.0,-1.0],"max":[1.0,1.0,1.0]},{"bufferView":146,"componentType":5126,"count":36,"type":"VEC3","min":[-0.015,-0.04,-0.325],"max":[0.015,0.04,0.325]},{"bufferView":147,"componentType":5126,"count":36,"type":"VEC3","min":[-1.0,-1.0,-1.0],"max":[1.0,1.0,1.0]},{"bufferView":148,"componentType":5126,"count":5,"type":"SCALAR","min":[0.0],"max":[4.0]},{"bufferView":149,"componentType":5126,"count":5,"type":"VEC4","min":[0.0,0.0,-0.7071067811865475,0.7071067811865476],"max":[0.0,0.0,-0.10452846326765347,0.9945218953682733]},{"bufferView":150,"componentType":5126,"count":5,"type":"SCALAR","min":[0.0],"max":[4.0]},{"bufferView":151,"componentType":5126,"count":5,"type":"VEC4","min":[0.0,0.0,-1.0,-1.0],"max":[0.0,0.0,-1.2246467991473532e-16,6.123233995736766e-17]},{"bufferView":152,"componentType":5126,"count":5,"type":"SCALAR","min":[0.0],"max":[4.0]},{"bufferView":153,"componentType":5126,"count":5,"type":"VEC4","min":[0.0,0.0,0.10452846326765347,0.7071067811865476],"max":[0.0,0.0,0.7071067811865475,0.9945218953682733]},{"bufferView":154,"componentType":5126,"count":5,"type":"SCALAR","min":[0.0],"max":[4.0]},{"bufferView":155,"componentType":5126,"count":5,"type":"VEC4","min":[0.0,0.0,1.2246467991473532e-16,-1.0],"max":[0.0,0.0,1.0,6.123233995736766e-17]},{"bufferView":156,"componentType":5126,"count":5,"type":"SCALAR","min":[0.0],"max":[1.0]},{"bufferView":157,"componentType":5126,"count":5,"type":"VEC4","min":[0.0,0.0,-0.17364817766693033,0.984807753012208],"max":[0.0,0.0,0.17364817766693033,1.0]},{"bufferView":158,"componentType":5126,"count":2,"type":"SCALAR","min":[0.0],"max":[1.0]},{"bufferView":159,"componentType":5126,"count":2,"type":"VEC4","min":[0.0,0.0,-0.3007057995042731,0.9537169507482269],"max":[0.0,0.0,0.0,1.0]},{"bufferView":160,"componentType":5126,"count":2,"type":"SCALAR","min":[0.0],"max":[1.0]},{"bufferView":161,"componentType":5126,"count":2,"type":"VEC4","min":[-0.8191520442889918,0.0,0.0,0.573576436351046],"max":[0.0,0.0,0.0,1.0]},{"bufferView":162,"componentType":5126,"count":2,"type":"SCALAR","min":[0.0],"max":[1.0]},{"bufferView":163,"componentType":5126,"count":2,"type":"VEC3","min":[-0.58,0,-1.1],"max":[-0.38,0,-1.1]},{"bufferView":164,"componentType":5126,"count":2,"type":"SCALAR","min":[0.0],"max":[1.0]},{"bufferView":165,"componentType":5126,"count":2,"type":"VEC3","min":[-0.58,0,1.1],"max":[-0.38,0,1.1]},{"bufferView":166,"componentType":5126,"count":2,"type":"SCALAR","min":[0.0],"max":[1.0]},{"bufferView":167,"componentType":5126,"count":2,"type":"VEC3","min":[0.38,0,-1.1],"max":[0.58,0,-1.1]},{"bufferView":168,"componentType":5126,"count":2,"type":"SCALAR","min":[0.0],"max":[1.0]},{"bufferView":169,"componentType":5126,"count":2,"type":"VEC3","min":[0.38,0,1.1],"max":[0.58,0,1.1]}],"bufferViews":[{"buffer":0,"byteOffset":0,"byteLength":432,"target":34962},{"buffer":0,"byteOffset":432,"byteLength":432,"target":34962},{"buffer":0,"byteOffset":864,"byteLength":432,"target":34962},{"buffer":0,"byteOffset":1296,"byteLength":432,"target":34962},{"buffer":0,"byteOffset":1728,"byteLength":432,"target":34962},{"buffer":0,"byteOffset":2160,"byteLength":432,"target":34962},{"buffer":0,"byteOffset":2592,"byteLength":432,"target":34962},{"buffer":0,"byteOffset":3024,"byteLength":432,"target":34962},{"buffer":0,"byteOffset":3456,"byteLength":432,"target":34962},{"buffer":0,"byteOffset":3888,"byteLength":432,"target":34962},{"buffer":0,"byteOffset":4320,"byteLength":432,"target":34962},{"buffer":0,"byteOffset":4752,"byteLength":432,"target":34962},{"buffer":0,"byteOffset":5184,"byteLength":432,"target":34962},{"buffer":0,"byteOffset":5616,"byteLength":432,"target":34962},{"buffer":0,"byteOffset":6048,"byteLength":432,"target":34962},{"buffer":0,"byteOffset":6480,"byteLength":432,"target":34962},{"buffer":0,"byteOffset":6912,"byteLength":432,"target":34962},{"buffer":0,"byteOffset":7344,"byteLength":432,"target":34962},{"buffer":0,"byteOffset":7776,"byteLength":432,"target":34962},{"buffer":0,"byteOffset":8208,"byteLength":432,"target":34962},{"buffer":0,"byteOffset":8640,"byteLength":432,"target":34962},{"buffer":0,"byteOffset":9072,"byteLength":432,"target":34962},{"buffer":0,"byteOffset":9504,"byteLength":432,"target":34962},{"buffer":0,"byteOffset":9936,"byteLength":432,"target":34962},{"buffer":0,"byteOffset":10368,"byteLength":432,"target":34962},{"buffer":0,"byteOffset":10800,"byteLength":432,"target":34962},{"buffer":0,"byteOffset":11232,"byteLength":432,"target":34962},{"buffer":0,"byteOffset":11664,"byteLength":432,"target":34962},{"buffer":0,"byteOffset":12096,"byteLength":432,"target":34962},{"buffer":0,"byteOffset":12528,"byteLength":432,"target":34962},{"buffer":0,"byteOffset":12960,"byteLength":432,"target":34962},{"buffer":0,"byteOffset":13392,"byteLength":432,"target":34962},{"buffer":0,"byteOffset":13824,"byteLength":432,"target":34962},{"buffer":0,"byteOffset":14256,"byteLength":432,"target":34962},{"buffer":0,"byteOffset":14688,"byteLength":432,"target":34962},{"buffer":0,"byteOffset":15120,"byteLength":432,"target":34962},{"buffer":0,"byteOffset":15552,"byteLength":432,"target":34962},{"buffer":0,"byteOffset":15984,"byteLength":432,"target":34962},{"buffer":0,"byteOffset":16416,"byteLength":432,"target":34962},{"buffer":0,"byteOffset":16848,"byteLength":432,"target":34962},{"buffer":0,"byteOffset":17280,"byteLength":432,"target":34962},{"buffer":0,"byteOffset":17712,"byteLength":432,"target":34962},{"buffer":0,"byteOffset":18144,"byteLength":432,"target":34962},{"buffer":0,"byteOffset":18576,"byteLength":432,"target":34962},{"buffer":0,"byteOffset":19008,"byteLength":432,"target":34962},{"buffer":0,"byteOffset":19440,"byteLength":432,"target":34962},{"buffer":0,"byteOffset":19872,"byteLength":432,"target":34962},{"buffer":0,"byteOffset":20304,"byteLength":432,"target":34962},{"buffer":0,"byteOffset":20736,"byteLength":432,"target":34962},{"buffer":0,"byteOffset":21168,"byteLength":432,"target":34962},{"buffer":0,"byteOffset":21600,"byteLength":432,"target":34962},{"buffer":0,"byteOffset":22032,"byteLength":432,"target":34962},{"buffer":0,"byteOffset":22464,"byteLength":432,"target":34962},{"buffer":0,"byteOffset":22896,"byteLength":432,"target":34962},{"buffer":0,"byteOffset":23328,"byteLength":432,"target":34962},{"buffer":0,"byteOffset":23760,"byteLength":432,"target":34962},{"buffer":0,"byteOffset":24192,"byteLength":432,"target":34962},{"buffer":0,"byteOffset":24624,"byteLength":432,"target":34962},{"buffer":0,"byteOffset":25056,"byteLength":432,"target":34962},{"buffer":0,"byteOffset":25488,"byteLength":432,"target":34962},{"buffer":0,"byteOffset":25920,"byteLength":432,"target":34962},{"buffer":0,"byteOffset":26352,"byteLength":432,"target":34962},{"buffer":0,"byteOffset":26784,"byteLength":432,"target":34962},{"buffer":0,"byteOffset":27216,"byteLength":432,"target":34962},{"buffer":0,"byteOffset":27648,"byteLength":432,"target":34962},{"buffer":0,"byteOffset":28080,"byteLength":432,"target":34962},{"buffer":0,"byteOffset":28512,"byteLength":432,"target":34962},{"buffer":0,"byteOffset":28944,"byteLength":432,"target":34962},{"buffer":0,"byteOffset":29376,"byteLength":432,"target":34962},{"buffer":0,"byteOffset":29808,"byteLength":432,"target":34962},{"buffer":0,"byteOffset":30240,"byteLength":432,"target":34962},{"buffer":0,"byteOffset":30672,"byteLength":432,"target":34962},{"buffer":0,"byteOffset":31104,"byteLength":432,"target":34962},{"buffer":0,"byteOffset":31536,"byteLength":432,"target":34962},{"buffer":0,"byteOffset":31968,"byteLength":432,"target":34962},{"buffer":0,"byteOffset":32400,"byteLength":432,"target":34962},{"buffer":0,"byteOffset":32832,"byteLength":432,"target":34962},{"buffer":0,"byteOffset":33264,"byteLength":432,"target":34962},{"buffer":0,"byteOffset":33696,"byteLength":432,"target":34962},{"buffer":0,"byteOffset":34128,"byteLength":432,"target":34962},{"buffer":0,"byteOffset":34560,"byteLength":432,"target":34962},{"buffer":0,"byteOffset":34992,"byteLength":432,"target":34962},{"buffer":0,"byteOffset":35424,"byteLength":432,"target":34962},{"buffer":0,"byteOffset":35856,"byteLength":432,"target":34962},{"buffer":0,"byteOffset":36288,"byteLength":432,"target":34962},{"buffer":0,"byteOffset":36720,"byteLength":432,"target":34962},{"buffer":0,"byteOffset":37152,"byteLength":432,"target":34962},{"buffer":0,"byteOffset":37584,"byteLength":432,"target":34962},{"buffer":0,"byteOffset":38016,"byteLength":432,"target":34962},{"buffer":0,"byteOffset":38448,"byteLength":432,"target":34962},{"buffer":0,"byteOffset":38880,"byteLength":432,"target":34962},{"buffer":0,"byteOffset":39312,"byteLength":432,"target":34962},{"buffer":0,"byteOffset":39744,"byteLength":432,"target":34962},{"buffer":0,"byteOffset":40176,"byteLength":432,"target":34962},{"buffer":0,"byteOffset":40608,"byteLength":432,"target":34962},{"buffer":0,"byteOffset":41040,"byteLength":432,"target":34962},{"buffer":0,"byteOffset":41472,"byteLength":432,"target":34962},{"buffer":0,"byteOffset":41904,"byteLength":432,"target":34962},{"buffer":0,"byteOffset":42336,"byteLength":432,"target":34962},{"buffer":0,"byteOffset":42768,"byteLength":432,"target":34962},{"buffer":0,"byteOffset":43200,"byteLength":432,"target":34962},{"buffer":0,"byteOffset":43632,"byteLength":432,"target":34962},{"buffer":0,"byteOffset":44064,"byteLength":432,"target":34962},{"buffer":0,"byteOffset":44496,"byteLength":432,"target":34962},{"buffer":0,"byteOffset":44928,"byteLength":432,"target":34962},{"buffer":0,"byteOffset":45360,"byteLength":432,"target":34962},{"buffer":0,"byteOffset":45792,"byteLength":432,"target":34962},{"buffer":0,"byteOffset":46224,"byteLength":432,"target":34962},{"buffer":0,"byteOffset":46656,"byteLength":432,"target":34962},{"buffer":0,"byteOffset":47088,"byteLength":432,"target":34962},{"buffer":0,"byteOffset":47520,"byteLength":432,"target":34962},{"buffer":0,"byteOffset":47952,"byteLength":432,"target":34962},{"buffer":0,"byteOffset":48384,"byteLength":432,"target":34962},{"buffer":0,"byteOffset":48816,"byteLength":432,"target":34962},{"buffer":0,"byteOffset":49248,"byteLength":432,"target":34962},{"buffer":0,"byteOffset":49680,"byteLength":432,"target":34962},{"buffer":0,"byteOffset":50112,"byteLength":432,"target":34962},{"buffer":0,"byteOffset":50544,"byteLength":432,"target":34962},{"buffer":0,"byteOffset":50976,"byteLength":432,"target":34962},{"buffer":0,"byteOffset":51408,"byteLength":432,"target":34962},{"buffer":0,"byteOffset":51840,"byteLength":432,"target":34962},{"buffer":0,"byteOffset":52272,"byteLength":432,"target":34962},{"buffer":0,"byteOffset":52704,"byteLength":432,"target":34962},{"buffer":0,"byteOffset":53136,"byteLength":432,"target":34962},{"buffer":0,"byteOffset":53568,"byteLength":432,"target":34962},{"buffer":0,"byteOffset":54000,"byteLength":432,"target":34962},{"buffer":0,"byteOffset":54432,"byteLength":432,"target":34962},{"buffer":0,"byteOffset":54864,"byteLength":432,"target":34962},{"buffer":0,"byteOffset":55296,"byteLength":432,"target":34962},{"buffer":0,"byteOffset":55728,"byteLength":432,"target":34962},{"buffer":0,"byteOffset":56160,"byteLength":432,"target":34962},{"buffer":0,"byteOffset":56592,"byteLength":432,"target":34962},{"buffer":0,"byteOffset":57024,"byteLength":432,"target":34962},{"buffer":0,"byteOffset":57456,"byteLength":432,"target":34962},{"buffer":0,"byteOffset":57888,"byteLength":432,"target":34962},{"buffer":0,"byteOffset":58320,"byteLength":432,"target":34962},{"buffer":0,"byteOffset":58752,"byteLength":432,"target":34962},{"buffer":0,"byteOffset":59184,"byteLength":432,"target":34962},{"buffer":0,"byteOffset":59616,"byteLength":432,"target":34962},{"buffer":0,"byteOffset":60048,"byteLength":432,"target":34962},{"buffer":0,"byteOffset":60480,"byteLength":432,"target":34962},{"buffer":0,"byteOffset":60912,"byteLength":432,"target":34962},{"buffer":0,"byteOffset":61344,"byteLength":432,"target":34962},{"buffer":0,"byteOffset":61776,"byteLength":432,"target":34962},{"buffer":0,"byteOffset":62208,"byteLength":432,"target":34962},{"buffer":0,"byteOffset":62640,"byteLength":432,"target":34962},{"buffer":0,"byteOffset":63072,"byteLength":432,"target":34962},{"buffer":0,"byteOffset":63504,"byteLength":432,"target":34962},{"buffer":0,"byteOffset":63936,"byteLength":20},{"buffer":0,"byteOffset":63956,"byteLength":80},{"buffer":0,"byteOffset":64036,"byteLength":20},{"buffer":0,"byteOffset":64056,"byteLength":80},{"buffer":0,"byteOffset":64136,"byteLength":20},{"buffer":0,"byteOffset":64156,"byteLength":80},{"buffer":0,"byteOffset":64236,"byteLength":20},{"buffer":0,"byteOffset":64256,"byteLength":80},{"buffer":0,"byteOffset":64336,"byteLength":20},{"buffer":0,"byteOffset":64356,"byteLength":80},{"buffer":0,"byteOffset":64436,"byteLength":8},{"buffer":0,"byteOffset":64444,"byteLength":32},{"buffer":0,"byteOffset":64476,"byteLength":8},{"buffer":0,"byteOffset":64484,"byteLength":32},{"buffer":0,"byteOffset":64516,"byteLength":8},{"buffer":0,"byteOffset":64524,"byteLength":24},{"buffer":0,"byteOffset":64548,"byteLength":8},{"buffer":0,"byteOffset":64556,"byteLength":24},{"buffer":0,"byteOffset":64580,"byteLength":8},{"buffer":0,"byteOffset":64588,"byteLength":24},{"buffer":0,"byteOffset":64612,"byteLength":8},{"buffer":0,"byteOffset":64620,"byteLength":24}],"animations":[{"name":"deploying","samplers":[{"input":148,"output":149,"interpolation":"LINEAR"},{"input":150,"output":151,"interpolation":"LINEAR"},{"input":152,"output":153,"interpolation":"LINEAR"},{"input":154,"output":155,"interpolation":"LINEAR"}],"channels":[{"sampler":0,"target":{"node":27,"path":"rotation"}},{"sampler":1,"target":{"node":37,"path":"rotation"}},{"sampler":2,"target":{"node":47,"path":"rotation"}},{"sampler":3,"target":{"node":57,"path":"rotation"}}]},{"name":"work-loop","samplers":[{"input":156,"output":157,"interpolation":"LINEAR"}],"channels":[{"sampler":0,"target":{"node":74,"path":"rotation"}}]},{"name":"disabled","samplers":[{"input":158,"output":159,"interpolation":"LINEAR"}],"channels":[{"sampler":0,"target":{"node":81,"path":"rotation"}}]},{"name":"maintenance","samplers":[{"input":160,"output":161,"interpolation":"LINEAR"}],"channels":[{"sampler":0,"target":{"node":71,"path":"rotation"}}]},{"name":"packed","samplers":[{"input":162,"output":163,"interpolation":"LINEAR"},{"input":164,"output":165,"interpolation":"LINEAR"},{"input":166,"output":167,"interpolation":"LINEAR"},{"input":168,"output":169,"interpolation":"LINEAR"}],"channels":[{"sampler":0,"target":{"node":6,"path":"translation"}},{"sampler":1,"target":{"node":9,"path":"translation"}},{"sampler":2,"target":{"node":12,"path":"translation"}},{"sampler":3,"target":{"node":15,"path":"translation"}}]}],"buffers":[{"byteLength":64644,"uri":"solar-r1.bin"}]}