{"asset":{"version":"2.0","generator":"yudian ART-F03-GEO generate_storage_r1.py (python stdlib, original)"},"scene":0,"scenes":[{"name":"Scene","nodes":[0]}],"nodes":[{"name":"Storage","translation":[0.0,0.0,0.0],"children":[1,2,3,4,5]},{"name":"Structure","translation":[0.0,0.0,0.0],"mesh":0},{"name":"RearPanel","translation":[0.0,0.0,0.0],"mesh":1},{"name":"TopCanopy","translation":[0.0,0.0,0.0],"mesh":2},{"name":"FrontMark","translation":[0.0,0.0,0.0],"mesh":3},{"name":"RackPayloadDemo","translation":[0.0,0.0,0.0],"children":[6,7,8,9,10,11,12,13,14,15,16,17]},{"name":"Crate_B01","translation":[-1.35,0.2,-0.7],"mesh":4},{"name":"Crate_B02","translation":[-1.35,0.2,0.6],"mesh":5},{"name":"Crate_B03","translation":[0.0,0.2,-0.7],"mesh":6},{"name":"Crate_B04","translation":[0.0,0.2,0.6],"mesh":7},{"name":"Crate_B05","translation":[1.35,0.2,-0.7],"mesh":8},{"name":"Crate_B06","translation":[1.35,0.2,0.6],"mesh":9},{"name":"Crate_T01","translation":[-1.35,1.1,-0.7],"mesh":10},{"name":"Crate_T02","translation":[-1.35,1.1,0.6],"mesh":11},{"name":"Crate_T03","translation":[0.0,1.1,-0.7],"mesh":12},{"name":"Crate_T04","translation":[0.0,1.1,0.6],"mesh":13},{"name":"Crate_T05","translation":[1.35,1.1,-0.7],"mesh":14},{"name":"Crate_T06","translation":[1.35,1.1,0.6],"mesh":15}],"meshes":[{"name":"Structure","primitives":[{"attributes":{"POSITION":0,"NORMAL":1},"indices":2,"material":0,"mode":4}]},{"name":"RearPanel","primitives":[{"attributes":{"POSITION":3,"NORMAL":4},"indices":5,"material":1,"mode":4}]},{"name":"TopCanopy","primitives":[{"attributes":{"POSITION":6,"NORMAL":7},"indices":8,"material":1,"mode":4}]},{"name":"FrontMark","primitives":[{"attributes":{"POSITION":9,"NORMAL":10},"indices":11,"material":2,"mode":4}]},{"name":"Crate_B01","primitives":[{"attributes":{"POSITION":12,"NORMAL":13},"indices":14,"material":0,"mode":4},{"attributes":{"POSITION":15,"NORMAL":16},"indices":17,"material":1,"mode":4},{"attributes":{"POSITION":18,"NORMAL":19},"indices":20,"material":0,"mode":4},{"attributes":{"POSITION":21,"NORMAL":22},"indices":23,"material":2,"mode":4}]},{"name":"Crate_B02","primitives":[{"attributes":{"POSITION":24,"NORMAL":25},"indices":26,"material":0,"mode":4},{"attributes":{"POSITION":27,"NORMAL":28},"indices":29,"material":1,"mode":4},{"attributes":{"POSITION":30,"NORMAL":31},"indices":32,"material":0,"mode":4},{"attributes":{"POSITION":33,"NORMAL":34},"indices":35,"material":2,"mode":4}]},{"name":"Crate_B03","primitives":[{"attributes":{"POSITION":36,"NORMAL":37},"indices":38,"material":0,"mode":4},{"attributes":{"POSITION":39,"NORMAL":40},"indices":41,"material":1,"mode":4},{"attributes":{"POSITION":42,"NORMAL":43},"indices":44,"material":0,"mode":4},{"attributes":{"POSITION":45,"NORMAL":46},"indices":47,"material":2,"mode":4}]},{"name":"Crate_B04","primitives":[{"attributes":{"POSITION":48,"NORMAL":49},"indices":50,"material":0,"mode":4},{"attributes":{"POSITION":51,"NORMAL":52},"indices":53,"material":1,"mode":4},{"attributes":{"POSITION":54,"NORMAL":55},"indices":56,"material":0,"mode":4},{"attributes":{"POSITION":57,"NORMAL":58},"indices":59,"material":2,"mode":4}]},{"name":"Crate_B05","primitives":[{"attributes":{"POSITION":60,"NORMAL":61},"indices":62,"material":0,"mode":4},{"attributes":{"POSITION":63,"NORMAL":64},"indices":65,"material":1,"mode":4},{"attributes":{"POSITION":66,"NORMAL":67},"indices":68,"material":0,"mode":4},{"attributes":{"POSITION":69,"NORMAL":70},"indices":71,"material":2,"mode":4}]},{"name":"Crate_B06","primitives":[{"attributes":{"POSITION":72,"NORMAL":73},"indices":74,"material":0,"mode":4},{"attributes":{"POSITION":75,"NORMAL":76},"indices":77,"material":1,"mode":4},{"attributes":{"POSITION":78,"NORMAL":79},"indices":80,"material":0,"mode":4},{"attributes":{"POSITION":81,"NORMAL":82},"indices":83,"material":2,"mode":4}]},{"name":"Crate_T01","primitives":[{"attributes":{"POSITION":84,"NORMAL":85},"indices":86,"material":0,"mode":4},{"attributes":{"POSITION":87,"NORMAL":88},"indices":89,"material":1,"mode":4},{"attributes":{"POSITION":90,"NORMAL":91},"indices":92,"material":0,"mode":4},{"attributes":{"POSITION":93,"NORMAL":94},"indices":95,"material":2,"mode":4}]},{"name":"Crate_T02","primitives":[{"attributes":{"POSITION":96,"NORMAL":97},"indices":98,"material":0,"mode":4},{"attributes":{"POSITION":99,"NORMAL":100},"indices":101,"material":1,"mode":4},{"attributes":{"POSITION":102,"NORMAL":103},"indices":104,"material":0,"mode":4},{"attributes":{"POSITION":105,"NORMAL":106},"indices":107,"material":2,"mode":4}]},{"name":"Crate_T03","primitives":[{"attributes":{"POSITION":108,"NORMAL":109},"indices":110,"material":0,"mode":4},{"attributes":{"POSITION":111,"NORMAL":112},"indices":113,"material":1,"mode":4},{"attributes":{"POSITION":114,"NORMAL":115},"indices":116,"material":0,"mode":4},{"attributes":{"POSITION":117,"NORMAL":118},"indices":119,"material":2,"mode":4}]},{"name":"Crate_T04","primitives":[{"attributes":{"POSITION":120,"NORMAL":121},"indices":122,"material":0,"mode":4},{"attributes":{"POSITION":123,"NORMAL":124},"indices":125,"material":1,"mode":4},{"attributes":{"POSITION":126,"NORMAL":127},"indices":128,"material":0,"mode":4},{"attributes":{"POSITION":129,"NORMAL":130},"indices":131,"material":2,"mode":4}]},{"name":"Crate_T05","primitives":[{"attributes":{"POSITION":132,"NORMAL":133},"indices":134,"material":0,"mode":4},{"attributes":{"POSITION":135,"NORMAL":136},"indices":137,"material":1,"mode":4},{"attributes":{"POSITION":138,"NORMAL":139},"indices":140,"material":0,"mode":4},{"attributes":{"POSITION":141,"NORMAL":142},"indices":143,"material":2,"mode":4}]},{"name":"Crate_T06","primitives":[{"attributes":{"POSITION":144,"NORMAL":145},"indices":146,"material":0,"mode":4},{"attributes":{"POSITION":147,"NORMAL":148},"indices":149,"material":1,"mode":4},{"attributes":{"POSITION":150,"NORMAL":151},"indices":152,"material":0,"mode":4},{"attributes":{"POSITION":153,"NORMAL":154},"indices":155,"material":2,"mode":4}]}],"materials":[{"name":"frame_dark","pbrMetallicRoughness":{"baseColorFactor":[0.0401,0.0578,0.0694,1.0],"metallicFactor":0.2,"roughnessFactor":0.75}},{"name":"body_light","pbrMetallicRoughness":{"baseColorFactor":[0.6818,0.714,0.6718,1.0],"metallicFactor":0.0,"roughnessFactor":0.65}},{"name":"accent_warm","pbrMetallicRoughness":{"baseColorFactor":[0.6712,0.1975,0.048,1.0],"metallicFactor":0.0,"roughnessFactor":0.6}}],"accessors":[{"bufferView":0,"componentType":5126,"count":396,"type":"VEC3","min":[-2.25,0.0,-1.6],"max":[2.25,2.2,1.6]},{"bufferView":1,"componentType":5126,"count":396,"type":"VEC3","min":[-1.0,-1.0,-1.0],"max":[1.0,1.0,1.0]},{"bufferView":2,"componentType":5125,"count":396,"type":"SCALAR","min":[0],"max":[395]},{"bufferView":3,"componentType":5126,"count":36,"type":"VEC3","min":[-2.05,1.725,1.5],"max":[2.05,1.975,1.58]},{"bufferView":4,"componentType":5126,"count":36,"type":"VEC3","min":[-1.0,-1.0,-1.0],"max":[1.0,1.0,1.0]},{"bufferView":5,"componentType":5125,"count":36,"type":"SCALAR","min":[0],"max":[35]},{"bufferView":6,"componentType":5126,"count":72,"type":"VEC3","min":[-2.05,2.14,-1.39],"max":[2.05,2.1999999999999997,1.39]},{"bufferView":7,"componentType":5126,"count":72,"type":"VEC3","min":[-1.0,-1.0,-1.0],"max":[1.0,1.0,1.0]},{"bufferView":8,"componentType":5125,"count":72,"type":"SCALAR","min":[0],"max":[71]},{"bufferView":9,"componentType":5126,"count":36,"type":"VEC3","min":[-0.45,0.12,-1.55],"max":[0.45,0.135,-1.49]},{"bufferView":10,"componentType":5126,"count":36,"type":"VEC3","min":[-1.0,-1.0,-1.0],"max":[1.0,1.0,1.0]},{"bufferView":11,"componentType":5125,"count":36,"type":"SCALAR","min":[0],"max":[35]},{"bufferView":12,"componentType":5126,"count":36,"type":"VEC3","min":[-0.295,0.0,-0.325],"max":[0.295,0.14,0.325]},{"bufferView":13,"componentType":5126,"count":36,"type":"VEC3","min":[-1.0,-1.0,-1.0],"max":[1.0,1.0,1.0]},{"bufferView":14,"componentType":5125,"count":36,"type":"SCALAR","min":[0],"max":[35]},{"bufferView":15,"componentType":5126,"count":36,"type":"VEC3","min":[-0.31,0.14,-0.34],"max":[0.31,0.32,0.34]},{"bufferView":16,"componentType":5126,"count":36,"type":"VEC3","min":[-1.0,-1.0,-1.0],"max":[1.0,1.0,1.0]},{"bufferView":17,"componentType":5125,"count":36,"type":"SCALAR","min":[0],"max":[35]},{"bufferView":18,"componentType":5126,"count":36,"type":"VEC3","min":[-0.32,0.31999999999999995,-0.35],"max":[0.32,0.38,0.35]},{"bufferView":19,"componentType":5126,"count":36,"type":"VEC3","min":[-1.0,-1.0,-1.0],"max":[1.0,1.0,1.0]},{"bufferView":20,"componentType":5125,"count":36,"type":"SCALAR","min":[0],"max":[35]},{"bufferView":21,"componentType":5126,"count":36,"type":"VEC3","min":[0.08,0.24500000000000002,-0.34700000000000003],"max":[0.24,0.29500000000000004,-0.339]},{"bufferView":22,"componentType":5126,"count":36,"type":"VEC3","min":[-1.0,-1.0,-1.0],"max":[1.0,1.0,1.0]},{"bufferView":23,"componentType":5125,"count":36,"type":"SCALAR","min":[0],"max":[35]},{"bufferView":24,"componentType":5126,"count":36,"type":"VEC3","min":[-0.295,0.0,-0.325],"max":[0.295,0.14,0.325]},{"bufferView":25,"componentType":5126,"count":36,"type":"VEC3","min":[-1.0,-1.0,-1.0],"max":[1.0,1.0,1.0]},{"bufferView":26,"componentType":5125,"count":36,"type":"SCALAR","min":[0],"max":[35]},{"bufferView":27,"componentType":5126,"count":36,"type":"VEC3","min":[-0.31,0.14,-0.34],"max":[0.31,0.32,0.34]},{"bufferView":28,"componentType":5126,"count":36,"type":"VEC3","min":[-1.0,-1.0,-1.0],"max":[1.0,1.0,1.0]},{"bufferView":29,"componentType":5125,"count":36,"type":"SCALAR","min":[0],"max":[35]},{"bufferView":30,"componentType":5126,"count":36,"type":"VEC3","min":[-0.32,0.31999999999999995,-0.35],"max":[0.32,0.38,0.35]},{"bufferView":31,"componentType":5126,"count":36,"type":"VEC3","min":[-1.0,-1.0,-1.0],"max":[1.0,1.0,1.0]},{"bufferView":32,"componentType":5125,"count":36,"type":"SCALAR","min":[0],"max":[35]},{"bufferView":33,"componentType":5126,"count":36,"type":"VEC3","min":[0.08,0.24500000000000002,-0.34700000000000003],"max":[0.24,0.29500000000000004,-0.339]},{"bufferView":34,"componentType":5126,"count":36,"type":"VEC3","min":[-1.0,-1.0,-1.0],"max":[1.0,1.0,1.0]},{"bufferView":35,"componentType":5125,"count":36,"type":"SCALAR","min":[0],"max":[35]},{"bufferView":36,"componentType":5126,"count":36,"type":"VEC3","min":[-0.295,0.0,-0.325],"max":[0.295,0.14,0.325]},{"bufferView":37,"componentType":5126,"count":36,"type":"VEC3","min":[-1.0,-1.0,-1.0],"max":[1.0,1.0,1.0]},{"bufferView":38,"componentType":5125,"count":36,"type":"SCALAR","min":[0],"max":[35]},{"bufferView":39,"componentType":5126,"count":36,"type":"VEC3","min":[-0.31,0.14,-0.34],"max":[0.31,0.32,0.34]},{"bufferView":40,"componentType":5126,"count":36,"type":"VEC3","min":[-1.0,-1.0,-1.0],"max":[1.0,1.0,1.0]},{"bufferView":41,"componentType":5125,"count":36,"type":"SCALAR","min":[0],"max":[35]},{"bufferView":42,"componentType":5126,"count":36,"type":"VEC3","min":[-0.32,0.31999999999999995,-0.35],"max":[0.32,0.38,0.35]},{"bufferView":43,"componentType":5126,"count":36,"type":"VEC3","min":[-1.0,-1.0,-1.0],"max":[1.0,1.0,1.0]},{"bufferView":44,"componentType":5125,"count":36,"type":"SCALAR","min":[0],"max":[35]},{"bufferView":45,"componentType":5126,"count":36,"type":"VEC3","min":[0.08,0.24500000000000002,-0.34700000000000003],"max":[0.24,0.29500000000000004,-0.339]},{"bufferView":46,"componentType":5126,"count":36,"type":"VEC3","min":[-1.0,-1.0,-1.0],"max":[1.0,1.0,1.0]},{"bufferView":47,"componentType":5125,"count":36,"type":"SCALAR","min":[0],"max":[35]},{"bufferView":48,"componentType":5126,"count":36,"type":"VEC3","min":[-0.295,0.0,-0.325],"max":[0.295,0.14,0.325]},{"bufferView":49,"componentType":5126,"count":36,"type":"VEC3","min":[-1.0,-1.0,-1.0],"max":[1.0,1.0,1.0]},{"bufferView":50,"componentType":5125,"count":36,"type":"SCALAR","min":[0],"max":[35]},{"bufferView":51,"componentType":5126,"count":36,"type":"VEC3","min":[-0.31,0.14,-0.34],"max":[0.31,0.32,0.34]},{"bufferView":52,"componentType":5126,"count":36,"type":"VEC3","min":[-1.0,-1.0,-1.0],"max":[1.0,1.0,1.0]},{"bufferView":53,"componentType":5125,"count":36,"type":"SCALAR","min":[0],"max":[35]},{"bufferView":54,"componentType":5126,"count":36,"type":"VEC3","min":[-0.32,0.31999999999999995,-0.35],"max":[0.32,0.38,0.35]},{"bufferView":55,"componentType":5126,"count":36,"type":"VEC3","min":[-1.0,-1.0,-1.0],"max":[1.0,1.0,1.0]},{"bufferView":56,"componentType":5125,"count":36,"type":"SCALAR","min":[0],"max":[35]},{"bufferView":57,"componentType":5126,"count":36,"type":"VEC3","min":[0.08,0.24500000000000002,-0.34700000000000003],"max":[0.24,0.29500000000000004,-0.339]},{"bufferView":58,"componentType":5126,"count":36,"type":"VEC3","min":[-1.0,-1.0,-1.0],"max":[1.0,1.0,1.0]},{"bufferView":59,"componentType":5125,"count":36,"type":"SCALAR","min":[0],"max":[35]},{"bufferView":60,"componentType":5126,"count":36,"type":"VEC3","min":[-0.295,0.0,-0.325],"max":[0.295,0.14,0.325]},{"bufferView":61,"componentType":5126,"count":36,"type":"VEC3","min":[-1.0,-1.0,-1.0],"max":[1.0,1.0,1.0]},{"bufferView":62,"componentType":5125,"count":36,"type":"SCALAR","min":[0],"max":[35]},{"bufferView":63,"componentType":5126,"count":36,"type":"VEC3","min":[-0.31,0.14,-0.34],"max":[0.31,0.32,0.34]},{"bufferView":64,"componentType":5126,"count":36,"type":"VEC3","min":[-1.0,-1.0,-1.0],"max":[1.0,1.0,1.0]},{"bufferView":65,"componentType":5125,"count":36,"type":"SCALAR","min":[0],"max":[35]},{"bufferView":66,"componentType":5126,"count":36,"type":"VEC3","min":[-0.32,0.31999999999999995,-0.35],"max":[0.32,0.38,0.35]},{"bufferView":67,"componentType":5126,"count":36,"type":"VEC3","min":[-1.0,-1.0,-1.0],"max":[1.0,1.0,1.0]},{"bufferView":68,"componentType":5125,"count":36,"type":"SCALAR","min":[0],"max":[35]},{"bufferView":69,"componentType":5126,"count":36,"type":"VEC3","min":[0.08,0.24500000000000002,-0.34700000000000003],"max":[0.24,0.29500000000000004,-0.339]},{"bufferView":70,"componentType":5126,"count":36,"type":"VEC3","min":[-1.0,-1.0,-1.0],"max":[1.0,1.0,1.0]},{"bufferView":71,"componentType":5125,"count":36,"type":"SCALAR","min":[0],"max":[35]},{"bufferView":72,"componentType":5126,"count":36,"type":"VEC3","min":[-0.295,0.0,-0.325],"max":[0.295,0.14,0.325]},{"bufferView":73,"componentType":5126,"count":36,"type":"VEC3","min":[-1.0,-1.0,-1.0],"max":[1.0,1.0,1.0]},{"bufferView":74,"componentType":5125,"count":36,"type":"SCALAR","min":[0],"max":[35]},{"bufferView":75,"componentType":5126,"count":36,"type":"VEC3","min":[-0.31,0.14,-0.34],"max":[0.31,0.32,0.34]},{"bufferView":76,"componentType":5126,"count":36,"type":"VEC3","min":[-1.0,-1.0,-1.0],"max":[1.0,1.0,1.0]},{"bufferView":77,"componentType":5125,"count":36,"type":"SCALAR","min":[0],"max":[35]},{"bufferView":78,"componentType":5126,"count":36,"type":"VEC3","min":[-0.32,0.31999999999999995,-0.35],"max":[0.32,0.38,0.35]},{"bufferView":79,"componentType":5126,"count":36,"type":"VEC3","min":[-1.0,-1.0,-1.0],"max":[1.0,1.0,1.0]},{"bufferView":80,"componentType":5125,"count":36,"type":"SCALAR","min":[0],"max":[35]},{"bufferView":81,"componentType":5126,"count":36,"type":"VEC3","min":[0.08,0.24500000000000002,-0.34700000000000003],"max":[0.24,0.29500000000000004,-0.339]},{"bufferView":82,"componentType":5126,"count":36,"type":"VEC3","min":[-1.0,-1.0,-1.0],"max":[1.0,1.0,1.0]},{"bufferView":83,"componentType":5125,"count":36,"type":"SCALAR","min":[0],"max":[35]},{"bufferView":84,"componentType":5126,"count":36,"type":"VEC3","min":[-0.295,0.0,-0.325],"max":[0.295,0.14,0.325]},{"bufferView":85,"componentType":5126,"count":36,"type":"VEC3","min":[-1.0,-1.0,-1.0],"max":[1.0,1.0,1.0]},{"bufferView":86,"componentType":5125,"count":36,"type":"SCALAR","min":[0],"max":[35]},{"bufferView":87,"componentType":5126,"count":36,"type":"VEC3","min":[-0.31,0.14,-0.34],"max":[0.31,0.32,0.34]},{"bufferView":88,"componentType":5126,"count":36,"type":"VEC3","min":[-1.0,-1.0,-1.0],"max":[1.0,1.0,1.0]},{"bufferView":89,"componentType":5125,"count":36,"type":"SCALAR","min":[0],"max":[35]},{"bufferView":90,"componentType":5126,"count":36,"type":"VEC3","min":[-0.32,0.31999999999999995,-0.35],"max":[0.32,0.38,0.35]},{"bufferView":91,"componentType":5126,"count":36,"type":"VEC3","min":[-1.0,-1.0,-1.0],"max":[1.0,1.0,1.0]},{"bufferView":92,"componentType":5125,"count":36,"type":"SCALAR","min":[0],"max":[35]},{"bufferView":93,"componentType":5126,"count":36,"type":"VEC3","min":[0.08,0.24500000000000002,-0.34700000000000003],"max":[0.24,0.29500000000000004,-0.339]},{"bufferView":94,"componentType":5126,"count":36,"type":"VEC3","min":[-1.0,-1.0,-1.0],"max":[1.0,1.0,1.0]},{"bufferView":95,"componentType":5125,"count":36,"type":"SCALAR","min":[0],"max":[35]},{"bufferView":96,"componentType":5126,"count":36,"type":"VEC3","min":[-0.295,0.0,-0.325],"max":[0.295,0.14,0.325]},{"bufferView":97,"componentType":5126,"count":36,"type":"VEC3","min":[-1.0,-1.0,-1.0],"max":[1.0,1.0,1.0]},{"bufferView":98,"componentType":5125,"count":36,"type":"SCALAR","min":[0],"max":[35]},{"bufferView":99,"componentType":5126,"count":36,"type":"VEC3","min":[-0.31,0.14,-0.34],"max":[0.31,0.32,0.34]},{"bufferView":100,"componentType":5126,"count":36,"type":"VEC3","min":[-1.0,-1.0,-1.0],"max":[1.0,1.0,1.0]},{"bufferView":101,"componentType":5125,"count":36,"type":"SCALAR","min":[0],"max":[35]},{"bufferView":102,"componentType":5126,"count":36,"type":"VEC3","min":[-0.32,0.31999999999999995,-0.35],"max":[0.32,0.38,0.35]},{"bufferView":103,"componentType":5126,"count":36,"type":"VEC3","min":[-1.0,-1.0,-1.0],"max":[1.0,1.0,1.0]},{"bufferView":104,"componentType":5125,"count":36,"type":"SCALAR","min":[0],"max":[35]},{"bufferView":105,"componentType":5126,"count":36,"type":"VEC3","min":[0.08,0.24500000000000002,-0.34700000000000003],"max":[0.24,0.29500000000000004,-0.339]},{"bufferView":106,"componentType":5126,"count":36,"type":"VEC3","min":[-1.0,-1.0,-1.0],"max":[1.0,1.0,1.0]},{"bufferView":107,"componentType":5125,"count":36,"type":"SCALAR","min":[0],"max":[35]},{"bufferView":108,"componentType":5126,"count":36,"type":"VEC3","min":[-0.295,0.0,-0.325],"max":[0.295,0.14,0.325]},{"bufferView":109,"componentType":5126,"count":36,"type":"VEC3","min":[-1.0,-1.0,-1.0],"max":[1.0,1.0,1.0]},{"bufferView":110,"componentType":5125,"count":36,"type":"SCALAR","min":[0],"max":[35]},{"bufferView":111,"componentType":5126,"count":36,"type":"VEC3","min":[-0.31,0.14,-0.34],"max":[0.31,0.32,0.34]},{"bufferView":112,"componentType":5126,"count":36,"type":"VEC3","min":[-1.0,-1.0,-1.0],"max":[1.0,1.0,1.0]},{"bufferView":113,"componentType":5125,"count":36,"type":"SCALAR","min":[0],"max":[35]},{"bufferView":114,"componentType":5126,"count":36,"type":"VEC3","min":[-0.32,0.31999999999999995,-0.35],"max":[0.32,0.38,0.35]},{"bufferView":115,"componentType":5126,"count":36,"type":"VEC3","min":[-1.0,-1.0,-1.0],"max":[1.0,1.0,1.0]},{"bufferView":116,"componentType":5125,"count":36,"type":"SCALAR","min":[0],"max":[35]},{"bufferView":117,"componentType":5126,"count":36,"type":"VEC3","min":[0.08,0.24500000000000002,-0.34700000000000003],"max":[0.24,0.29500000000000004,-0.339]},{"bufferView":118,"componentType":5126,"count":36,"type":"VEC3","min":[-1.0,-1.0,-1.0],"max":[1.0,1.0,1.0]},{"bufferView":119,"componentType":5125,"count":36,"type":"SCALAR","min":[0],"max":[35]},{"bufferView":120,"componentType":5126,"count":36,"type":"VEC3","min":[-0.295,0.0,-0.325],"max":[0.295,0.14,0.325]},{"bufferView":121,"componentType":5126,"count":36,"type":"VEC3","min":[-1.0,-1.0,-1.0],"max":[1.0,1.0,1.0]},{"bufferView":122,"componentType":5125,"count":36,"type":"SCALAR","min":[0],"max":[35]},{"bufferView":123,"componentType":5126,"count":36,"type":"VEC3","min":[-0.31,0.14,-0.34],"max":[0.31,0.32,0.34]},{"bufferView":124,"componentType":5126,"count":36,"type":"VEC3","min":[-1.0,-1.0,-1.0],"max":[1.0,1.0,1.0]},{"bufferView":125,"componentType":5125,"count":36,"type":"SCALAR","min":[0],"max":[35]},{"bufferView":126,"componentType":5126,"count":36,"type":"VEC3","min":[-0.32,0.31999999999999995,-0.35],"max":[0.32,0.38,0.35]},{"bufferView":127,"componentType":5126,"count":36,"type":"VEC3","min":[-1.0,-1.0,-1.0],"max":[1.0,1.0,1.0]},{"bufferView":128,"componentType":5125,"count":36,"type":"SCALAR","min":[0],"max":[35]},{"bufferView":129,"componentType":5126,"count":36,"type":"VEC3","min":[0.08,0.24500000000000002,-0.34700000000000003],"max":[0.24,0.29500000000000004,-0.339]},{"bufferView":130,"componentType":5126,"count":36,"type":"VEC3","min":[-1.0,-1.0,-1.0],"max":[1.0,1.0,1.0]},{"bufferView":131,"componentType":5125,"count":36,"type":"SCALAR","min":[0],"max":[35]},{"bufferView":132,"componentType":5126,"count":36,"type":"VEC3","min":[-0.295,0.0,-0.325],"max":[0.295,0.14,0.325]},{"bufferView":133,"componentType":5126,"count":36,"type":"VEC3","min":[-1.0,-1.0,-1.0],"max":[1.0,1.0,1.0]},{"bufferView":134,"componentType":5125,"count":36,"type":"SCALAR","min":[0],"max":[35]},{"bufferView":135,"componentType":5126,"count":36,"type":"VEC3","min":[-0.31,0.14,-0.34],"max":[0.31,0.32,0.34]},{"bufferView":136,"componentType":5126,"count":36,"type":"VEC3","min":[-1.0,-1.0,-1.0],"max":[1.0,1.0,1.0]},{"bufferView":137,"componentType":5125,"count":36,"type":"SCALAR","min":[0],"max":[35]},{"bufferView":138,"componentType":5126,"count":36,"type":"VEC3","min":[-0.32,0.31999999999999995,-0.35],"max":[0.32,0.38,0.35]},{"bufferView":139,"componentType":5126,"count":36,"type":"VEC3","min":[-1.0,-1.0,-1.0],"max":[1.0,1.0,1.0]},{"bufferView":140,"componentType":5125,"count":36,"type":"SCALAR","min":[0],"max":[35]},{"bufferView":141,"componentType":5126,"count":36,"type":"VEC3","min":[0.08,0.24500000000000002,-0.34700000000000003],"max":[0.24,0.29500000000000004,-0.339]},{"bufferView":142,"componentType":5126,"count":36,"type":"VEC3","min":[-1.0,-1.0,-1.0],"max":[1.0,1.0,1.0]},{"bufferView":143,"componentType":5125,"count":36,"type":"SCALAR","min":[0],"max":[35]},{"bufferView":144,"componentType":5126,"count":36,"type":"VEC3","min":[-0.295,0.0,-0.325],"max":[0.295,0.14,0.325]},{"bufferView":145,"componentType":5126,"count":36,"type":"VEC3","min":[-1.0,-1.0,-1.0],"max":[1.0,1.0,1.0]},{"bufferView":146,"componentType":5125,"count":36,"type":"SCALAR","min":[0],"max":[35]},{"bufferView":147,"componentType":5126,"count":36,"type":"VEC3","min":[-0.31,0.14,-0.34],"max":[0.31,0.32,0.34]},{"bufferView":148,"componentType":5126,"count":36,"type":"VEC3","min":[-1.0,-1.0,-1.0],"max":[1.0,1.0,1.0]},{"bufferView":149,"componentType":5125,"count":36,"type":"SCALAR","min":[0],"max":[35]},{"bufferView":150,"componentType":5126,"count":36,"type":"VEC3","min":[-0.32,0.31999999999999995,-0.35],"max":[0.32,0.38,0.35]},{"bufferView":151,"componentType":5126,"count":36,"type":"VEC3","min":[-1.0,-1.0,-1.0],"max":[1.0,1.0,1.0]},{"bufferView":152,"componentType":5125,"count":36,"type":"SCALAR","min":[0],"max":[35]},{"bufferView":153,"componentType":5126,"count":36,"type":"VEC3","min":[0.08,0.24500000000000002,-0.34700000000000003],"max":[0.24,0.29500000000000004,-0.339]},{"bufferView":154,"componentType":5126,"count":36,"type":"VEC3","min":[-1.0,-1.0,-1.0],"max":[1.0,1.0,1.0]},{"bufferView":155,"componentType":5125,"count":36,"type":"SCALAR","min":[0],"max":[35]}],"bufferViews":[{"buffer":0,"byteOffset":0,"byteLength":4752,"target":34962},{"buffer":0,"byteOffset":4752,"byteLength":4752,"target":34962},{"buffer":0,"byteOffset":9504,"byteLength":1584,"target":34963},{"buffer":0,"byteOffset":11088,"byteLength":432,"target":34962},{"buffer":0,"byteOffset":11520,"byteLength":432,"target":34962},{"buffer":0,"byteOffset":11952,"byteLength":144,"target":34963},{"buffer":0,"byteOffset":12096,"byteLength":864,"target":34962},{"buffer":0,"byteOffset":12960,"byteLength":864,"target":34962},{"buffer":0,"byteOffset":13824,"byteLength":288,"target":34963},{"buffer":0,"byteOffset":14112,"byteLength":432,"target":34962},{"buffer":0,"byteOffset":14544,"byteLength":432,"target":34962},{"buffer":0,"byteOffset":14976,"byteLength":144,"target":34963},{"buffer":0,"byteOffset":15120,"byteLength":432,"target":34962},{"buffer":0,"byteOffset":15552,"byteLength":432,"target":34962},{"buffer":0,"byteOffset":15984,"byteLength":144,"target":34963},{"buffer":0,"byteOffset":16128,"byteLength":432,"target":34962},{"buffer":0,"byteOffset":16560,"byteLength":432,"target":34962},{"buffer":0,"byteOffset":16992,"byteLength":144,"target":34963},{"buffer":0,"byteOffset":17136,"byteLength":432,"target":34962},{"buffer":0,"byteOffset":17568,"byteLength":432,"target":34962},{"buffer":0,"byteOffset":18000,"byteLength":144,"target":34963},{"buffer":0,"byteOffset":18144,"byteLength":432,"target":34962},{"buffer":0,"byteOffset":18576,"byteLength":432,"target":34962},{"buffer":0,"byteOffset":19008,"byteLength":144,"target":34963},{"buffer":0,"byteOffset":19152,"byteLength":432,"target":34962},{"buffer":0,"byteOffset":19584,"byteLength":432,"target":34962},{"buffer":0,"byteOffset":20016,"byteLength":144,"target":34963},{"buffer":0,"byteOffset":20160,"byteLength":432,"target":34962},{"buffer":0,"byteOffset":20592,"byteLength":432,"target":34962},{"buffer":0,"byteOffset":21024,"byteLength":144,"target":34963},{"buffer":0,"byteOffset":21168,"byteLength":432,"target":34962},{"buffer":0,"byteOffset":21600,"byteLength":432,"target":34962},{"buffer":0,"byteOffset":22032,"byteLength":144,"target":34963},{"buffer":0,"byteOffset":22176,"byteLength":432,"target":34962},{"buffer":0,"byteOffset":22608,"byteLength":432,"target":34962},{"buffer":0,"byteOffset":23040,"byteLength":144,"target":34963},{"buffer":0,"byteOffset":23184,"byteLength":432,"target":34962},{"buffer":0,"byteOffset":23616,"byteLength":432,"target":34962},{"buffer":0,"byteOffset":24048,"byteLength":144,"target":34963},{"buffer":0,"byteOffset":24192,"byteLength":432,"target":34962},{"buffer":0,"byteOffset":24624,"byteLength":432,"target":34962},{"buffer":0,"byteOffset":25056,"byteLength":144,"target":34963},{"buffer":0,"byteOffset":25200,"byteLength":432,"target":34962},{"buffer":0,"byteOffset":25632,"byteLength":432,"target":34962},{"buffer":0,"byteOffset":26064,"byteLength":144,"target":34963},{"buffer":0,"byteOffset":26208,"byteLength":432,"target":34962},{"buffer":0,"byteOffset":26640,"byteLength":432,"target":34962},{"buffer":0,"byteOffset":27072,"byteLength":144,"target":34963},{"buffer":0,"byteOffset":27216,"byteLength":432,"target":34962},{"buffer":0,"byteOffset":27648,"byteLength":432,"target":34962},{"buffer":0,"byteOffset":28080,"byteLength":144,"target":34963},{"buffer":0,"byteOffset":28224,"byteLength":432,"target":34962},{"buffer":0,"byteOffset":28656,"byteLength":432,"target":34962},{"buffer":0,"byteOffset":29088,"byteLength":144,"target":34963},{"buffer":0,"byteOffset":29232,"byteLength":432,"target":34962},{"buffer":0,"byteOffset":29664,"byteLength":432,"target":34962},{"buffer":0,"byteOffset":30096,"byteLength":144,"target":34963},{"buffer":0,"byteOffset":30240,"byteLength":432,"target":34962},{"buffer":0,"byteOffset":30672,"byteLength":432,"target":34962},{"buffer":0,"byteOffset":31104,"byteLength":144,"target":34963},{"buffer":0,"byteOffset":31248,"byteLength":432,"target":34962},{"buffer":0,"byteOffset":31680,"byteLength":432,"target":34962},{"buffer":0,"byteOffset":32112,"byteLength":144,"target":34963},{"buffer":0,"byteOffset":32256,"byteLength":432,"target":34962},{"buffer":0,"byteOffset":32688,"byteLength":432,"target":34962},{"buffer":0,"byteOffset":33120,"byteLength":144,"target":34963},{"buffer":0,"byteOffset":33264,"byteLength":432,"target":34962},{"buffer":0,"byteOffset":33696,"byteLength":432,"target":34962},{"buffer":0,"byteOffset":34128,"byteLength":144,"target":34963},{"buffer":0,"byteOffset":34272,"byteLength":432,"target":34962},{"buffer":0,"byteOffset":34704,"byteLength":432,"target":34962},{"buffer":0,"byteOffset":35136,"byteLength":144,"target":34963},{"buffer":0,"byteOffset":35280,"byteLength":432,"target":34962},{"buffer":0,"byteOffset":35712,"byteLength":432,"target":34962},{"buffer":0,"byteOffset":36144,"byteLength":144,"target":34963},{"buffer":0,"byteOffset":36288,"byteLength":432,"target":34962},{"buffer":0,"byteOffset":36720,"byteLength":432,"target":34962},{"buffer":0,"byteOffset":37152,"byteLength":144,"target":34963},{"buffer":0,"byteOffset":37296,"byteLength":432,"target":34962},{"buffer":0,"byteOffset":37728,"byteLength":432,"target":34962},{"buffer":0,"byteOffset":38160,"byteLength":144,"target":34963},{"buffer":0,"byteOffset":38304,"byteLength":432,"target":34962},{"buffer":0,"byteOffset":38736,"byteLength":432,"target":34962},{"buffer":0,"byteOffset":39168,"byteLength":144,"target":34963},{"buffer":0,"byteOffset":39312,"byteLength":432,"target":34962},{"buffer":0,"byteOffset":39744,"byteLength":432,"target":34962},{"buffer":0,"byteOffset":40176,"byteLength":144,"target":34963},{"buffer":0,"byteOffset":40320,"byteLength":432,"target":34962},{"buffer":0,"byteOffset":40752,"byteLength":432,"target":34962},{"buffer":0,"byteOffset":41184,"byteLength":144,"target":34963},{"buffer":0,"byteOffset":41328,"byteLength":432,"target":34962},{"buffer":0,"byteOffset":41760,"byteLength":432,"target":34962},{"buffer":0,"byteOffset":42192,"byteLength":144,"target":34963},{"buffer":0,"byteOffset":42336,"byteLength":432,"target":34962},{"buffer":0,"byteOffset":42768,"byteLength":432,"target":34962},{"buffer":0,"byteOffset":43200,"byteLength":144,"target":34963},{"buffer":0,"byteOffset":43344,"byteLength":432,"target":34962},{"buffer":0,"byteOffset":43776,"byteLength":432,"target":34962},{"buffer":0,"byteOffset":44208,"byteLength":144,"target":34963},{"buffer":0,"byteOffset":44352,"byteLength":432,"target":34962},{"buffer":0,"byteOffset":44784,"byteLength":432,"target":34962},{"buffer":0,"byteOffset":45216,"byteLength":144,"target":34963},{"buffer":0,"byteOffset":45360,"byteLength":432,"target":34962},{"buffer":0,"byteOffset":45792,"byteLength":432,"target":34962},{"buffer":0,"byteOffset":46224,"byteLength":144,"target":34963},{"buffer":0,"byteOffset":46368,"byteLength":432,"target":34962},{"buffer":0,"byteOffset":46800,"byteLength":432,"target":34962},{"buffer":0,"byteOffset":47232,"byteLength":144,"target":34963},{"buffer":0,"byteOffset":47376,"byteLength":432,"target":34962},{"buffer":0,"byteOffset":47808,"byteLength":432,"target":34962},{"buffer":0,"byteOffset":48240,"byteLength":144,"target":34963},{"buffer":0,"byteOffset":48384,"byteLength":432,"target":34962},{"buffer":0,"byteOffset":48816,"byteLength":432,"target":34962},{"buffer":0,"byteOffset":49248,"byteLength":144,"target":34963},{"buffer":0,"byteOffset":49392,"byteLength":432,"target":34962},{"buffer":0,"byteOffset":49824,"byteLength":432,"target":34962},{"buffer":0,"byteOffset":50256,"byteLength":144,"target":34963},{"buffer":0,"byteOffset":50400,"byteLength":432,"target":34962},{"buffer":0,"byteOffset":50832,"byteLength":432,"target":34962},{"buffer":0,"byteOffset":51264,"byteLength":144,"target":34963},{"buffer":0,"byteOffset":51408,"byteLength":432,"target":34962},{"buffer":0,"byteOffset":51840,"byteLength":432,"target":34962},{"buffer":0,"byteOffset":52272,"byteLength":144,"target":34963},{"buffer":0,"byteOffset":52416,"byteLength":432,"target":34962},{"buffer":0,"byteOffset":52848,"byteLength":432,"target":34962},{"buffer":0,"byteOffset":53280,"byteLength":144,"target":34963},{"buffer":0,"byteOffset":53424,"byteLength":432,"target":34962},{"buffer":0,"byteOffset":53856,"byteLength":432,"target":34962},{"buffer":0,"byteOffset":54288,"byteLength":144,"target":34963},{"buffer":0,"byteOffset":54432,"byteLength":432,"target":34962},{"buffer":0,"byteOffset":54864,"byteLength":432,"target":34962},{"buffer":0,"byteOffset":55296,"byteLength":144,"target":34963},{"buffer":0,"byteOffset":55440,"byteLength":432,"target":34962},{"buffer":0,"byteOffset":55872,"byteLength":432,"target":34962},{"buffer":0,"byteOffset":56304,"byteLength":144,"target":34963},{"buffer":0,"byteOffset":56448,"byteLength":432,"target":34962},{"buffer":0,"byteOffset":56880,"byteLength":432,"target":34962},{"buffer":0,"byteOffset":57312,"byteLength":144,"target":34963},{"buffer":0,"byteOffset":57456,"byteLength":432,"target":34962},{"buffer":0,"byteOffset":57888,"byteLength":432,"target":34962},{"buffer":0,"byteOffset":58320,"byteLength":144,"target":34963},{"buffer":0,"byteOffset":58464,"byteLength":432,"target":34962},{"buffer":0,"byteOffset":58896,"byteLength":432,"target":34962},{"buffer":0,"byteOffset":59328,"byteLength":144,"target":34963},{"buffer":0,"byteOffset":59472,"byteLength":432,"target":34962},{"buffer":0,"byteOffset":59904,"byteLength":432,"target":34962},{"buffer":0,"byteOffset":60336,"byteLength":144,"target":34963},{"buffer":0,"byteOffset":60480,"byteLength":432,"target":34962},{"buffer":0,"byteOffset":60912,"byteLength":432,"target":34962},{"buffer":0,"byteOffset":61344,"byteLength":144,"target":34963},{"buffer":0,"byteOffset":61488,"byteLength":432,"target":34962},{"buffer":0,"byteOffset":61920,"byteLength":432,"target":34962},{"buffer":0,"byteOffset":62352,"byteLength":144,"target":34963},{"buffer":0,"byteOffset":62496,"byteLength":432,"target":34962},{"buffer":0,"byteOffset":62928,"byteLength":432,"target":34962},{"buffer":0,"byteOffset":63360,"byteLength":144,"target":34963}],"buffers":[{"byteLength":63504,"uri":"storage-r1.bin"}]}