{"asset":{"version":"2.0","generator":"yudian ART-U01-STATE-A generate_tuoyun_r1.py (python stdlib, original)"},"scene":0,"scenes":[{"name":"Scene","nodes":[0]}],"nodes":[{"name":"tuoyun-r1","translation":[0.0,0.0,0.0],"children":[1]},{"name":"Model","translation":[0,0,0],"children":[2,3,4,5,6,7,8,9,20,21,22,23,24,25]},{"name":"Chassis","translation":[0,0,0],"mesh":0},{"name":"Head","translation":[0,0,0],"mesh":1},{"name":"Body","translation":[0,0,0],"mesh":2},{"name":"ProtectedElectronics","translation":[0,0,0],"mesh":3},{"name":"HoodLid","translation":[0.0,0.64,-0.25],"mesh":4},{"name":"RearLock","translation":[0.0,0.65,0.78],"mesh":5},{"name":"ChargeCap","translation":[0.48,0.58,-0.35],"mesh":6},{"name":"Wheels","translation":[0,0,0],"children":[10,15]},{"name":"Rocker_L","translation":[-0.445,0.36,-0.12],"mesh":7,"children":[11,14]},{"name":"Bogie_L","translation":[0.0,-0.07,0.4],"mesh":8,"children":[12,13]},{"name":"Wheel_LM","translation":[-0.105,-0.085,-0.28],"mesh":9},{"name":"Wheel_LR","translation":[-0.105,-0.085,0.28],"mesh":10},{"name":"Wheel_LF","translation":[-0.105,-0.155,-0.44],"mesh":11},{"name":"Rocker_R","translation":[0.445,0.36,-0.12],"mesh":12,"children":[16,19]},{"name":"Bogie_R","translation":[0.0,-0.07,0.4],"mesh":13,"children":[17,18]},{"name":"Wheel_RM","translation":[0.105,-0.085,-0.28],"mesh":14},{"name":"Wheel_RR","translation":[0.105,-0.085,0.28],"mesh":15},{"name":"Wheel_RF","translation":[0.105,-0.155,-0.44],"mesh":16},{"name":"CargoBox","translation":[0.0,0.48,0.28],"mesh":17},{"name":"TowRod","translation":[0,0,0],"mesh":18,"extras":{"visible":false,"kind":"tow_rod"}},{"name":"Socket_Cargo","translation":[0.0,0.48,0.28],"extras":{"forward":[0.0,0.0,-1.0],"kind":"socket","up":[0,1,0]}},{"name":"Socket_TowFront","translation":[0.0,0.24,-0.8],"extras":{"forward":[0.0,0.0,-1.0],"kind":"socket","up":[0,1,0]}},{"name":"Socket_TowRear","translation":[0.0,0.24,0.8],"extras":{"forward":[0.0,0.0,1.0],"kind":"socket","up":[0,1,0]},"rotation":[0.0,1.0,0.0,0.0]},{"name":"Socket_Charge","translation":[0.48,0.55,-0.35],"extras":{"forward":[1.0,0.0,0.0],"kind":"socket","up":[0,1,0]},"rotation":[0.0,-0.70710678,0.0,0.70710678]}],"meshes":[{"name":"Chassis","primitives":[{"attributes":{"POSITION":0,"NORMAL":1},"indices":2,"material":0,"mode":4},{"attributes":{"POSITION":3,"NORMAL":4},"indices":5,"material":0,"mode":4},{"attributes":{"POSITION":6,"NORMAL":7},"indices":8,"material":0,"mode":4},{"attributes":{"POSITION":9,"NORMAL":10},"indices":11,"material":0,"mode":4},{"attributes":{"POSITION":12,"NORMAL":13},"indices":14,"material":0,"mode":4},{"attributes":{"POSITION":15,"NORMAL":16},"indices":17,"material":0,"mode":4},{"attributes":{"POSITION":18,"NORMAL":19},"indices":20,"material":0,"mode":4},{"attributes":{"POSITION":21,"NORMAL":22},"indices":23,"material":0,"mode":4},{"attributes":{"POSITION":24,"NORMAL":25},"indices":26,"material":0,"mode":4},{"attributes":{"POSITION":27,"NORMAL":28},"indices":29,"material":0,"mode":4},{"attributes":{"POSITION":30,"NORMAL":31},"indices":32,"material":0,"mode":4},{"attributes":{"POSITION":33,"NORMAL":34},"indices":35,"material":0,"mode":4}]},{"name":"Head","primitives":[{"attributes":{"POSITION":36,"NORMAL":37},"indices":38,"material":1,"mode":4},{"attributes":{"POSITION":39,"NORMAL":40},"indices":41,"material":1,"mode":4},{"attributes":{"POSITION":42,"NORMAL":43},"indices":44,"material":1,"mode":4},{"attributes":{"POSITION":45,"NORMAL":46},"indices":47,"material":1,"mode":4},{"attributes":{"POSITION":48,"NORMAL":49},"indices":50,"material":0,"mode":4},{"attributes":{"POSITION":51,"NORMAL":52},"indices":53,"material":0,"mode":4},{"attributes":{"POSITION":54,"NORMAL":55},"indices":56,"material":0,"mode":4},{"attributes":{"POSITION":57,"NORMAL":58},"indices":59,"material":0,"mode":4},{"attributes":{"POSITION":60,"NORMAL":61},"indices":62,"material":0,"mode":4},{"attributes":{"POSITION":63,"NORMAL":64},"indices":65,"material":3,"mode":4},{"attributes":{"POSITION":66,"NORMAL":67},"indices":68,"material":3,"mode":4}]},{"name":"Body","primitives":[{"attributes":{"POSITION":69,"NORMAL":70},"indices":71,"material":1,"mode":4},{"attributes":{"POSITION":72,"NORMAL":73},"indices":74,"material":1,"mode":4},{"attributes":{"POSITION":75,"NORMAL":76},"indices":77,"material":1,"mode":4},{"attributes":{"POSITION":78,"NORMAL":79},"indices":80,"material":1,"mode":4},{"attributes":{"POSITION":81,"NORMAL":82},"indices":83,"material":0,"mode":4},{"attributes":{"POSITION":84,"NORMAL":85},"indices":86,"material":0,"mode":4},{"attributes":{"POSITION":87,"NORMAL":88},"indices":89,"material":0,"mode":4},{"attributes":{"POSITION":90,"NORMAL":91},"indices":92,"material":0,"mode":4},{"attributes":{"POSITION":93,"NORMAL":94},"indices":95,"material":0,"mode":4},{"attributes":{"POSITION":96,"NORMAL":97},"indices":98,"material":0,"mode":4},{"attributes":{"POSITION":99,"NORMAL":100},"indices":101,"material":0,"mode":4},{"attributes":{"POSITION":102,"NORMAL":103},"indices":104,"material":0,"mode":4},{"attributes":{"POSITION":105,"NORMAL":106},"indices":107,"material":0,"mode":4},{"attributes":{"POSITION":108,"NORMAL":109},"indices":110,"material":0,"mode":4},{"attributes":{"POSITION":111,"NORMAL":112},"indices":113,"material":0,"mode":4}]},{"name":"ProtectedElectronics","primitives":[{"attributes":{"POSITION":114,"NORMAL":115},"indices":116,"material":0,"mode":4},{"attributes":{"POSITION":117,"NORMAL":118},"indices":119,"material":1,"mode":4}]},{"name":"HoodLid","primitives":[{"attributes":{"POSITION":120,"NORMAL":121},"indices":122,"material":1,"mode":4},{"attributes":{"POSITION":123,"NORMAL":124},"indices":125,"material":3,"mode":4}]},{"name":"RearLock","primitives":[{"attributes":{"POSITION":126,"NORMAL":127},"indices":128,"material":3,"mode":4},{"attributes":{"POSITION":129,"NORMAL":130},"indices":131,"material":0,"mode":4},{"attributes":{"POSITION":132,"NORMAL":133},"indices":134,"material":0,"mode":4},{"attributes":{"POSITION":135,"NORMAL":136},"indices":137,"material":0,"mode":4}]},{"name":"ChargeCap","primitives":[{"attributes":{"POSITION":138,"NORMAL":139},"indices":140,"material":3,"mode":4}]},{"name":"Rocker_L","primitives":[{"attributes":{"POSITION":141,"NORMAL":142},"indices":143,"material":0,"mode":4},{"attributes":{"POSITION":144,"NORMAL":145},"indices":146,"material":0,"mode":4},{"attributes":{"POSITION":147,"NORMAL":148},"indices":149,"material":0,"mode":4},{"attributes":{"POSITION":150,"NORMAL":151},"indices":152,"material":2,"mode":4},{"attributes":{"POSITION":153,"NORMAL":154},"indices":155,"material":0,"mode":4}]},{"name":"Bogie_L","primitives":[{"attributes":{"POSITION":156,"NORMAL":157},"indices":158,"material":0,"mode":4},{"attributes":{"POSITION":159,"NORMAL":160},"indices":161,"material":0,"mode":4},{"attributes":{"POSITION":162,"NORMAL":163},"indices":164,"material":2,"mode":4},{"attributes":{"POSITION":165,"NORMAL":166},"indices":167,"material":0,"mode":4},{"attributes":{"POSITION":168,"NORMAL":169},"indices":170,"material":0,"mode":4},{"attributes":{"POSITION":171,"NORMAL":172},"indices":173,"material":2,"mode":4}]},{"name":"Wheel_LM","primitives":[{"attributes":{"POSITION":174,"NORMAL":175},"indices":176,"material":1,"mode":4},{"attributes":{"POSITION":177,"NORMAL":178},"indices":179,"material":0,"mode":4},{"attributes":{"POSITION":180,"NORMAL":181},"indices":182,"material":0,"mode":4},{"attributes":{"POSITION":183,"NORMAL":184},"indices":185,"material":0,"mode":4},{"attributes":{"POSITION":186,"NORMAL":187},"indices":188,"material":3,"mode":4},{"attributes":{"POSITION":189,"NORMAL":190},"indices":191,"material":3,"mode":4}]},{"name":"Wheel_LR","primitives":[{"attributes":{"POSITION":192,"NORMAL":193},"indices":194,"material":1,"mode":4},{"attributes":{"POSITION":195,"NORMAL":196},"indices":197,"material":0,"mode":4},{"attributes":{"POSITION":198,"NORMAL":199},"indices":200,"material":0,"mode":4},{"attributes":{"POSITION":201,"NORMAL":202},"indices":203,"material":0,"mode":4},{"attributes":{"POSITION":204,"NORMAL":205},"indices":206,"material":3,"mode":4},{"attributes":{"POSITION":207,"NORMAL":208},"indices":209,"material":3,"mode":4}]},{"name":"Wheel_LF","primitives":[{"attributes":{"POSITION":210,"NORMAL":211},"indices":212,"material":1,"mode":4},{"attributes":{"POSITION":213,"NORMAL":214},"indices":215,"material":0,"mode":4},{"attributes":{"POSITION":216,"NORMAL":217},"indices":218,"material":0,"mode":4},{"attributes":{"POSITION":219,"NORMAL":220},"indices":221,"material":0,"mode":4},{"attributes":{"POSITION":222,"NORMAL":223},"indices":224,"material":3,"mode":4},{"attributes":{"POSITION":225,"NORMAL":226},"indices":227,"material":3,"mode":4}]},{"name":"Rocker_R","primitives":[{"attributes":{"POSITION":228,"NORMAL":229},"indices":230,"material":0,"mode":4},{"attributes":{"POSITION":231,"NORMAL":232},"indices":233,"material":0,"mode":4},{"attributes":{"POSITION":234,"NORMAL":235},"indices":236,"material":0,"mode":4},{"attributes":{"POSITION":237,"NORMAL":238},"indices":239,"material":2,"mode":4},{"attributes":{"POSITION":240,"NORMAL":241},"indices":242,"material":0,"mode":4}]},{"name":"Bogie_R","primitives":[{"attributes":{"POSITION":243,"NORMAL":244},"indices":245,"material":0,"mode":4},{"attributes":{"POSITION":246,"NORMAL":247},"indices":248,"material":0,"mode":4},{"attributes":{"POSITION":249,"NORMAL":250},"indices":251,"material":2,"mode":4},{"attributes":{"POSITION":252,"NORMAL":253},"indices":254,"material":0,"mode":4},{"attributes":{"POSITION":255,"NORMAL":256},"indices":257,"material":0,"mode":4},{"attributes":{"POSITION":258,"NORMAL":259},"indices":260,"material":2,"mode":4}]},{"name":"Wheel_RM","primitives":[{"attributes":{"POSITION":261,"NORMAL":262},"indices":263,"material":1,"mode":4},{"attributes":{"POSITION":264,"NORMAL":265},"indices":266,"material":0,"mode":4},{"attributes":{"POSITION":267,"NORMAL":268},"indices":269,"material":0,"mode":4},{"attributes":{"POSITION":270,"NORMAL":271},"indices":272,"material":0,"mode":4},{"attributes":{"POSITION":273,"NORMAL":274},"indices":275,"material":3,"mode":4},{"attributes":{"POSITION":276,"NORMAL":277},"indices":278,"material":3,"mode":4}]},{"name":"Wheel_RR","primitives":[{"attributes":{"POSITION":279,"NORMAL":280},"indices":281,"material":1,"mode":4},{"attributes":{"POSITION":282,"NORMAL":283},"indices":284,"material":0,"mode":4},{"attributes":{"POSITION":285,"NORMAL":286},"indices":287,"material":0,"mode":4},{"attributes":{"POSITION":288,"NORMAL":289},"indices":290,"material":0,"mode":4},{"attributes":{"POSITION":291,"NORMAL":292},"indices":293,"material":3,"mode":4},{"attributes":{"POSITION":294,"NORMAL":295},"indices":296,"material":3,"mode":4}]},{"name":"Wheel_RF","primitives":[{"attributes":{"POSITION":297,"NORMAL":298},"indices":299,"material":1,"mode":4},{"attributes":{"POSITION":300,"NORMAL":301},"indices":302,"material":0,"mode":4},{"attributes":{"POSITION":303,"NORMAL":304},"indices":305,"material":0,"mode":4},{"attributes":{"POSITION":306,"NORMAL":307},"indices":308,"material":0,"mode":4},{"attributes":{"POSITION":309,"NORMAL":310},"indices":311,"material":3,"mode":4},{"attributes":{"POSITION":312,"NORMAL":313},"indices":314,"material":3,"mode":4}]},{"name":"CargoBox","primitives":[{"attributes":{"POSITION":315,"NORMAL":316},"indices":317,"material":0,"mode":4},{"attributes":{"POSITION":318,"NORMAL":319},"indices":320,"material":1,"mode":4},{"attributes":{"POSITION":321,"NORMAL":322},"indices":323,"material":0,"mode":4}]},{"name":"TowRod","primitives":[{"attributes":{"POSITION":324,"NORMAL":325},"indices":326,"material":0,"mode":4}]}],"materials":[{"name":"frame_dark","pbrMetallicRoughness":{"baseColorFactor":[0.0401,0.0578,0.0694,1.0],"metallicFactor":0.2,"roughnessFactor":0.75}},{"name":"body_light","pbrMetallicRoughness":{"baseColorFactor":[0.6818,0.714,0.6718,1.0],"metallicFactor":0.0,"roughnessFactor":0.65}},{"name":"rubber","pbrMetallicRoughness":{"baseColorFactor":[0.0171,0.0232,0.0266,1.0],"metallicFactor":0.0,"roughnessFactor":0.9}},{"name":"accent_warm","pbrMetallicRoughness":{"baseColorFactor":[0.6712,0.1975,0.048,1.0],"metallicFactor":0.0,"roughnessFactor":0.6}}],"animations":[{"name":"move-loop","channels":[{"sampler":0,"target":{"node":14,"path":"rotation"}},{"sampler":1,"target":{"node":12,"path":"rotation"}},{"sampler":2,"target":{"node":13,"path":"rotation"}},{"sampler":3,"target":{"node":19,"path":"rotation"}},{"sampler":4,"target":{"node":17,"path":"rotation"}},{"sampler":5,"target":{"node":18,"path":"rotation"}}],"samplers":[{"input":327,"output":328,"interpolation":"LINEAR"},{"input":329,"output":330,"interpolation":"LINEAR"},{"input":331,"output":332,"interpolation":"LINEAR"},{"input":333,"output":334,"interpolation":"LINEAR"},{"input":335,"output":336,"interpolation":"LINEAR"},{"input":337,"output":338,"interpolation":"LINEAR"}]},{"name":"work","channels":[{"sampler":0,"target":{"node":7,"path":"rotation"}}],"samplers":[{"input":339,"output":340,"interpolation":"LINEAR"}]},{"name":"charge","channels":[{"sampler":0,"target":{"node":8,"path":"rotation"}}],"samplers":[{"input":341,"output":342,"interpolation":"LINEAR"}]},{"name":"disabled","channels":[{"sampler":0,"target":{"node":6,"path":"rotation"}}],"samplers":[{"input":343,"output":344,"interpolation":"LINEAR"}]},{"name":"maintenance","channels":[{"sampler":0,"target":{"node":6,"path":"rotation"}}],"samplers":[{"input":345,"output":346,"interpolation":"LINEAR"}]}],"accessors":[{"bufferView":0,"componentType":5126,"count":8,"type":"VEC3","min":[-0.41,0.27999999999999997,-0.78],"max":[0.41,0.31,-0.25]},{"bufferView":1,"componentType":5126,"count":8,"type":"VEC3","min":[-0.0728596315906262,-0.9989319705747817,-0.11241475882871663],"max":[0.036546291606394485,0.9994326736319323,0.05650388927198484]},{"bufferView":2,"componentType":5125,"count":36,"type":"SCALAR","min":[0],"max":[7]},{"bufferView":3,"componentType":5126,"count":8,"type":"VEC3","min":[-0.4,0.28,-0.25],"max":[0.4,0.45999999999999996,0.76]},{"bufferView":4,"componentType":5126,"count":8,"type":"VEC3","min":[-0.40505025172324893,-0.9785045711230523,-0.32844985067659577],"max":[0.21868735466169953,0.9898580770452347,0.17438695326945483]},{"bufferView":5,"componentType":5125,"count":36,"type":"SCALAR","min":[0],"max":[7]},{"bufferView":6,"componentType":5126,"count":8,"type":"VEC3","min":[-0.48,0.45999999999999996,0.71],"max":[-0.4,0.51,0.76]},{"bufferView":7,"componentType":5126,"count":8,"type":"VEC3","min":[-0.6622661785325223,-0.7807200583588263,-0.8614110432930647],"max":[0.4879500364742671,0.8614110432930647,0.6904509632033649]},{"bufferView":8,"componentType":5125,"count":36,"type":"SCALAR","min":[0],"max":[7]},{"bufferView":9,"componentType":5126,"count":8,"type":"VEC3","min":[0.4,0.45999999999999996,0.71],"max":[0.48,0.51,0.76]},{"bufferView":10,"componentType":5126,"count":8,"type":"VEC3","min":[-0.6622661785325223,-0.7807200583588263,-0.8614110432930647],"max":[0.4879500364742671,0.8614110432930647,0.6904509632033649]},{"bufferView":11,"componentType":5125,"count":36,"type":"SCALAR","min":[0],"max":[7]},{"bufferView":12,"componentType":5126,"count":8,"type":"VEC3","min":[-0.41,0.35,-0.8],"max":[0.41,0.47,-0.78]},{"bufferView":13,"componentType":5126,"count":8,"type":"VEC3","min":[-0.04806117274236814,-0.3158896950175167,-0.9964721738148677],"max":[0.046227760246465854,0.31614314651708036,0.9863225652297596]},{"bufferView":14,"componentType":5125,"count":36,"type":"SCALAR","min":[0],"max":[7]},{"bufferView":15,"componentType":5126,"count":8,"type":"VEC3","min":[-0.41,0.35,0.78],"max":[0.41,0.47,0.8]},{"bufferView":16,"componentType":5126,"count":8,"type":"VEC3","min":[-0.04806117274236814,-0.3158896950175167,-0.9964721738148677],"max":[0.046227760246465854,0.31614314651708036,0.9863225652297596]},{"bufferView":17,"componentType":5125,"count":36,"type":"SCALAR","min":[0],"max":[7]},{"bufferView":18,"componentType":5126,"count":8,"type":"VEC3","min":[-0.2,0.16,-0.8],"max":[-0.12,0.36,-0.76]},{"bufferView":19,"componentType":5126,"count":8,"type":"VEC3","min":[-0.7001400420140051,-0.27216552697590884,-0.9656090991705352],"max":[0.6804138174397719,0.33686076842660784,0.9523809523809522]},{"bufferView":20,"componentType":5125,"count":36,"type":"SCALAR","min":[0],"max":[7]},{"bufferView":21,"componentType":5126,"count":8,"type":"VEC3","min":[-0.2,0.16,0.76],"max":[-0.12,0.36,0.8]},{"bufferView":22,"componentType":5126,"count":8,"type":"VEC3","min":[-0.7001400420140051,-0.27216552697590884,-0.9656090991705352],"max":[0.6804138174397719,0.33686076842660784,0.9523809523809522]},{"bufferView":23,"componentType":5125,"count":36,"type":"SCALAR","min":[0],"max":[7]},{"bufferView":24,"componentType":5126,"count":8,"type":"VEC3","min":[0.12,0.16,-0.8],"max":[0.2,0.36,-0.76]},{"bufferView":25,"componentType":5126,"count":8,"type":"VEC3","min":[-0.7001400420140051,-0.27216552697590884,-0.9656090991705352],"max":[0.6804138174397719,0.33686076842660784,0.9523809523809522]},{"bufferView":26,"componentType":5125,"count":36,"type":"SCALAR","min":[0],"max":[7]},{"bufferView":27,"componentType":5126,"count":8,"type":"VEC3","min":[0.12,0.16,0.76],"max":[0.2,0.36,0.8]},{"bufferView":28,"componentType":5126,"count":8,"type":"VEC3","min":[-0.7001400420140051,-0.27216552697590884,-0.9656090991705352],"max":[0.6804138174397719,0.33686076842660784,0.9523809523809522]},{"bufferView":29,"componentType":5125,"count":36,"type":"SCALAR","min":[0],"max":[7]},{"bufferView":30,"componentType":5126,"count":8,"type":"VEC3","min":[-0.12,0.16,-0.8],"max":[0.12,0.24000000000000002,-0.76]},{"bufferView":31,"componentType":5126,"count":8,"type":"VEC3","min":[-0.285714285714286,-0.6882472016116855,-0.9669875568304565],"max":[0.2294157338705619,0.7022468831767837,0.8919529754965995]},{"bufferView":32,"componentType":5125,"count":36,"type":"SCALAR","min":[0],"max":[7]},{"bufferView":33,"componentType":5126,"count":8,"type":"VEC3","min":[-0.12,0.16,0.76],"max":[0.12,0.24000000000000002,0.8]},{"bufferView":34,"componentType":5126,"count":8,"type":"VEC3","min":[-0.285714285714286,-0.6882472016116855,-0.9669875568304565],"max":[0.2294157338705619,0.7022468831767837,0.8919529754965995]},{"bufferView":35,"componentType":5125,"count":36,"type":"SCALAR","min":[0],"max":[7]},{"bufferView":36,"componentType":5126,"count":8,"type":"VEC3","min":[-0.41000000000000003,0.30999999999999994,-0.78],"max":[-0.395,0.63,-0.25]},{"bufferView":37,"componentType":5126,"count":8,"type":"VEC3","min":[-0.9996254277590764,-0.0931928324210134,-0.056451524414704496],"max":[0.9988033938194187,0.09330367363940713,0.056267370518347716]},{"bufferView":38,"componentType":5125,"count":36,"type":"SCALAR","min":[0],"max":[7]},{"bufferView":39,"componentType":5126,"count":8,"type":"VEC3","min":[0.395,0.30999999999999994,-0.78],"max":[0.41000000000000003,0.63,-0.25]},{"bufferView":40,"componentType":5126,"count":8,"type":"VEC3","min":[-0.9996254277590764,-0.0931928324210134,-0.056451524414704496],"max":[0.9988033938194187,0.09330367363940713,0.056267370518347716]},{"bufferView":41,"componentType":5125,"count":36,"type":"SCALAR","min":[0],"max":[7]},{"bufferView":42,"componentType":5126,"count":8,"type":"VEC3","min":[-0.41,0.31000000000000005,-0.28500000000000003],"max":[0.41,0.6,-0.25]},{"bufferView":43,"componentType":5126,"count":8,"type":"VEC3","min":[-0.08444810472111955,-0.23383680065592777,-0.9979577948423562],"max":[0.08269838071977932,0.23443882324846313,0.9925728455500047]},{"bufferView":44,"componentType":5125,"count":36,"type":"SCALAR","min":[0],"max":[7]},{"bufferView":45,"componentType":5126,"count":10,"type":"VEC3","min":[-0.375,0.31,-0.78],"max":[0.375,0.565,-0.76]},{"bufferView":46,"componentType":5126,"count":10,"type":"VEC3","min":[-0.25256492399832164,-0.15684878445552725,-0.999945800447882],"max":[0.18917924234243344,0.9770693775679054,0.9992959959572131]},{"bufferView":47,"componentType":5125,"count":48,"type":"SCALAR","min":[0],"max":[9]},{"bufferView":48,"componentType":5126,"count":8,"type":"VEC3","min":[-0.395,0.31,-0.72],"max":[-0.38,0.5800000000000001,-0.29000000000000004]},{"bufferView":49,"componentType":5126,"count":8,"type":"VEC3","min":[-0.9994625219174008,-0.110166994709557,-0.06949162397288171],"max":[0.9983089798903254,0.11036521462254992,0.0691746245850707]},{"bufferView":50,"componentType":5125,"count":36,"type":"SCALAR","min":[0],"max":[7]},{"bufferView":51,"componentType":5126,"count":8,"type":"VEC3","min":[0.38,0.31,-0.72],"max":[0.395,0.5800000000000001,-0.29000000000000004]},{"bufferView":52,"componentType":5126,"count":8,"type":"VEC3","min":[-0.9994625219174008,-0.110166994709557,-0.06949162397288171],"max":[0.9983089798903254,0.11036521462254992,0.0691746245850707]},{"bufferView":53,"componentType":5125,"count":36,"type":"SCALAR","min":[0],"max":[7]},{"bufferView":54,"componentType":5126,"count":8,"type":"VEC3","min":[-0.38,0.31,-0.3],"max":[0.38,0.5800000000000001,-0.285]},{"bufferView":55,"componentType":5126,"count":8,"type":"VEC3","min":[-0.039382332736311795,-0.11034663762886966,-0.9995657876382129],"max":[0.03920209494709845,0.11041028559785404,0.9984118884306359]},{"bufferView":56,"componentType":5125,"count":36,"type":"SCALAR","min":[0],"max":[7]},{"bufferView":57,"componentType":5126,"count":8,"type":"VEC3","min":[-0.32,0.36,-0.792],"max":[-0.08000000000000002,0.5,-0.78]},{"bufferView":58,"componentType":5126,"count":8,"type":"VEC3","min":[-0.09914377673558843,-0.16814904611155845,-0.9987714005527039],"max":[0.09808694356507577,0.1687590129443113,0.9960377053144618]},{"bufferView":59,"componentType":5125,"count":36,"type":"SCALAR","min":[0],"max":[7]},{"bufferView":60,"componentType":5126,"count":8,"type":"VEC3","min":[0.08000000000000002,0.36,-0.792],"max":[0.32,0.5,-0.78]},{"bufferView":61,"componentType":5126,"count":8,"type":"VEC3","min":[-0.09914377673558843,-0.16814904611155845,-0.9987714005527039],"max":[0.09808694356507577,0.1687590129443113,0.9960377053144618]},{"bufferView":62,"componentType":5125,"count":36,"type":"SCALAR","min":[0],"max":[7]},{"bufferView":63,"componentType":5126,"count":8,"type":"VEC3","min":[-0.3,0.4799999999999999,-0.79],"max":[0.3,0.5249999999999999,-0.78]},{"bufferView":64,"componentType":5126,"count":8,"type":"VEC3","min":[-0.03252235551039517,-0.4059501823132197,-0.9938496474272893],"max":[0.03044626367349147,0.4060913705583761,0.9761547614798661]},{"bufferView":65,"componentType":5125,"count":36,"type":"SCALAR","min":[0],"max":[7]},{"bufferView":66,"componentType":5126,"count":8,"type":"VEC3","min":[0.41000000000000003,0.51,-0.42],"max":[0.48,0.5900000000000001,-0.27999999999999997]},{"bufferView":67,"componentType":5126,"count":8,"type":"VEC3","min":[-0.8930329154975164,-0.7777777777777775,-0.601316822402263],"max":[0.7396002616336392,0.8427009716003842,0.4444444444444446]},{"bufferView":68,"componentType":5125,"count":36,"type":"SCALAR","min":[0],"max":[7]},{"bufferView":69,"componentType":5126,"count":8,"type":"VEC3","min":[-0.56,0.46,-0.25],"max":[0.56,0.62,-0.09999999999999999]},{"bufferView":70,"componentType":5126,"count":8,"type":"VEC3","min":[-0.1917843408554513,-0.8754256576227305,-0.9037990918833892],"max":[0.12506080823181862,0.8806057136036648,0.7286681990911407]},{"bufferView":71,"componentType":5125,"count":36,"type":"SCALAR","min":[0],"max":[7]},{"bufferView":72,"componentType":5126,"count":8,"type":"VEC3","min":[-0.4,0.46,0.7],"max":[0.4,0.6000000000000001,0.76]},{"bufferView":73,"componentType":5126,"count":8,"type":"VEC3","min":[-0.1365797688068207,-0.6466114186756282,-0.9771457425453561],"max":[0.113156998268235,0.6497387892681018,0.9185995260537936]},{"bufferView":74,"componentType":5125,"count":36,"type":"SCALAR","min":[0],"max":[7]},{"bufferView":75,"componentType":5126,"count":8,"type":"VEC3","min":[-0.48,0.51,0.7],"max":[-0.4,0.6000000000000001,0.76]},{"bufferView":76,"componentType":5126,"count":8,"type":"VEC3","min":[-0.7803989725717084,-0.5946353169977326,-0.8938067072686302],"max":[0.6689647316224502,0.7295372041400849,0.7942840707857941]},{"bufferView":77,"componentType":5125,"count":36,"type":"SCALAR","min":[0],"max":[7]},{"bufferView":78,"componentType":5126,"count":8,"type":"VEC3","min":[0.4,0.51,0.7],"max":[0.48,0.6000000000000001,0.76]},{"bufferView":79,"componentType":5126,"count":8,"type":"VEC3","min":[-0.7803989725717084,-0.5946353169977326,-0.8938067072686302],"max":[0.6689647316224502,0.7295372041400849,0.7942840707857941]},{"bufferView":80,"componentType":5125,"count":36,"type":"SCALAR","min":[0],"max":[7]},{"bufferView":81,"componentType":5126,"count":8,"type":"VEC3","min":[-0.42,0.45999999999999996,-0.10000000000000003],"max":[0.42,0.48,0.7]},{"bufferView":82,"componentType":5126,"count":8,"type":"VEC3","min":[-0.04755032586792052,-0.9996386242710366,-0.04992350357428715],"max":[0.02380091962550089,0.9998510466092754,0.02499042146576255]},{"bufferView":83,"componentType":5125,"count":36,"type":"SCALAR","min":[0],"max":[7]},{"bufferView":84,"componentType":5126,"count":8,"type":"VEC3","min":[-0.46,0.48,-0.1],"max":[-0.42,0.72,0.30000000000000004]},{"bufferView":85,"componentType":5126,"count":8,"type":"VEC3","min":[-0.9953109657524404,-0.31068488300060026,-0.19354838709677433],"max":[0.9851964397035392,0.31481427501027953,0.18641092980036014]},{"bufferView":86,"componentType":5125,"count":36,"type":"SCALAR","min":[0],"max":[7]},{"bufferView":87,"componentType":5126,"count":8,"type":"VEC3","min":[-0.46,0.52,0.3],"max":[-0.42,0.72,0.7]},{"bufferView":88,"componentType":5126,"count":8,"type":"VEC3","min":[-0.9938079899999064,-0.3651483716701111,-0.19245008972987543],"max":[0.9794042137487835,0.3698001308168198,0.18257418583505552]},{"bufferView":89,"componentType":5125,"count":36,"type":"SCALAR","min":[0],"max":[7]},{"bufferView":90,"componentType":5126,"count":8,"type":"VEC3","min":[0.42,0.48,-0.1],"max":[0.46,0.72,0.30000000000000004]},{"bufferView":91,"componentType":5126,"count":8,"type":"VEC3","min":[-0.9953109657524404,-0.31068488300060026,-0.19354838709677433],"max":[0.9851964397035392,0.31481427501027953,0.18641092980036014]},{"bufferView":92,"componentType":5125,"count":36,"type":"SCALAR","min":[0],"max":[7]},{"bufferView":93,"componentType":5126,"count":8,"type":"VEC3","min":[0.42,0.52,0.3],"max":[0.46,0.72,0.7]},{"bufferView":94,"componentType":5126,"count":8,"type":"VEC3","min":[-0.9938079899999064,-0.3651483716701111,-0.19245008972987543],"max":[0.9794042137487835,0.3698001308168198,0.18257418583505552]},{"bufferView":95,"componentType":5125,"count":36,"type":"SCALAR","min":[0],"max":[7]},{"bufferView":96,"componentType":5126,"count":8,"type":"VEC3","min":[-0.46,0.62,-0.13],"max":[0.46,0.7200000000000001,-0.1]},{"bufferView":97,"componentType":5126,"count":8,"type":"VEC3","min":[-0.06234541051662594,-0.5136931122371005,-0.9888078250246775],"max":[0.055836207851858805,0.5142947419529105,0.9577095081194797]},{"bufferView":98,"componentType":5125,"count":36,"type":"SCALAR","min":[0],"max":[7]},{"bufferView":99,"componentType":5126,"count":8,"type":"VEC3","min":[-0.46,0.6000000000000001,0.7],"max":[0.46,0.72,0.73]},{"bufferView":100,"componentType":5126,"count":8,"type":"VEC3","min":[-0.06314390317824405,-0.4464546768123578,-0.9921480417833625],"max":[0.058233218714655303,0.44702350304753746,0.9700211607083662]},{"bufferView":101,"componentType":5125,"count":36,"type":"SCALAR","min":[0],"max":[7]},{"bufferView":102,"componentType":5126,"count":8,"type":"VEC3","min":[-0.25,0.49999999999999994,0.76],"max":[-0.21000000000000002,0.6299999999999999,0.8]},{"bufferView":103,"componentType":5126,"count":8,"type":"VEC3","min":[-0.8860776295682962,-0.26534325072266407,-0.8860776295682958],"max":[0.8623655648486575,0.39900373444305337,0.862365564848657]},{"bufferView":104,"componentType":5125,"count":36,"type":"SCALAR","min":[0],"max":[7]},{"bufferView":105,"componentType":5126,"count":384,"type":"VEC3","min":[-0.25,0.63,0.76],"max":[-0.21000000000000002,0.67,0.8]},{"bufferView":106,"componentType":5126,"count":384,"type":"VEC3","min":[-1.0,-0.9914448613738113,-0.9914448613738117],"max":[1.0,0.9914448613738113,0.9914448613738113]},{"bufferView":107,"componentType":5125,"count":576,"type":"SCALAR","min":[0],"max":[383]},{"bufferView":108,"componentType":5126,"count":8,"type":"VEC3","min":[0.21000000000000002,0.49999999999999994,0.76],"max":[0.25,0.6299999999999999,0.8]},{"bufferView":109,"componentType":5126,"count":8,"type":"VEC3","min":[-0.8860776295682962,-0.26534325072266407,-0.8860776295682958],"max":[0.8623655648486575,0.39900373444305337,0.862365564848657]},{"bufferView":110,"componentType":5125,"count":36,"type":"SCALAR","min":[0],"max":[7]},{"bufferView":111,"componentType":5126,"count":384,"type":"VEC3","min":[0.21000000000000002,0.63,0.76],"max":[0.25,0.67,0.8]},{"bufferView":112,"componentType":5126,"count":384,"type":"VEC3","min":[-1.0,-0.9914448613738113,-0.9914448613738117],"max":[1.0,0.9914448613738113,0.9914448613738113]},{"bufferView":113,"componentType":5125,"count":576,"type":"SCALAR","min":[0],"max":[383]},{"bufferView":114,"componentType":5126,"count":8,"type":"VEC3","min":[-0.26,0.32,-0.45],"max":[0.26,0.455,-0.31]},{"bufferView":115,"componentType":5126,"count":8,"type":"VEC3","min":[-0.35010927612128473,-0.8771046141557366,-0.8814823809762512],"max":[0.2277098517519701,0.8946735207738563,0.6911249248460132]},{"bufferView":116,"componentType":5125,"count":36,"type":"SCALAR","min":[0],"max":[7]},{"bufferView":117,"componentType":5126,"count":8,"type":"VEC3","min":[-0.26,0.455,-0.45],"max":[0.26,0.46,-0.31]},{"bufferView":118,"componentType":5126,"count":8,"type":"VEC3","min":[-0.019214968219909985,-0.9997943968402151,-0.07124377333758394],"max":[0.009613407661925154,0.9998290481186398,0.03569111855967521]},{"bufferView":119,"componentType":5125,"count":36,"type":"SCALAR","min":[0],"max":[7]},{"bufferView":120,"componentType":5126,"count":8,"type":"VEC3","min":[-0.35,-0.010000000000000009,-0.5],"max":[0.35,0.010000000000000009,0.0]},{"bufferView":121,"componentType":5126,"count":8,"type":"VEC3","min":[-0.05700435358873176,-0.9993923909667856,-0.0797128998639507],"max":[0.028554068313336758,0.999698095957805,0.03996396711472366]},{"bufferView":122,"componentType":5125,"count":36,"type":"SCALAR","min":[0],"max":[7]},{"bufferView":123,"componentType":5126,"count":8,"type":"VEC3","min":[-0.15,-0.009000000000000008,-0.502],"max":[0.15,0.009000000000000008,-0.4970000000000001]},{"bufferView":124,"componentType":5126,"count":8,"type":"VEC3","min":[-0.032100711680666395,-0.48543689320387523,-0.9904585336812418],"max":[0.029126213592232542,0.4855913970903842,0.9634868521732328]},{"bufferView":125,"componentType":5125,"count":36,"type":"SCALAR","min":[0],"max":[7]},{"bufferView":126,"componentType":5126,"count":8,"type":"VEC3","min":[-0.2,0.1399999999999999,-0.020000000000000018],"max":[0.2,0.19999999999999996,0.020000000000000018]},{"bufferView":127,"componentType":5126,"count":8,"type":"VEC3","min":[-0.16415269654937498,-0.7943014707895377,-0.9476178269858856],"max":[0.11914522061843075,0.7985638763726229,0.8313311841397335]},{"bufferView":128,"componentType":5125,"count":36,"type":"SCALAR","min":[0],"max":[7]},{"bufferView":129,"componentType":5126,"count":8,"type":"VEC3","min":[-0.195,0.0,-0.012499999999999956],"max":[-0.16499999999999998,0.16999999999999993,0.012499999999999956]},{"bufferView":130,"componentType":5126,"count":8,"type":"VEC3","min":[-0.855049008064988,-0.14961895687210552,-0.9209580326357608],"max":[0.8478407556085968,0.2203917148181715,0.9146878522377034]},{"bufferView":131,"componentType":5125,"count":36,"type":"SCALAR","min":[0],"max":[7]},{"bufferView":132,"componentType":5126,"count":8,"type":"VEC3","min":[0.16499999999999998,0.0,-0.012499999999999956],"max":[0.195,0.16999999999999993,0.012499999999999956]},{"bufferView":133,"componentType":5126,"count":8,"type":"VEC3","min":[-0.855049008064988,-0.14961895687210552,-0.9209580326357608],"max":[0.8478407556085968,0.2203917148181715,0.9146878522377034]},{"bufferView":134,"componentType":5125,"count":36,"type":"SCALAR","min":[0],"max":[7]},{"bufferView":135,"componentType":5126,"count":8,"type":"VEC3","min":[-0.25,-0.008000000000000007,-0.008000000000000007],"max":[0.25,0.008000000000000007,0.008000000000000007]},{"bufferView":136,"componentType":5126,"count":8,"type":"VEC3","min":[-0.04520856410436373,-0.8940610585589036,-0.8943356157212803],"max":[0.028609953873884944,0.8943356157212803,0.7070615306965523]},{"bufferView":137,"componentType":5125,"count":36,"type":"SCALAR","min":[0],"max":[7]},{"bufferView":138,"componentType":5126,"count":8,"type":"VEC3","min":[0.0,-0.13999999999999996,-0.09999999999999998],"max":[0.015000000000000013,1.1102230246251565e-16,0.1]},{"bufferView":139,"componentType":5126,"count":8,"type":"VEC3","min":[-0.9978687587172302,-0.20731109536906175,-0.14751469157254962],"max":[0.9936186847451554,0.20896792237413195,0.14511776675834331]},{"bufferView":140,"componentType":5125,"count":36,"type":"SCALAR","min":[0],"max":[7]},{"bufferView":141,"componentType":5126,"count":8,"type":"VEC3","min":[-0.017500000000000016,-0.1715057906744808,-0.44581453989669206],"max":[0.017500000000000016,0.01650579067448077,0.005814539896692061]},{"bufferView":142,"componentType":5126,"count":8,"type":"VEC3","min":[-0.8939241472077611,-0.8319966020712265,-0.359666136857392],"max":[0.7068581456420553,0.8194735287439282,0.3331481730579396]},{"bufferView":143,"componentType":5125,"count":36,"type":"SCALAR","min":[0],"max":[7]},{"bufferView":144,"componentType":5126,"count":8,"type":"VEC3","min":[-0.017500000000000016,-0.08723803317522483,-0.0030166558056643478],"max":[0.017500000000000016,0.017238033175224765,0.40301665580566437]},{"bufferView":145,"componentType":5126,"count":8,"type":"VEC3","min":[-0.8937634833606963,-0.8916812723064349,-0.15257493773692327],"max":[0.7067787024233368,0.8870238022759831,0.18158769479144474]},{"bufferView":146,"componentType":5125,"count":36,"type":"SCALAR","min":[0],"max":[7]},{"bufferView":147,"componentType":5126,"count":24,"type":"VEC3","min":[-0.09500000000000003,-0.17099999999999999,-0.45600000000000007],"max":[0.0050000000000000044,-0.139,-0.42400000000000004]},{"bufferView":148,"componentType":5126,"count":24,"type":"VEC3","min":[-0.5375347937959036,-0.9904606573532811,-0.9742829316049324],"max":[0.5375347937959036,0.9904606573532811,0.9069808648962129]},{"bufferView":149,"componentType":5125,"count":132,"type":"SCALAR","min":[0],"max":[23]},{"bufferView":150,"componentType":5126,"count":256,"type":"VEC3","min":[-0.017500000000000016,-0.187,-0.4720000000000001],"max":[0.017500000000000016,-0.123,-0.40800000000000003]},{"bufferView":151,"componentType":5126,"count":256,"type":"VEC3","min":[-1.0,-0.9807852804032312,-0.9807852804032305],"max":[1.0,0.9807852804032305,0.9807852804032305]},{"bufferView":152,"componentType":5125,"count":384,"type":"SCALAR","min":[0],"max":[255]},{"bufferView":153,"componentType":5126,"count":8,"type":"VEC3","min":[-0.010000000000000009,-0.025000000000000022,-0.024999999999999994],"max":[0.04500000000000004,0.025000000000000022,0.024999999999999994]},{"bufferView":154,"componentType":5126,"count":8,"type":"VEC3","min":[-0.7893370379638582,-0.6939683276641628,-0.8285679348701807],"max":[0.6308802978765117,0.8285679348701802,0.6731890674983154]},{"bufferView":155,"componentType":5125,"count":36,"type":"SCALAR","min":[0],"max":[7]},{"bufferView":156,"componentType":5126,"count":8,"type":"VEC3","min":[-0.017500000000000016,-0.10174541009124849,-0.28508342806341475],"max":[0.017500000000000016,0.016745410091248525,0.005083428063414719]},{"bufferView":157,"componentType":5126,"count":8,"type":"VEC3","min":[-0.8931503120480304,-0.8391221437038607,-0.3601291003627498],"max":[0.7064753609347281,0.820103761636816,0.36211774217751486]},{"bufferView":158,"componentType":5125,"count":36,"type":"SCALAR","min":[0],"max":[7]},{"bufferView":159,"componentType":5126,"count":24,"type":"VEC3","min":[-0.09500000000000003,-0.10099999999999998,-0.29600000000000004],"max":[0.0050000000000000044,-0.069,-0.264]},{"bufferView":160,"componentType":5126,"count":24,"type":"VEC3","min":[-0.5375347937959045,-0.9904606573532811,-0.9742829316049325],"max":[0.5375347937959045,0.9904606573532811,0.9069808648962137]},{"bufferView":161,"componentType":5125,"count":132,"type":"SCALAR","min":[0],"max":[23]},{"bufferView":162,"componentType":5126,"count":256,"type":"VEC3","min":[-0.017500000000000016,-0.11699999999999999,-0.31200000000000006],"max":[0.017500000000000016,-0.05299999999999999,-0.24800000000000003]},{"bufferView":163,"componentType":5126,"count":256,"type":"VEC3","min":[-1.0,-0.9807852804032312,-0.9807852804032305],"max":[1.0,0.9807852804032305,0.9807852804032309]},{"bufferView":164,"componentType":5125,"count":384,"type":"SCALAR","min":[0],"max":[255]},{"bufferView":165,"componentType":5126,"count":8,"type":"VEC3","min":[-0.017500000000000016,-0.10174541009124849,-0.005083428063414719],"max":[0.017500000000000016,0.016745410091248525,0.2850834280634147]},{"bufferView":166,"componentType":5126,"count":8,"type":"VEC3","min":[-0.89315031204803,-0.8819040048089611,-0.24564705072647167],"max":[0.7064753609347274,0.8701542275385223,0.2853130450175258]},{"bufferView":167,"componentType":5125,"count":36,"type":"SCALAR","min":[0],"max":[7]},{"bufferView":168,"componentType":5126,"count":24,"type":"VEC3","min":[-0.09500000000000003,-0.10099999999999998,0.264],"max":[0.0050000000000000044,-0.069,0.29600000000000004]},{"bufferView":169,"componentType":5126,"count":24,"type":"VEC3","min":[-0.5375347937959036,-0.9904606573532811,-0.9742829316049324],"max":[0.5375347937959036,0.9904606573532811,0.9069808648962129]},{"bufferView":170,"componentType":5125,"count":132,"type":"SCALAR","min":[0],"max":[23]},{"bufferView":171,"componentType":5126,"count":256,"type":"VEC3","min":[-0.017500000000000016,-0.11699999999999999,0.248],"max":[0.017500000000000016,-0.05299999999999999,0.31200000000000006]},{"bufferView":172,"componentType":5126,"count":256,"type":"VEC3","min":[-1.0,-0.9807852804032312,-0.9807852804032305],"max":[1.0,0.9807852804032305,0.9807852804032305]},{"bufferView":173,"componentType":5125,"count":384,"type":"SCALAR","min":[0],"max":[255]},{"bufferView":174,"componentType":5126,"count":384,"type":"VEC3","min":[-0.07999999999999996,-0.185,-0.185],"max":[0.08000000000000002,0.18500000000000003,0.185]},{"bufferView":175,"componentType":5126,"count":384,"type":"VEC3","min":[-1.0,-0.9914448613738104,-0.9914448613738105],"max":[1.0,0.9914448613738105,0.9914448613738104]},{"bufferView":176,"componentType":5125,"count":576,"type":"SCALAR","min":[0],"max":[383]},{"bufferView":177,"componentType":5126,"count":384,"type":"VEC3","min":[-0.07999999999999996,-0.11,-0.11],"max":[0.08000000000000002,0.11000000000000001,0.11]},{"bufferView":178,"componentType":5126,"count":384,"type":"VEC3","min":[-1.0,-0.9914448613738105,-0.9914448613738105],"max":[1.0,0.9914448613738104,0.9914448613738105]},{"bufferView":179,"componentType":5125,"count":576,"type":"SCALAR","min":[0],"max":[383]},{"bufferView":180,"componentType":5126,"count":240,"type":"VEC3","min":[-0.07999999999999996,-0.205,-0.205],"max":[0.08000000000000002,0.205,0.205]},{"bufferView":181,"componentType":5126,"count":240,"type":"VEC3","min":[-0.09107773811325694,-0.9992929452674733,-0.9992929452674733],"max":[0.11656808448881698,0.9992929452674733,0.9992929452674733]},{"bufferView":182,"componentType":5125,"count":1152,"type":"SCALAR","min":[0],"max":[239]},{"bufferView":183,"componentType":5126,"count":48,"type":"VEC3","min":[-0.009000000000000008,-0.1430640646055102,-0.16],"max":[0.009000000000000008,0.14306406460551022,0.16]},{"bufferView":184,"componentType":5126,"count":48,"type":"VEC3","min":[-0.8864844143558726,-0.8864844143558729,-0.8777122659179286],"max":[0.70316255393463,0.8864844143558726,0.8777122659179288]},{"bufferView":185,"componentType":5125,"count":216,"type":"SCALAR","min":[0],"max":[47]},{"bufferView":186,"componentType":5126,"count":8,"type":"VEC3","min":[-0.07999999999999996,-0.01100000000000001,0.065],"max":[-0.07399999999999995,0.01100000000000001,0.10500000000000001]},{"bufferView":187,"componentType":5126,"count":8,"type":"VEC3","min":[-0.9881056104109625,-0.4630616722807641,-0.27801860208365514],"max":[0.9622481475919338,0.4747535280159913,0.25468391975442045]},{"bufferView":188,"componentType":5125,"count":36,"type":"SCALAR","min":[0],"max":[7]},{"bufferView":189,"componentType":5126,"count":8,"type":"VEC3","min":[0.07400000000000001,-0.01100000000000001,0.065],"max":[0.08000000000000002,0.01100000000000001,0.10500000000000001]},{"bufferView":190,"componentType":5126,"count":8,"type":"VEC3","min":[-0.9881056104109625,-0.4630616722807641,-0.27801860208365514],"max":[0.9622481475919338,0.4747535280159913,0.25468391975442045]},{"bufferView":191,"componentType":5125,"count":36,"type":"SCALAR","min":[0],"max":[7]},{"bufferView":192,"componentType":5126,"count":384,"type":"VEC3","min":[-0.07999999999999996,-0.185,-0.185],"max":[0.08000000000000002,0.18500000000000003,0.18500000000000005]},{"bufferView":193,"componentType":5126,"count":384,"type":"VEC3","min":[-1.0,-0.9914448613738104,-0.9914448613738105],"max":[1.0,0.9914448613738104,0.9914448613738104]},{"bufferView":194,"componentType":5125,"count":576,"type":"SCALAR","min":[0],"max":[383]},{"bufferView":195,"componentType":5126,"count":384,"type":"VEC3","min":[-0.07999999999999996,-0.11,-0.10999999999999999],"max":[0.08000000000000002,0.11000000000000001,0.10999999999999999]},{"bufferView":196,"componentType":5126,"count":384,"type":"VEC3","min":[-1.0,-0.9914448613738106,-0.9914448613738106],"max":[1.0,0.9914448613738104,0.9914448613738106]},{"bufferView":197,"componentType":5125,"count":576,"type":"SCALAR","min":[0],"max":[383]},{"bufferView":198,"componentType":5126,"count":240,"type":"VEC3","min":[-0.07999999999999996,-0.205,-0.20499999999999996],"max":[0.08000000000000002,0.205,0.20499999999999996]},{"bufferView":199,"componentType":5126,"count":240,"type":"VEC3","min":[-0.09107773811325703,-0.9992929452674733,-0.9992929452674733],"max":[0.1165680844888174,0.9992929452674733,0.9992929452674733]},{"bufferView":200,"componentType":5125,"count":1152,"type":"SCALAR","min":[0],"max":[239]},{"bufferView":201,"componentType":5126,"count":48,"type":"VEC3","min":[-0.009000000000000008,-0.1430640646055102,-0.16000000000000003],"max":[0.009000000000000008,0.14306406460551022,0.16000000000000003]},{"bufferView":202,"componentType":5126,"count":48,"type":"VEC3","min":[-0.8864844143558727,-0.8864844143558728,-0.8777122659179288],"max":[0.7031625539346306,0.8864844143558724,0.877712265917929]},{"bufferView":203,"componentType":5125,"count":216,"type":"SCALAR","min":[0],"max":[47]},{"bufferView":204,"componentType":5126,"count":8,"type":"VEC3","min":[-0.07999999999999996,-0.01100000000000001,0.06499999999999995],"max":[-0.07399999999999995,0.01100000000000001,0.10499999999999998]},{"bufferView":205,"componentType":5126,"count":8,"type":"VEC3","min":[-0.9881056104109625,-0.46306167228076406,-0.2780186020836549],"max":[0.9622481475919338,0.4747535280159914,0.25468391975442023]},{"bufferView":206,"componentType":5125,"count":36,"type":"SCALAR","min":[0],"max":[7]},{"bufferView":207,"componentType":5126,"count":8,"type":"VEC3","min":[0.07400000000000001,-0.01100000000000001,0.06499999999999995],"max":[0.08000000000000002,0.01100000000000001,0.10499999999999998]},{"bufferView":208,"componentType":5126,"count":8,"type":"VEC3","min":[-0.9881056104109625,-0.46306167228076406,-0.2780186020836549],"max":[0.9622481475919338,0.4747535280159914,0.25468391975442023]},{"bufferView":209,"componentType":5125,"count":36,"type":"SCALAR","min":[0],"max":[7]},{"bufferView":210,"componentType":5126,"count":384,"type":"VEC3","min":[-0.07999999999999996,-0.185,-0.18500000000000005],"max":[0.08000000000000002,0.18500000000000003,0.185]},{"bufferView":211,"componentType":5126,"count":384,"type":"VEC3","min":[-1.0,-0.9914448613738104,-0.9914448613738104],"max":[1.0,0.9914448613738104,0.9914448613738104]},{"bufferView":212,"componentType":5125,"count":576,"type":"SCALAR","min":[0],"max":[383]},{"bufferView":213,"componentType":5126,"count":384,"type":"VEC3","min":[-0.07999999999999996,-0.11,-0.10999999999999999],"max":[0.08000000000000002,0.11000000000000001,0.10999999999999999]},{"bufferView":214,"componentType":5126,"count":384,"type":"VEC3","min":[-1.0,-0.9914448613738106,-0.9914448613738106],"max":[1.0,0.9914448613738104,0.9914448613738106]},{"bufferView":215,"componentType":5125,"count":576,"type":"SCALAR","min":[0],"max":[383]},{"bufferView":216,"componentType":5126,"count":240,"type":"VEC3","min":[-0.07999999999999996,-0.205,-0.20499999999999996],"max":[0.08000000000000002,0.205,0.20499999999999996]},{"bufferView":217,"componentType":5126,"count":240,"type":"VEC3","min":[-0.09107773811325703,-0.9992929452674733,-0.9992929452674733],"max":[0.11656808448881732,0.9992929452674733,0.9992929452674733]},{"bufferView":218,"componentType":5125,"count":1152,"type":"SCALAR","min":[0],"max":[239]},{"bufferView":219,"componentType":5126,"count":48,"type":"VEC3","min":[-0.009000000000000008,-0.1430640646055102,-0.16000000000000003],"max":[0.009000000000000008,0.14306406460551022,0.16000000000000003]},{"bufferView":220,"componentType":5126,"count":48,"type":"VEC3","min":[-0.8864844143558729,-0.8864844143558728,-0.8777122659179284],"max":[0.7031625539346309,0.8864844143558724,0.877712265917929]},{"bufferView":221,"componentType":5125,"count":216,"type":"SCALAR","min":[0],"max":[47]},{"bufferView":222,"componentType":5126,"count":8,"type":"VEC3","min":[-0.07999999999999996,-0.01100000000000001,0.065],"max":[-0.07399999999999995,0.01100000000000001,0.10499999999999998]},{"bufferView":223,"componentType":5126,"count":8,"type":"VEC3","min":[-0.9881056104109625,-0.463061672280764,-0.27801860208365525],"max":[0.9622481475919338,0.4747535280159913,0.25468391975442056]},{"bufferView":224,"componentType":5125,"count":36,"type":"SCALAR","min":[0],"max":[7]},{"bufferView":225,"componentType":5126,"count":8,"type":"VEC3","min":[0.07400000000000001,-0.01100000000000001,0.065],"max":[0.08000000000000002,0.01100000000000001,0.10499999999999998]},{"bufferView":226,"componentType":5126,"count":8,"type":"VEC3","min":[-0.9881056104109625,-0.463061672280764,-0.27801860208365525],"max":[0.9622481475919338,0.4747535280159913,0.25468391975442056]},{"bufferView":227,"componentType":5125,"count":36,"type":"SCALAR","min":[0],"max":[7]},{"bufferView":228,"componentType":5126,"count":8,"type":"VEC3","min":[-0.017500000000000016,-0.1715057906744808,-0.44581453989669206],"max":[0.017500000000000016,0.01650579067448077,0.005814539896692061]},{"bufferView":229,"componentType":5126,"count":8,"type":"VEC3","min":[-0.8939241472077611,-0.8319966020712265,-0.359666136857392],"max":[0.7068581456420553,0.8194735287439282,0.3331481730579396]},{"bufferView":230,"componentType":5125,"count":36,"type":"SCALAR","min":[0],"max":[7]},{"bufferView":231,"componentType":5126,"count":8,"type":"VEC3","min":[-0.017500000000000016,-0.08723803317522483,-0.0030166558056643478],"max":[0.017500000000000016,0.017238033175224765,0.40301665580566437]},{"bufferView":232,"componentType":5126,"count":8,"type":"VEC3","min":[-0.8937634833606963,-0.8916812723064349,-0.15257493773692327],"max":[0.7067787024233368,0.8870238022759831,0.18158769479144474]},{"bufferView":233,"componentType":5125,"count":36,"type":"SCALAR","min":[0],"max":[7]},{"bufferView":234,"componentType":5126,"count":24,"type":"VEC3","min":[-0.0050000000000000044,-0.17099999999999999,-0.45600000000000007],"max":[0.09500000000000003,-0.139,-0.42400000000000004]},{"bufferView":235,"componentType":5126,"count":24,"type":"VEC3","min":[-0.5375347937959036,-0.9904606573532811,-0.9742829316049324],"max":[0.5375347937959036,0.9904606573532811,0.9069808648962129]},{"bufferView":236,"componentType":5125,"count":132,"type":"SCALAR","min":[0],"max":[23]},{"bufferView":237,"componentType":5126,"count":256,"type":"VEC3","min":[-0.017500000000000016,-0.187,-0.4720000000000001],"max":[0.017500000000000016,-0.123,-0.40800000000000003]},{"bufferView":238,"componentType":5126,"count":256,"type":"VEC3","min":[-1.0,-0.9807852804032312,-0.9807852804032305],"max":[1.0,0.9807852804032305,0.9807852804032305]},{"bufferView":239,"componentType":5125,"count":384,"type":"SCALAR","min":[0],"max":[255]},{"bufferView":240,"componentType":5126,"count":8,"type":"VEC3","min":[-0.04500000000000004,-0.025000000000000022,-0.024999999999999994],"max":[0.010000000000000009,0.025000000000000022,0.024999999999999994]},{"bufferView":241,"componentType":5126,"count":8,"type":"VEC3","min":[-0.7893370379638582,-0.6939683276641628,-0.8285679348701807],"max":[0.6308802978765117,0.8285679348701802,0.6731890674983154]},{"bufferView":242,"componentType":5125,"count":36,"type":"SCALAR","min":[0],"max":[7]},{"bufferView":243,"componentType":5126,"count":8,"type":"VEC3","min":[-0.017500000000000016,-0.10174541009124849,-0.28508342806341475],"max":[0.017500000000000016,0.016745410091248525,0.005083428063414719]},{"bufferView":244,"componentType":5126,"count":8,"type":"VEC3","min":[-0.8931503120480304,-0.8391221437038607,-0.3601291003627498],"max":[0.7064753609347281,0.820103761636816,0.36211774217751486]},{"bufferView":245,"componentType":5125,"count":36,"type":"SCALAR","min":[0],"max":[7]},{"bufferView":246,"componentType":5126,"count":24,"type":"VEC3","min":[-0.0050000000000000044,-0.10099999999999998,-0.29600000000000004],"max":[0.09500000000000003,-0.069,-0.264]},{"bufferView":247,"componentType":5126,"count":24,"type":"VEC3","min":[-0.5375347937959045,-0.9904606573532811,-0.9742829316049325],"max":[0.5375347937959045,0.9904606573532811,0.9069808648962137]},{"bufferView":248,"componentType":5125,"count":132,"type":"SCALAR","min":[0],"max":[23]},{"bufferView":249,"componentType":5126,"count":256,"type":"VEC3","min":[-0.017500000000000016,-0.11699999999999999,-0.31200000000000006],"max":[0.017500000000000016,-0.05299999999999999,-0.24800000000000003]},{"bufferView":250,"componentType":5126,"count":256,"type":"VEC3","min":[-1.0,-0.9807852804032312,-0.9807852804032305],"max":[1.0,0.9807852804032305,0.9807852804032309]},{"bufferView":251,"componentType":5125,"count":384,"type":"SCALAR","min":[0],"max":[255]},{"bufferView":252,"componentType":5126,"count":8,"type":"VEC3","min":[-0.017500000000000016,-0.10174541009124849,-0.005083428063414719],"max":[0.017500000000000016,0.016745410091248525,0.2850834280634147]},{"bufferView":253,"componentType":5126,"count":8,"type":"VEC3","min":[-0.89315031204803,-0.8819040048089611,-0.24564705072647167],"max":[0.7064753609347274,0.8701542275385223,0.2853130450175258]},{"bufferView":254,"componentType":5125,"count":36,"type":"SCALAR","min":[0],"max":[7]},{"bufferView":255,"componentType":5126,"count":24,"type":"VEC3","min":[-0.0050000000000000044,-0.10099999999999998,0.264],"max":[0.09500000000000003,-0.069,0.29600000000000004]},{"bufferView":256,"componentType":5126,"count":24,"type":"VEC3","min":[-0.5375347937959036,-0.9904606573532811,-0.9742829316049324],"max":[0.5375347937959036,0.9904606573532811,0.9069808648962129]},{"bufferView":257,"componentType":5125,"count":132,"type":"SCALAR","min":[0],"max":[23]},{"bufferView":258,"componentType":5126,"count":256,"type":"VEC3","min":[-0.017500000000000016,-0.11699999999999999,0.248],"max":[0.017500000000000016,-0.05299999999999999,0.31200000000000006]},{"bufferView":259,"componentType":5126,"count":256,"type":"VEC3","min":[-1.0,-0.9807852804032312,-0.9807852804032305],"max":[1.0,0.9807852804032305,0.9807852804032305]},{"bufferView":260,"componentType":5125,"count":384,"type":"SCALAR","min":[0],"max":[255]},{"bufferView":261,"componentType":5126,"count":384,"type":"VEC3","min":[-0.08000000000000002,-0.185,-0.185],"max":[0.07999999999999996,0.18500000000000003,0.185]},{"bufferView":262,"componentType":5126,"count":384,"type":"VEC3","min":[-1.0,-0.9914448613738104,-0.9914448613738105],"max":[1.0,0.9914448613738105,0.9914448613738104]},{"bufferView":263,"componentType":5125,"count":576,"type":"SCALAR","min":[0],"max":[383]},{"bufferView":264,"componentType":5126,"count":384,"type":"VEC3","min":[-0.08000000000000002,-0.11,-0.11],"max":[0.07999999999999996,0.11000000000000001,0.11]},{"bufferView":265,"componentType":5126,"count":384,"type":"VEC3","min":[-1.0,-0.9914448613738105,-0.9914448613738105],"max":[1.0,0.9914448613738104,0.9914448613738105]},{"bufferView":266,"componentType":5125,"count":576,"type":"SCALAR","min":[0],"max":[383]},{"bufferView":267,"componentType":5126,"count":240,"type":"VEC3","min":[-0.08000000000000002,-0.205,-0.205],"max":[0.07999999999999996,0.205,0.205]},{"bufferView":268,"componentType":5126,"count":240,"type":"VEC3","min":[-0.09107773811325694,-0.9992929452674733,-0.9992929452674733],"max":[0.11656808448881698,0.9992929452674733,0.9992929452674733]},{"bufferView":269,"componentType":5125,"count":1152,"type":"SCALAR","min":[0],"max":[239]},{"bufferView":270,"componentType":5126,"count":48,"type":"VEC3","min":[-0.009000000000000008,-0.1430640646055102,-0.16],"max":[0.009000000000000008,0.14306406460551022,0.16]},{"bufferView":271,"componentType":5126,"count":48,"type":"VEC3","min":[-0.8864844143558726,-0.8864844143558729,-0.8777122659179286],"max":[0.70316255393463,0.8864844143558726,0.8777122659179288]},{"bufferView":272,"componentType":5125,"count":216,"type":"SCALAR","min":[0],"max":[47]},{"bufferView":273,"componentType":5126,"count":8,"type":"VEC3","min":[-0.08000000000000002,-0.01100000000000001,0.065],"max":[-0.07400000000000001,0.01100000000000001,0.10500000000000001]},{"bufferView":274,"componentType":5126,"count":8,"type":"VEC3","min":[-0.9881056104109625,-0.4630616722807641,-0.27801860208365514],"max":[0.9622481475919338,0.4747535280159913,0.25468391975442045]},{"bufferView":275,"componentType":5125,"count":36,"type":"SCALAR","min":[0],"max":[7]},{"bufferView":276,"componentType":5126,"count":8,"type":"VEC3","min":[0.07399999999999995,-0.01100000000000001,0.065],"max":[0.07999999999999996,0.01100000000000001,0.10500000000000001]},{"bufferView":277,"componentType":5126,"count":8,"type":"VEC3","min":[-0.9881056104109625,-0.4630616722807641,-0.27801860208365514],"max":[0.9622481475919338,0.4747535280159913,0.25468391975442045]},{"bufferView":278,"componentType":5125,"count":36,"type":"SCALAR","min":[0],"max":[7]},{"bufferView":279,"componentType":5126,"count":384,"type":"VEC3","min":[-0.08000000000000002,-0.185,-0.185],"max":[0.07999999999999996,0.18500000000000003,0.18500000000000005]},{"bufferView":280,"componentType":5126,"count":384,"type":"VEC3","min":[-1.0,-0.9914448613738104,-0.9914448613738105],"max":[1.0,0.9914448613738104,0.9914448613738104]},{"bufferView":281,"componentType":5125,"count":576,"type":"SCALAR","min":[0],"max":[383]},{"bufferView":282,"componentType":5126,"count":384,"type":"VEC3","min":[-0.08000000000000002,-0.11,-0.10999999999999999],"max":[0.07999999999999996,0.11000000000000001,0.10999999999999999]},{"bufferView":283,"componentType":5126,"count":384,"type":"VEC3","min":[-1.0,-0.9914448613738106,-0.9914448613738106],"max":[1.0,0.9914448613738104,0.9914448613738106]},{"bufferView":284,"componentType":5125,"count":576,"type":"SCALAR","min":[0],"max":[383]},{"bufferView":285,"componentType":5126,"count":240,"type":"VEC3","min":[-0.08000000000000002,-0.205,-0.20499999999999996],"max":[0.07999999999999996,0.205,0.20499999999999996]},{"bufferView":286,"componentType":5126,"count":240,"type":"VEC3","min":[-0.09107773811325703,-0.9992929452674733,-0.9992929452674733],"max":[0.1165680844888174,0.9992929452674733,0.9992929452674733]},{"bufferView":287,"componentType":5125,"count":1152,"type":"SCALAR","min":[0],"max":[239]},{"bufferView":288,"componentType":5126,"count":48,"type":"VEC3","min":[-0.009000000000000008,-0.1430640646055102,-0.16000000000000003],"max":[0.009000000000000008,0.14306406460551022,0.16000000000000003]},{"bufferView":289,"componentType":5126,"count":48,"type":"VEC3","min":[-0.8864844143558727,-0.8864844143558728,-0.8777122659179288],"max":[0.7031625539346306,0.8864844143558724,0.877712265917929]},{"bufferView":290,"componentType":5125,"count":216,"type":"SCALAR","min":[0],"max":[47]},{"bufferView":291,"componentType":5126,"count":8,"type":"VEC3","min":[-0.08000000000000002,-0.01100000000000001,0.06499999999999995],"max":[-0.07400000000000001,0.01100000000000001,0.10499999999999998]},{"bufferView":292,"componentType":5126,"count":8,"type":"VEC3","min":[-0.9881056104109625,-0.46306167228076406,-0.2780186020836549],"max":[0.9622481475919338,0.4747535280159914,0.25468391975442023]},{"bufferView":293,"componentType":5125,"count":36,"type":"SCALAR","min":[0],"max":[7]},{"bufferView":294,"componentType":5126,"count":8,"type":"VEC3","min":[0.07399999999999995,-0.01100000000000001,0.06499999999999995],"max":[0.07999999999999996,0.01100000000000001,0.10499999999999998]},{"bufferView":295,"componentType":5126,"count":8,"type":"VEC3","min":[-0.9881056104109625,-0.46306167228076406,-0.2780186020836549],"max":[0.9622481475919338,0.4747535280159914,0.25468391975442023]},{"bufferView":296,"componentType":5125,"count":36,"type":"SCALAR","min":[0],"max":[7]},{"bufferView":297,"componentType":5126,"count":384,"type":"VEC3","min":[-0.08000000000000002,-0.185,-0.18500000000000005],"max":[0.07999999999999996,0.18500000000000003,0.185]},{"bufferView":298,"componentType":5126,"count":384,"type":"VEC3","min":[-1.0,-0.9914448613738104,-0.9914448613738104],"max":[1.0,0.9914448613738104,0.9914448613738104]},{"bufferView":299,"componentType":5125,"count":576,"type":"SCALAR","min":[0],"max":[383]},{"bufferView":300,"componentType":5126,"count":384,"type":"VEC3","min":[-0.08000000000000002,-0.11,-0.10999999999999999],"max":[0.07999999999999996,0.11000000000000001,0.10999999999999999]},{"bufferView":301,"componentType":5126,"count":384,"type":"VEC3","min":[-1.0,-0.9914448613738106,-0.9914448613738106],"max":[1.0,0.9914448613738104,0.9914448613738106]},{"bufferView":302,"componentType":5125,"count":576,"type":"SCALAR","min":[0],"max":[383]},{"bufferView":303,"componentType":5126,"count":240,"type":"VEC3","min":[-0.08000000000000002,-0.205,-0.20499999999999996],"max":[0.07999999999999996,0.205,0.20499999999999996]},{"bufferView":304,"componentType":5126,"count":240,"type":"VEC3","min":[-0.09107773811325703,-0.9992929452674733,-0.9992929452674733],"max":[0.11656808448881732,0.9992929452674733,0.9992929452674733]},{"bufferView":305,"componentType":5125,"count":1152,"type":"SCALAR","min":[0],"max":[239]},{"bufferView":306,"componentType":5126,"count":48,"type":"VEC3","min":[-0.009000000000000008,-0.1430640646055102,-0.16000000000000003],"max":[0.009000000000000008,0.14306406460551022,0.16000000000000003]},{"bufferView":307,"componentType":5126,"count":48,"type":"VEC3","min":[-0.8864844143558729,-0.8864844143558728,-0.8777122659179284],"max":[0.7031625539346309,0.8864844143558724,0.877712265917929]},{"bufferView":308,"componentType":5125,"count":216,"type":"SCALAR","min":[0],"max":[47]},{"bufferView":309,"componentType":5126,"count":8,"type":"VEC3","min":[-0.08000000000000002,-0.01100000000000001,0.065],"max":[-0.07400000000000001,0.01100000000000001,0.10499999999999998]},{"bufferView":310,"componentType":5126,"count":8,"type":"VEC3","min":[-0.9881056104109625,-0.463061672280764,-0.27801860208365525],"max":[0.9622481475919338,0.4747535280159913,0.25468391975442056]},{"bufferView":311,"componentType":5125,"count":36,"type":"SCALAR","min":[0],"max":[7]},{"bufferView":312,"componentType":5126,"count":8,"type":"VEC3","min":[0.07399999999999995,-0.01100000000000001,0.065],"max":[0.07999999999999996,0.01100000000000001,0.10499999999999998]},{"bufferView":313,"componentType":5126,"count":8,"type":"VEC3","min":[-0.9881056104109625,-0.463061672280764,-0.27801860208365525],"max":[0.9622481475919338,0.4747535280159913,0.25468391975442056]},{"bufferView":314,"componentType":5125,"count":36,"type":"SCALAR","min":[0],"max":[7]},{"bufferView":315,"componentType":5126,"count":8,"type":"VEC3","min":[-0.295,5.551115123125783e-17,-0.325],"max":[0.295,0.14000000000000012,0.32499999999999996]},{"bufferView":316,"componentType":5126,"count":8,"type":"VEC3","min":[-0.4208511431098531,-0.9710719993440292,-0.3865511710253809],"max":[0.2296201843589489,0.9874049874136034,0.20915396908948333]},{"bufferView":317,"componentType":5125,"count":36,"type":"SCALAR","min":[0],"max":[7]},{"bufferView":318,"componentType":5126,"count":8,"type":"VEC3","min":[-0.31,0.14,-0.34],"max":[0.31,0.31999999999999995,0.3400000000000001]},{"bufferView":319,"componentType":5126,"count":8,"type":"VEC3","min":[-0.48947455395743433,-0.9573253555430601,-0.4532070223296812],"max":[0.2765849496676607,0.9812464974810483,0.2534096529378687]},{"bufferView":320,"componentType":5125,"count":36,"type":"SCALAR","min":[0],"max":[7]},{"bufferView":321,"componentType":5126,"count":8,"type":"VEC3","min":[-0.32,0.31999999999999995,-0.35],"max":[0.32,0.38,0.35]},{"bufferView":322,"componentType":5126,"count":8,"type":"VEC3","min":[-0.18363800922420942,-0.9952617878012233,-0.16824708270863784],"max":[0.09325585033842967,0.9979890818328224,0.08530815324010495]},{"bufferView":323,"componentType":5125,"count":36,"type":"SCALAR","min":[0],"max":[7]},{"bufferView":324,"componentType":5126,"count":8,"type":"VEC3","min":[-0.015,0.22499999999999998,-1.15],"max":[0.015,0.255,-0.8]},{"bufferView":325,"componentType":5126,"count":8,"type":"VEC3","min":[-0.8937707841174368,-0.8918102007617777,-0.120337417818033],"max":[0.7067823127660338,0.8937707841174365,0.07644087435100962]},{"bufferView":326,"componentType":5125,"count":36,"type":"SCALAR","min":[0],"max":[7]},{"bufferView":327,"componentType":5126,"count":5,"type":"SCALAR","min":[0.0],"max":[1.0]},{"bufferView":328,"componentType":5126,"count":5,"type":"VEC4","min":[0.0,0.0,0.0,-1.0],"max":[1.0,0.0,0.0,1.0]},{"bufferView":329,"componentType":5126,"count":5,"type":"SCALAR","min":[0.0],"max":[1.0]},{"bufferView":330,"componentType":5126,"count":5,"type":"VEC4","min":[0.0,0.0,0.0,-1.0],"max":[1.0,0.0,0.0,1.0]},{"bufferView":331,"componentType":5126,"count":5,"type":"SCALAR","min":[0.0],"max":[1.0]},{"bufferView":332,"componentType":5126,"count":5,"type":"VEC4","min":[0.0,0.0,0.0,-1.0],"max":[1.0,0.0,0.0,1.0]},{"bufferView":333,"componentType":5126,"count":5,"type":"SCALAR","min":[0.0],"max":[1.0]},{"bufferView":334,"componentType":5126,"count":5,"type":"VEC4","min":[0.0,0.0,0.0,-1.0],"max":[1.0,0.0,0.0,1.0]},{"bufferView":335,"componentType":5126,"count":5,"type":"SCALAR","min":[0.0],"max":[1.0]},{"bufferView":336,"componentType":5126,"count":5,"type":"VEC4","min":[0.0,0.0,0.0,-1.0],"max":[1.0,0.0,0.0,1.0]},{"bufferView":337,"componentType":5126,"count":5,"type":"SCALAR","min":[0.0],"max":[1.0]},{"bufferView":338,"componentType":5126,"count":5,"type":"VEC4","min":[0.0,0.0,0.0,-1.0],"max":[1.0,0.0,0.0,1.0]},{"bufferView":339,"componentType":5126,"count":2,"type":"SCALAR","min":[0.0],"max":[1.0]},{"bufferView":340,"componentType":5126,"count":2,"type":"VEC4","min":[0.0,0.0,0.0,0.97629601],"max":[0.21643961,0.0,0.0,1.0]},{"bufferView":341,"componentType":5126,"count":2,"type":"SCALAR","min":[0.0],"max":[1.0]},{"bufferView":342,"componentType":5126,"count":2,"type":"VEC4","min":[0.0,0.0,0.0,0.8660254],"max":[0.0,0.0,0.5,1.0]},{"bufferView":343,"componentType":5126,"count":2,"type":"SCALAR","min":[0.0],"max":[1.0]},{"bufferView":344,"componentType":5126,"count":2,"type":"VEC4","min":[-0.3007058,0.0,0.0,0.95371695],"max":[0.0,0.0,0.0,1.0]},{"bufferView":345,"componentType":5126,"count":2,"type":"SCALAR","min":[0.0],"max":[1.0]},{"bufferView":346,"componentType":5126,"count":2,"type":"VEC4","min":[0.0,0.0,0.0,0.81915204],"max":[0.57357644,0.0,0.0,1.0]}],"bufferViews":[{"buffer":0,"byteOffset":0,"byteLength":96,"target":34962},{"buffer":0,"byteOffset":96,"byteLength":96,"target":34962},{"buffer":0,"byteOffset":192,"byteLength":144,"target":34963},{"buffer":0,"byteOffset":336,"byteLength":96,"target":34962},{"buffer":0,"byteOffset":432,"byteLength":96,"target":34962},{"buffer":0,"byteOffset":528,"byteLength":144,"target":34963},{"buffer":0,"byteOffset":672,"byteLength":96,"target":34962},{"buffer":0,"byteOffset":768,"byteLength":96,"target":34962},{"buffer":0,"byteOffset":864,"byteLength":144,"target":34963},{"buffer":0,"byteOffset":1008,"byteLength":96,"target":34962},{"buffer":0,"byteOffset":1104,"byteLength":96,"target":34962},{"buffer":0,"byteOffset":1200,"byteLength":144,"target":34963},{"buffer":0,"byteOffset":1344,"byteLength":96,"target":34962},{"buffer":0,"byteOffset":1440,"byteLength":96,"target":34962},{"buffer":0,"byteOffset":1536,"byteLength":144,"target":34963},{"buffer":0,"byteOffset":1680,"byteLength":96,"target":34962},{"buffer":0,"byteOffset":1776,"byteLength":96,"target":34962},{"buffer":0,"byteOffset":1872,"byteLength":144,"target":34963},{"buffer":0,"byteOffset":2016,"byteLength":96,"target":34962},{"buffer":0,"byteOffset":2112,"byteLength":96,"target":34962},{"buffer":0,"byteOffset":2208,"byteLength":144,"target":34963},{"buffer":0,"byteOffset":2352,"byteLength":96,"target":34962},{"buffer":0,"byteOffset":2448,"byteLength":96,"target":34962},{"buffer":0,"byteOffset":2544,"byteLength":144,"target":34963},{"buffer":0,"byteOffset":2688,"byteLength":96,"target":34962},{"buffer":0,"byteOffset":2784,"byteLength":96,"target":34962},{"buffer":0,"byteOffset":2880,"byteLength":144,"target":34963},{"buffer":0,"byteOffset":3024,"byteLength":96,"target":34962},{"buffer":0,"byteOffset":3120,"byteLength":96,"target":34962},{"buffer":0,"byteOffset":3216,"byteLength":144,"target":34963},{"buffer":0,"byteOffset":3360,"byteLength":96,"target":34962},{"buffer":0,"byteOffset":3456,"byteLength":96,"target":34962},{"buffer":0,"byteOffset":3552,"byteLength":144,"target":34963},{"buffer":0,"byteOffset":3696,"byteLength":96,"target":34962},{"buffer":0,"byteOffset":3792,"byteLength":96,"target":34962},{"buffer":0,"byteOffset":3888,"byteLength":144,"target":34963},{"buffer":0,"byteOffset":4032,"byteLength":96,"target":34962},{"buffer":0,"byteOffset":4128,"byteLength":96,"target":34962},{"buffer":0,"byteOffset":4224,"byteLength":144,"target":34963},{"buffer":0,"byteOffset":4368,"byteLength":96,"target":34962},{"buffer":0,"byteOffset":4464,"byteLength":96,"target":34962},{"buffer":0,"byteOffset":4560,"byteLength":144,"target":34963},{"buffer":0,"byteOffset":4704,"byteLength":96,"target":34962},{"buffer":0,"byteOffset":4800,"byteLength":96,"target":34962},{"buffer":0,"byteOffset":4896,"byteLength":144,"target":34963},{"buffer":0,"byteOffset":5040,"byteLength":120,"target":34962},{"buffer":0,"byteOffset":5160,"byteLength":120,"target":34962},{"buffer":0,"byteOffset":5280,"byteLength":192,"target":34963},{"buffer":0,"byteOffset":5472,"byteLength":96,"target":34962},{"buffer":0,"byteOffset":5568,"byteLength":96,"target":34962},{"buffer":0,"byteOffset":5664,"byteLength":144,"target":34963},{"buffer":0,"byteOffset":5808,"byteLength":96,"target":34962},{"buffer":0,"byteOffset":5904,"byteLength":96,"target":34962},{"buffer":0,"byteOffset":6000,"byteLength":144,"target":34963},{"buffer":0,"byteOffset":6144,"byteLength":96,"target":34962},{"buffer":0,"byteOffset":6240,"byteLength":96,"target":34962},{"buffer":0,"byteOffset":6336,"byteLength":144,"target":34963},{"buffer":0,"byteOffset":6480,"byteLength":96,"target":34962},{"buffer":0,"byteOffset":6576,"byteLength":96,"target":34962},{"buffer":0,"byteOffset":6672,"byteLength":144,"target":34963},{"buffer":0,"byteOffset":6816,"byteLength":96,"target":34962},{"buffer":0,"byteOffset":6912,"byteLength":96,"target":34962},{"buffer":0,"byteOffset":7008,"byteLength":144,"target":34963},{"buffer":0,"byteOffset":7152,"byteLength":96,"target":34962},{"buffer":0,"byteOffset":7248,"byteLength":96,"target":34962},{"buffer":0,"byteOffset":7344,"byteLength":144,"target":34963},{"buffer":0,"byteOffset":7488,"byteLength":96,"target":34962},{"buffer":0,"byteOffset":7584,"byteLength":96,"target":34962},{"buffer":0,"byteOffset":7680,"byteLength":144,"target":34963},{"buffer":0,"byteOffset":7824,"byteLength":96,"target":34962},{"buffer":0,"byteOffset":7920,"byteLength":96,"target":34962},{"buffer":0,"byteOffset":8016,"byteLength":144,"target":34963},{"buffer":0,"byteOffset":8160,"byteLength":96,"target":34962},{"buffer":0,"byteOffset":8256,"byteLength":96,"target":34962},{"buffer":0,"byteOffset":8352,"byteLength":144,"target":34963},{"buffer":0,"byteOffset":8496,"byteLength":96,"target":34962},{"buffer":0,"byteOffset":8592,"byteLength":96,"target":34962},{"buffer":0,"byteOffset":8688,"byteLength":144,"target":34963},{"buffer":0,"byteOffset":8832,"byteLength":96,"target":34962},{"buffer":0,"byteOffset":8928,"byteLength":96,"target":34962},{"buffer":0,"byteOffset":9024,"byteLength":144,"target":34963},{"buffer":0,"byteOffset":9168,"byteLength":96,"target":34962},{"buffer":0,"byteOffset":9264,"byteLength":96,"target":34962},{"buffer":0,"byteOffset":9360,"byteLength":144,"target":34963},{"buffer":0,"byteOffset":9504,"byteLength":96,"target":34962},{"buffer":0,"byteOffset":9600,"byteLength":96,"target":34962},{"buffer":0,"byteOffset":9696,"byteLength":144,"target":34963},{"buffer":0,"byteOffset":9840,"byteLength":96,"target":34962},{"buffer":0,"byteOffset":9936,"byteLength":96,"target":34962},{"buffer":0,"byteOffset":10032,"byteLength":144,"target":34963},{"buffer":0,"byteOffset":10176,"byteLength":96,"target":34962},{"buffer":0,"byteOffset":10272,"byteLength":96,"target":34962},{"buffer":0,"byteOffset":10368,"byteLength":144,"target":34963},{"buffer":0,"byteOffset":10512,"byteLength":96,"target":34962},{"buffer":0,"byteOffset":10608,"byteLength":96,"target":34962},{"buffer":0,"byteOffset":10704,"byteLength":144,"target":34963},{"buffer":0,"byteOffset":10848,"byteLength":96,"target":34962},{"buffer":0,"byteOffset":10944,"byteLength":96,"target":34962},{"buffer":0,"byteOffset":11040,"byteLength":144,"target":34963},{"buffer":0,"byteOffset":11184,"byteLength":96,"target":34962},{"buffer":0,"byteOffset":11280,"byteLength":96,"target":34962},{"buffer":0,"byteOffset":11376,"byteLength":144,"target":34963},{"buffer":0,"byteOffset":11520,"byteLength":96,"target":34962},{"buffer":0,"byteOffset":11616,"byteLength":96,"target":34962},{"buffer":0,"byteOffset":11712,"byteLength":144,"target":34963},{"buffer":0,"byteOffset":11856,"byteLength":4608,"target":34962},{"buffer":0,"byteOffset":16464,"byteLength":4608,"target":34962},{"buffer":0,"byteOffset":21072,"byteLength":2304,"target":34963},{"buffer":0,"byteOffset":23376,"byteLength":96,"target":34962},{"buffer":0,"byteOffset":23472,"byteLength":96,"target":34962},{"buffer":0,"byteOffset":23568,"byteLength":144,"target":34963},{"buffer":0,"byteOffset":23712,"byteLength":4608,"target":34962},{"buffer":0,"byteOffset":28320,"byteLength":4608,"target":34962},{"buffer":0,"byteOffset":32928,"byteLength":2304,"target":34963},{"buffer":0,"byteOffset":35232,"byteLength":96,"target":34962},{"buffer":0,"byteOffset":35328,"byteLength":96,"target":34962},{"buffer":0,"byteOffset":35424,"byteLength":144,"target":34963},{"buffer":0,"byteOffset":35568,"byteLength":96,"target":34962},{"buffer":0,"byteOffset":35664,"byteLength":96,"target":34962},{"buffer":0,"byteOffset":35760,"byteLength":144,"target":34963},{"buffer":0,"byteOffset":35904,"byteLength":96,"target":34962},{"buffer":0,"byteOffset":36000,"byteLength":96,"target":34962},{"buffer":0,"byteOffset":36096,"byteLength":144,"target":34963},{"buffer":0,"byteOffset":36240,"byteLength":96,"target":34962},{"buffer":0,"byteOffset":36336,"byteLength":96,"target":34962},{"buffer":0,"byteOffset":36432,"byteLength":144,"target":34963},{"buffer":0,"byteOffset":36576,"byteLength":96,"target":34962},{"buffer":0,"byteOffset":36672,"byteLength":96,"target":34962},{"buffer":0,"byteOffset":36768,"byteLength":144,"target":34963},{"buffer":0,"byteOffset":36912,"byteLength":96,"target":34962},{"buffer":0,"byteOffset":37008,"byteLength":96,"target":34962},{"buffer":0,"byteOffset":37104,"byteLength":144,"target":34963},{"buffer":0,"byteOffset":37248,"byteLength":96,"target":34962},{"buffer":0,"byteOffset":37344,"byteLength":96,"target":34962},{"buffer":0,"byteOffset":37440,"byteLength":144,"target":34963},{"buffer":0,"byteOffset":37584,"byteLength":96,"target":34962},{"buffer":0,"byteOffset":37680,"byteLength":96,"target":34962},{"buffer":0,"byteOffset":37776,"byteLength":144,"target":34963},{"buffer":0,"byteOffset":37920,"byteLength":96,"target":34962},{"buffer":0,"byteOffset":38016,"byteLength":96,"target":34962},{"buffer":0,"byteOffset":38112,"byteLength":144,"target":34963},{"buffer":0,"byteOffset":38256,"byteLength":96,"target":34962},{"buffer":0,"byteOffset":38352,"byteLength":96,"target":34962},{"buffer":0,"byteOffset":38448,"byteLength":144,"target":34963},{"buffer":0,"byteOffset":38592,"byteLength":96,"target":34962},{"buffer":0,"byteOffset":38688,"byteLength":96,"target":34962},{"buffer":0,"byteOffset":38784,"byteLength":144,"target":34963},{"buffer":0,"byteOffset":38928,"byteLength":288,"target":34962},{"buffer":0,"byteOffset":39216,"byteLength":288,"target":34962},{"buffer":0,"byteOffset":39504,"byteLength":528,"target":34963},{"buffer":0,"byteOffset":40032,"byteLength":3072,"target":34962},{"buffer":0,"byteOffset":43104,"byteLength":3072,"target":34962},{"buffer":0,"byteOffset":46176,"byteLength":1536,"target":34963},{"buffer":0,"byteOffset":47712,"byteLength":96,"target":34962},{"buffer":0,"byteOffset":47808,"byteLength":96,"target":34962},{"buffer":0,"byteOffset":47904,"byteLength":144,"target":34963},{"buffer":0,"byteOffset":48048,"byteLength":96,"target":34962},{"buffer":0,"byteOffset":48144,"byteLength":96,"target":34962},{"buffer":0,"byteOffset":48240,"byteLength":144,"target":34963},{"buffer":0,"byteOffset":48384,"byteLength":288,"target":34962},{"buffer":0,"byteOffset":48672,"byteLength":288,"target":34962},{"buffer":0,"byteOffset":48960,"byteLength":528,"target":34963},{"buffer":0,"byteOffset":49488,"byteLength":3072,"target":34962},{"buffer":0,"byteOffset":52560,"byteLength":3072,"target":34962},{"buffer":0,"byteOffset":55632,"byteLength":1536,"target":34963},{"buffer":0,"byteOffset":57168,"byteLength":96,"target":34962},{"buffer":0,"byteOffset":57264,"byteLength":96,"target":34962},{"buffer":0,"byteOffset":57360,"byteLength":144,"target":34963},{"buffer":0,"byteOffset":57504,"byteLength":288,"target":34962},{"buffer":0,"byteOffset":57792,"byteLength":288,"target":34962},{"buffer":0,"byteOffset":58080,"byteLength":528,"target":34963},{"buffer":0,"byteOffset":58608,"byteLength":3072,"target":34962},{"buffer":0,"byteOffset":61680,"byteLength":3072,"target":34962},{"buffer":0,"byteOffset":64752,"byteLength":1536,"target":34963},{"buffer":0,"byteOffset":66288,"byteLength":4608,"target":34962},{"buffer":0,"byteOffset":70896,"byteLength":4608,"target":34962},{"buffer":0,"byteOffset":75504,"byteLength":2304,"target":34963},{"buffer":0,"byteOffset":77808,"byteLength":4608,"target":34962},{"buffer":0,"byteOffset":82416,"byteLength":4608,"target":34962},{"buffer":0,"byteOffset":87024,"byteLength":2304,"target":34963},{"buffer":0,"byteOffset":89328,"byteLength":2880,"target":34962},{"buffer":0,"byteOffset":92208,"byteLength":2880,"target":34962},{"buffer":0,"byteOffset":95088,"byteLength":4608,"target":34963},{"buffer":0,"byteOffset":99696,"byteLength":576,"target":34962},{"buffer":0,"byteOffset":100272,"byteLength":576,"target":34962},{"buffer":0,"byteOffset":100848,"byteLength":864,"target":34963},{"buffer":0,"byteOffset":101712,"byteLength":96,"target":34962},{"buffer":0,"byteOffset":101808,"byteLength":96,"target":34962},{"buffer":0,"byteOffset":101904,"byteLength":144,"target":34963},{"buffer":0,"byteOffset":102048,"byteLength":96,"target":34962},{"buffer":0,"byteOffset":102144,"byteLength":96,"target":34962},{"buffer":0,"byteOffset":102240,"byteLength":144,"target":34963},{"buffer":0,"byteOffset":102384,"byteLength":4608,"target":34962},{"buffer":0,"byteOffset":106992,"byteLength":4608,"target":34962},{"buffer":0,"byteOffset":111600,"byteLength":2304,"target":34963},{"buffer":0,"byteOffset":113904,"byteLength":4608,"target":34962},{"buffer":0,"byteOffset":118512,"byteLength":4608,"target":34962},{"buffer":0,"byteOffset":123120,"byteLength":2304,"target":34963},{"buffer":0,"byteOffset":125424,"byteLength":2880,"target":34962},{"buffer":0,"byteOffset":128304,"byteLength":2880,"target":34962},{"buffer":0,"byteOffset":131184,"byteLength":4608,"target":34963},{"buffer":0,"byteOffset":135792,"byteLength":576,"target":34962},{"buffer":0,"byteOffset":136368,"byteLength":576,"target":34962},{"buffer":0,"byteOffset":136944,"byteLength":864,"target":34963},{"buffer":0,"byteOffset":137808,"byteLength":96,"target":34962},{"buffer":0,"byteOffset":137904,"byteLength":96,"target":34962},{"buffer":0,"byteOffset":138000,"byteLength":144,"target":34963},{"buffer":0,"byteOffset":138144,"byteLength":96,"target":34962},{"buffer":0,"byteOffset":138240,"byteLength":96,"target":34962},{"buffer":0,"byteOffset":138336,"byteLength":144,"target":34963},{"buffer":0,"byteOffset":138480,"byteLength":4608,"target":34962},{"buffer":0,"byteOffset":143088,"byteLength":4608,"target":34962},{"buffer":0,"byteOffset":147696,"byteLength":2304,"target":34963},{"buffer":0,"byteOffset":150000,"byteLength":4608,"target":34962},{"buffer":0,"byteOffset":154608,"byteLength":4608,"target":34962},{"buffer":0,"byteOffset":159216,"byteLength":2304,"target":34963},{"buffer":0,"byteOffset":161520,"byteLength":2880,"target":34962},{"buffer":0,"byteOffset":164400,"byteLength":2880,"target":34962},{"buffer":0,"byteOffset":167280,"byteLength":4608,"target":34963},{"buffer":0,"byteOffset":171888,"byteLength":576,"target":34962},{"buffer":0,"byteOffset":172464,"byteLength":576,"target":34962},{"buffer":0,"byteOffset":173040,"byteLength":864,"target":34963},{"buffer":0,"byteOffset":173904,"byteLength":96,"target":34962},{"buffer":0,"byteOffset":174000,"byteLength":96,"target":34962},{"buffer":0,"byteOffset":174096,"byteLength":144,"target":34963},{"buffer":0,"byteOffset":174240,"byteLength":96,"target":34962},{"buffer":0,"byteOffset":174336,"byteLength":96,"target":34962},{"buffer":0,"byteOffset":174432,"byteLength":144,"target":34963},{"buffer":0,"byteOffset":174576,"byteLength":96,"target":34962},{"buffer":0,"byteOffset":174672,"byteLength":96,"target":34962},{"buffer":0,"byteOffset":174768,"byteLength":144,"target":34963},{"buffer":0,"byteOffset":174912,"byteLength":96,"target":34962},{"buffer":0,"byteOffset":175008,"byteLength":96,"target":34962},{"buffer":0,"byteOffset":175104,"byteLength":144,"target":34963},{"buffer":0,"byteOffset":175248,"byteLength":288,"target":34962},{"buffer":0,"byteOffset":175536,"byteLength":288,"target":34962},{"buffer":0,"byteOffset":175824,"byteLength":528,"target":34963},{"buffer":0,"byteOffset":176352,"byteLength":3072,"target":34962},{"buffer":0,"byteOffset":179424,"byteLength":3072,"target":34962},{"buffer":0,"byteOffset":182496,"byteLength":1536,"target":34963},{"buffer":0,"byteOffset":184032,"byteLength":96,"target":34962},{"buffer":0,"byteOffset":184128,"byteLength":96,"target":34962},{"buffer":0,"byteOffset":184224,"byteLength":144,"target":34963},{"buffer":0,"byteOffset":184368,"byteLength":96,"target":34962},{"buffer":0,"byteOffset":184464,"byteLength":96,"target":34962},{"buffer":0,"byteOffset":184560,"byteLength":144,"target":34963},{"buffer":0,"byteOffset":184704,"byteLength":288,"target":34962},{"buffer":0,"byteOffset":184992,"byteLength":288,"target":34962},{"buffer":0,"byteOffset":185280,"byteLength":528,"target":34963},{"buffer":0,"byteOffset":185808,"byteLength":3072,"target":34962},{"buffer":0,"byteOffset":188880,"byteLength":3072,"target":34962},{"buffer":0,"byteOffset":191952,"byteLength":1536,"target":34963},{"buffer":0,"byteOffset":193488,"byteLength":96,"target":34962},{"buffer":0,"byteOffset":193584,"byteLength":96,"target":34962},{"buffer":0,"byteOffset":193680,"byteLength":144,"target":34963},{"buffer":0,"byteOffset":193824,"byteLength":288,"target":34962},{"buffer":0,"byteOffset":194112,"byteLength":288,"target":34962},{"buffer":0,"byteOffset":194400,"byteLength":528,"target":34963},{"buffer":0,"byteOffset":194928,"byteLength":3072,"target":34962},{"buffer":0,"byteOffset":198000,"byteLength":3072,"target":34962},{"buffer":0,"byteOffset":201072,"byteLength":1536,"target":34963},{"buffer":0,"byteOffset":202608,"byteLength":4608,"target":34962},{"buffer":0,"byteOffset":207216,"byteLength":4608,"target":34962},{"buffer":0,"byteOffset":211824,"byteLength":2304,"target":34963},{"buffer":0,"byteOffset":214128,"byteLength":4608,"target":34962},{"buffer":0,"byteOffset":218736,"byteLength":4608,"target":34962},{"buffer":0,"byteOffset":223344,"byteLength":2304,"target":34963},{"buffer":0,"byteOffset":225648,"byteLength":2880,"target":34962},{"buffer":0,"byteOffset":228528,"byteLength":2880,"target":34962},{"buffer":0,"byteOffset":231408,"byteLength":4608,"target":34963},{"buffer":0,"byteOffset":236016,"byteLength":576,"target":34962},{"buffer":0,"byteOffset":236592,"byteLength":576,"target":34962},{"buffer":0,"byteOffset":237168,"byteLength":864,"target":34963},{"buffer":0,"byteOffset":238032,"byteLength":96,"target":34962},{"buffer":0,"byteOffset":238128,"byteLength":96,"target":34962},{"buffer":0,"byteOffset":238224,"byteLength":144,"target":34963},{"buffer":0,"byteOffset":238368,"byteLength":96,"target":34962},{"buffer":0,"byteOffset":238464,"byteLength":96,"target":34962},{"buffer":0,"byteOffset":238560,"byteLength":144,"target":34963},{"buffer":0,"byteOffset":238704,"byteLength":4608,"target":34962},{"buffer":0,"byteOffset":243312,"byteLength":4608,"target":34962},{"buffer":0,"byteOffset":247920,"byteLength":2304,"target":34963},{"buffer":0,"byteOffset":250224,"byteLength":4608,"target":34962},{"buffer":0,"byteOffset":254832,"byteLength":4608,"target":34962},{"buffer":0,"byteOffset":259440,"byteLength":2304,"target":34963},{"buffer":0,"byteOffset":261744,"byteLength":2880,"target":34962},{"buffer":0,"byteOffset":264624,"byteLength":2880,"target":34962},{"buffer":0,"byteOffset":267504,"byteLength":4608,"target":34963},{"buffer":0,"byteOffset":272112,"byteLength":576,"target":34962},{"buffer":0,"byteOffset":272688,"byteLength":576,"target":34962},{"buffer":0,"byteOffset":273264,"byteLength":864,"target":34963},{"buffer":0,"byteOffset":274128,"byteLength":96,"target":34962},{"buffer":0,"byteOffset":274224,"byteLength":96,"target":34962},{"buffer":0,"byteOffset":274320,"byteLength":144,"target":34963},{"buffer":0,"byteOffset":274464,"byteLength":96,"target":34962},{"buffer":0,"byteOffset":274560,"byteLength":96,"target":34962},{"buffer":0,"byteOffset":274656,"byteLength":144,"target":34963},{"buffer":0,"byteOffset":274800,"byteLength":4608,"target":34962},{"buffer":0,"byteOffset":279408,"byteLength":4608,"target":34962},{"buffer":0,"byteOffset":284016,"byteLength":2304,"target":34963},{"buffer":0,"byteOffset":286320,"byteLength":4608,"target":34962},{"buffer":0,"byteOffset":290928,"byteLength":4608,"target":34962},{"buffer":0,"byteOffset":295536,"byteLength":2304,"target":34963},{"buffer":0,"byteOffset":297840,"byteLength":2880,"target":34962},{"buffer":0,"byteOffset":300720,"byteLength":2880,"target":34962},{"buffer":0,"byteOffset":303600,"byteLength":4608,"target":34963},{"buffer":0,"byteOffset":308208,"byteLength":576,"target":34962},{"buffer":0,"byteOffset":308784,"byteLength":576,"target":34962},{"buffer":0,"byteOffset":309360,"byteLength":864,"target":34963},{"buffer":0,"byteOffset":310224,"byteLength":96,"target":34962},{"buffer":0,"byteOffset":310320,"byteLength":96,"target":34962},{"buffer":0,"byteOffset":310416,"byteLength":144,"target":34963},{"buffer":0,"byteOffset":310560,"byteLength":96,"target":34962},{"buffer":0,"byteOffset":310656,"byteLength":96,"target":34962},{"buffer":0,"byteOffset":310752,"byteLength":144,"target":34963},{"buffer":0,"byteOffset":310896,"byteLength":96,"target":34962},{"buffer":0,"byteOffset":310992,"byteLength":96,"target":34962},{"buffer":0,"byteOffset":311088,"byteLength":144,"target":34963},{"buffer":0,"byteOffset":311232,"byteLength":96,"target":34962},{"buffer":0,"byteOffset":311328,"byteLength":96,"target":34962},{"buffer":0,"byteOffset":311424,"byteLength":144,"target":34963},{"buffer":0,"byteOffset":311568,"byteLength":96,"target":34962},{"buffer":0,"byteOffset":311664,"byteLength":96,"target":34962},{"buffer":0,"byteOffset":311760,"byteLength":144,"target":34963},{"buffer":0,"byteOffset":311904,"byteLength":96,"target":34962},{"buffer":0,"byteOffset":312000,"byteLength":96,"target":34962},{"buffer":0,"byteOffset":312096,"byteLength":144,"target":34963},{"buffer":0,"byteOffset":312240,"byteLength":20,"target":34962},{"buffer":0,"byteOffset":312260,"byteLength":80,"target":34962},{"buffer":0,"byteOffset":312340,"byteLength":20,"target":34962},{"buffer":0,"byteOffset":312360,"byteLength":80,"target":34962},{"buffer":0,"byteOffset":312440,"byteLength":20,"target":34962},{"buffer":0,"byteOffset":312460,"byteLength":80,"target":34962},{"buffer":0,"byteOffset":312540,"byteLength":20,"target":34962},{"buffer":0,"byteOffset":312560,"byteLength":80,"target":34962},{"buffer":0,"byteOffset":312640,"byteLength":20,"target":34962},{"buffer":0,"byteOffset":312660,"byteLength":80,"target":34962},{"buffer":0,"byteOffset":312740,"byteLength":20,"target":34962},{"buffer":0,"byteOffset":312760,"byteLength":80,"target":34962},{"buffer":0,"byteOffset":312840,"byteLength":8,"target":34962},{"buffer":0,"byteOffset":312848,"byteLength":32,"target":34962},{"buffer":0,"byteOffset":312880,"byteLength":8,"target":34962},{"buffer":0,"byteOffset":312888,"byteLength":32,"target":34962},{"buffer":0,"byteOffset":312920,"byteLength":8,"target":34962},{"buffer":0,"byteOffset":312928,"byteLength":32,"target":34962},{"buffer":0,"byteOffset":312960,"byteLength":8,"target":34962},{"buffer":0,"byteOffset":312968,"byteLength":32,"target":34962}],"buffers":[{"byteLength":313000,"uri":"tuoyun-r1.bin"}]}