{"asset":{"version":"2.0","generator":"yudian ART-F02-GEO generate_processor_r1.py (Blender bmesh bevel / stdlib export, original rev5 sample)"},"scene":0,"scenes":[{"name":"Scene","nodes":[0]}],"nodes":[{"name":"processor-r1","translation":[0.0,0.0,0.0],"children":[1]},{"name":"Model","translation":[0,0,0],"children":[2,3,4,5,6,7,8,9,10,11,12,13,14,15,16,17,18,19,20,21,22]},{"name":"Base","translation":[0,0,0],"mesh":0},{"name":"Chamber","translation":[0,0,0],"mesh":1},{"name":"PressGuide","translation":[0,0,0],"mesh":2},{"name":"PressRam","translation":[1.315,1.9,0.0],"mesh":3},{"name":"FeedBed","translation":[0,0,0],"mesh":4},{"name":"FeedGate","translation":[0.0,0.5,-0.84],"mesh":5},{"name":"Gantry","translation":[0,0,0],"mesh":6},{"name":"StopGate","translation":[0.0,1.75,-2.29],"mesh":7},{"name":"OutputRack","translation":[0,0,0],"mesh":8},{"name":"ServicePort","translation":[0,0,0],"mesh":9},{"name":"PowerPort","translation":[0,0,0],"mesh":10},{"name":"DustCollar","translation":[0,0,0],"mesh":11},{"name":"ElectronicsInnerCover","translation":[0,0,0],"mesh":12},{"name":"HeatPanel","translation":[0,0,0],"mesh":13},{"name":"ServiceCover","translation":[-1.17,1.6,0.9],"mesh":14},{"name":"InputCrate","translation":[0,0.48,-1.55],"mesh":15},{"name":"OutputCrate","translation":[0,0.48,1.65],"mesh":16},{"name":"Socket_Input","translation":[0.0,0.48,-2.2],"extras":{"kind":"socket","forward":[0.0,0.0,-1.0],"up":[0,1,0]}},{"name":"Socket_Output","translation":[0.0,0.48,2.2],"extras":{"kind":"socket","forward":[0.0,0.0,1.0],"up":[0,1,0]},"rotation":[0.0,1.0,0.0,0.0]},{"name":"Socket_PowerIn","translation":[1.6,0.35,0.0],"extras":{"kind":"socket","forward":[1.0,0.0,0.0],"up":[0,1,0]},"rotation":[0.0,-0.7071067811865476,0.0,0.7071067811865476]},{"name":"Socket_Service","translation":[-1.3,1.0,0.4],"extras":{"kind":"socket","forward":[-1.0,0.0,0.0],"up":[0,1,0]},"rotation":[0.0,0.7071067811865476,0.0,0.7071067811865476]}],"meshes":[{"name":"Base","primitives":[{"attributes":{"POSITION":0,"NORMAL":1},"indices":2,"material":0,"mode":4}]},{"name":"Chamber","primitives":[{"attributes":{"POSITION":3,"NORMAL":4},"indices":5,"material":0,"mode":4},{"attributes":{"POSITION":6,"NORMAL":7},"indices":8,"material":1,"mode":4},{"attributes":{"POSITION":9,"NORMAL":10},"indices":11,"material":2,"mode":4}]},{"name":"PressGuide","primitives":[{"attributes":{"POSITION":12,"NORMAL":13},"indices":14,"material":0,"mode":4}]},{"name":"PressRam","primitives":[{"attributes":{"POSITION":15,"NORMAL":16},"indices":17,"material":0,"mode":4},{"attributes":{"POSITION":18,"NORMAL":19},"indices":20,"material":1,"mode":4},{"attributes":{"POSITION":21,"NORMAL":22},"indices":23,"material":2,"mode":4}]},{"name":"FeedBed","primitives":[{"attributes":{"POSITION":24,"NORMAL":25},"indices":26,"material":0,"mode":4},{"attributes":{"POSITION":27,"NORMAL":28},"indices":29,"material":1,"mode":4}]},{"name":"FeedGate","primitives":[{"attributes":{"POSITION":30,"NORMAL":31},"indices":32,"material":0,"mode":4},{"attributes":{"POSITION":33,"NORMAL":34},"indices":35,"material":1,"mode":4}]},{"name":"Gantry","primitives":[{"attributes":{"POSITION":36,"NORMAL":37},"indices":38,"material":0,"mode":4}]},{"name":"StopGate","primitives":[{"attributes":{"POSITION":39,"NORMAL":40},"indices":41,"material":0,"mode":4},{"attributes":{"POSITION":42,"NORMAL":43},"indices":44,"material":2,"mode":4}]},{"name":"OutputRack","primitives":[{"attributes":{"POSITION":45,"NORMAL":46},"indices":47,"material":0,"mode":4},{"attributes":{"POSITION":48,"NORMAL":49},"indices":50,"material":1,"mode":4}]},{"name":"ServicePort","primitives":[{"attributes":{"POSITION":51,"NORMAL":52},"indices":53,"material":0,"mode":4},{"attributes":{"POSITION":54,"NORMAL":55},"indices":56,"material":2,"mode":4}]},{"name":"PowerPort","primitives":[{"attributes":{"POSITION":57,"NORMAL":58},"indices":59,"material":0,"mode":4},{"attributes":{"POSITION":60,"NORMAL":61},"indices":62,"material":2,"mode":4}]},{"name":"DustCollar","primitives":[{"attributes":{"POSITION":63,"NORMAL":64},"indices":65,"material":0,"mode":4},{"attributes":{"POSITION":66,"NORMAL":67},"indices":68,"material":1,"mode":4}]},{"name":"ElectronicsInnerCover","primitives":[{"attributes":{"POSITION":69,"NORMAL":70},"indices":71,"material":0,"mode":4},{"attributes":{"POSITION":72,"NORMAL":73},"indices":74,"material":1,"mode":4}]},{"name":"HeatPanel","primitives":[{"attributes":{"POSITION":75,"NORMAL":76},"indices":77,"material":0,"mode":4},{"attributes":{"POSITION":78,"NORMAL":79},"indices":80,"material":1,"mode":4}]},{"name":"ServiceCover","primitives":[{"attributes":{"POSITION":81,"NORMAL":82},"indices":83,"material":1,"mode":4},{"attributes":{"POSITION":84,"NORMAL":85},"indices":86,"material":2,"mode":4}]},{"name":"InputCrate","primitives":[{"attributes":{"POSITION":87,"NORMAL":88},"indices":89,"material":0,"mode":4},{"attributes":{"POSITION":90,"NORMAL":91},"indices":92,"material":1,"mode":4}]},{"name":"OutputCrate","primitives":[{"attributes":{"POSITION":93,"NORMAL":94},"indices":95,"material":0,"mode":4},{"attributes":{"POSITION":96,"NORMAL":97},"indices":98,"material":1,"mode":4}]}],"animations":[{"name":"work-loop","channels":[{"sampler":0,"target":{"node":5,"path":"translation"}},{"sampler":1,"target":{"node":7,"path":"rotation"}}],"samplers":[{"input":99,"output":100,"interpolation":"LINEAR"},{"input":99,"output":101,"interpolation":"LINEAR"}],"extras":{"loop":true,"duration_s":2.0}},{"name":"disabled","channels":[{"sampler":0,"target":{"node":9,"path":"translation"}}],"samplers":[{"input":102,"output":103,"interpolation":"LINEAR"}],"extras":{"loop":false,"duration_s":1.0}},{"name":"maintenance","channels":[{"sampler":0,"target":{"node":16,"path":"rotation"}}],"samplers":[{"input":104,"output":105,"interpolation":"LINEAR"}],"extras":{"loop":false,"duration_s":1.0}}],"materials":[{"name":"frame_dark","pbrMetallicRoughness":{"baseColorFactor":[0.0401,0.0578,0.0694,1.0],"metallicFactor":0.2,"roughnessFactor":0.75}},{"name":"body_light","pbrMetallicRoughness":{"baseColorFactor":[0.6818,0.714,0.6718,1.0],"metallicFactor":0.0,"roughnessFactor":0.65}},{"name":"accent_warm","pbrMetallicRoughness":{"baseColorFactor":[0.6712,0.1975,0.048,1.0],"metallicFactor":0.0,"roughnessFactor":0.6}}],"accessors":[{"bufferView":0,"componentType":5126,"count":96,"type":"VEC3","min":[-1.8,0.0,-2.4000000000000004],"max":[1.8,0.24000000000000002,2.4]},{"bufferView":1,"componentType":5126,"count":96,"type":"VEC3","min":[-0.5962847939999437,-0.999826693589158,-0.5962847939999437],"max":[0.36514837167011055,0.9999226574997959,0.36514837167011055]},{"bufferView":2,"componentType":5125,"count":432,"type":"SCALAR","min":[0],"max":[95]},{"bufferView":3,"componentType":5126,"count":792,"type":"VEC3","min":[-1.15,0.2,-0.8],"max":[1.15,2.4,1.0]},{"bufferView":4,"componentType":5126,"count":792,"type":"VEC3","min":[-1.0,-1.0,-1.0],"max":[1.0,1.0,1.0]},{"bufferView":5,"componentType":5125,"count":792,"type":"SCALAR","min":[0],"max":[791]},{"bufferView":6,"componentType":5126,"count":540,"type":"VEC3","min":[-1.1500000000000001,1.1,-0.8],"max":[1.1500000000000001,2.4,1.0]},{"bufferView":7,"componentType":5126,"count":540,"type":"VEC3","min":[-1.0,-1.0,-1.0],"max":[1.0,1.0,1.0]},{"bufferView":8,"componentType":5125,"count":540,"type":"SCALAR","min":[0],"max":[539]},{"bufferView":9,"componentType":5126,"count":36,"type":"VEC3","min":[-1.0,1.14,1.0],"max":[1.0,1.24,1.012]},{"bufferView":10,"componentType":5126,"count":36,"type":"VEC3","min":[-1.0,-1.0,-1.0],"max":[1.0,1.0,1.0]},{"bufferView":11,"componentType":5125,"count":36,"type":"SCALAR","min":[0],"max":[35]},{"bufferView":12,"componentType":5126,"count":1320,"type":"VEC3","min":[0.81,0.16,0.16],"max":[1.68,2.4,1.81]},{"bufferView":13,"componentType":5126,"count":1320,"type":"VEC3","min":[-1.0,-1.0,-1.0],"max":[1.0,1.0,1.0]},{"bufferView":14,"componentType":5125,"count":1320,"type":"SCALAR","min":[0],"max":[1319]},{"bufferView":15,"componentType":5126,"count":528,"type":"VEC3","min":[-0.475,-1.0499999999999998,0.19],"max":[0.18500000000000005,0.30000000000000027,1.6]},{"bufferView":16,"componentType":5126,"count":528,"type":"VEC3","min":[-1.0,-1.0,-1.0],"max":[1.0,1.0,1.0]},{"bufferView":17,"componentType":5125,"count":528,"type":"SCALAR","min":[0],"max":[527]},{"bufferView":18,"componentType":5126,"count":132,"type":"VEC3","min":[0.18500000000000005,-0.2999999999999998,0.8],"max":[0.30500000000000016,0.30000000000000027,1.6]},{"bufferView":19,"componentType":5126,"count":132,"type":"VEC3","min":[-1.0,-1.0,-1.0],"max":[1.0,1.0,1.0]},{"bufferView":20,"componentType":5125,"count":132,"type":"SCALAR","min":[0],"max":[131]},{"bufferView":21,"componentType":5126,"count":132,"type":"VEC3","min":[-0.08499999999999996,-0.2999999999999998,0.8],"max":[0.30500000000000016,-0.21999999999999997,1.6]},{"bufferView":22,"componentType":5126,"count":132,"type":"VEC3","min":[-1.0,-1.0,-1.0],"max":[1.0,1.0,1.0]},{"bufferView":23,"componentType":5125,"count":132,"type":"SCALAR","min":[0],"max":[131]},{"bufferView":24,"componentType":5126,"count":144,"type":"VEC3","min":[-0.6,0.19999999999999998,-2.4000000000000004],"max":[0.6,0.42,-0.8]},{"bufferView":25,"componentType":5126,"count":144,"type":"VEC3","min":[-1.0,-1.0,-1.0],"max":[1.0,1.0,1.0]},{"bufferView":26,"componentType":5125,"count":144,"type":"SCALAR","min":[0],"max":[143]},{"bufferView":27,"componentType":5126,"count":180,"type":"VEC3","min":[-0.6,0.42000000000000004,-2.36],"max":[0.6,0.48,-0.84]},{"bufferView":28,"componentType":5126,"count":180,"type":"VEC3","min":[-1.0,-1.0,-1.0],"max":[1.0,1.0,1.0]},{"bufferView":29,"componentType":5125,"count":180,"type":"SCALAR","min":[0],"max":[179]},{"bufferView":30,"componentType":5126,"count":32,"type":"VEC3","min":[-0.545,0.0,-0.050000000000000044],"max":[0.545,0.48,0.030000000000000027]},{"bufferView":31,"componentType":5126,"count":32,"type":"VEC3","min":[-0.8177741679129437,-0.904431263292269,-0.9406111254367807],"max":[0.8134471623896903,0.9523809523809523,0.9372430515208963]},{"bufferView":32,"componentType":5125,"count":144,"type":"SCALAR","min":[0],"max":[31]},{"bufferView":33,"componentType":5126,"count":8,"type":"VEC3","min":[-0.55,0.0,-0.020000000000000018],"max":[0.55,0.48,0.020000000000000018]},{"bufferView":34,"componentType":5126,"count":8,"type":"VEC3","min":[-0.07228645144403337,-0.1639775895623173,-0.9989682541369574],"max":[0.07155385726355663,0.16429333336135357,0.9963822161929328]},{"bufferView":35,"componentType":5125,"count":36,"type":"SCALAR","min":[0],"max":[7]},{"bufferView":36,"componentType":5126,"count":24,"type":"VEC3","min":[-0.68,0.19999999999999996,-2.36],"max":[0.68,2.4,-2.1999999999999997]},{"bufferView":37,"componentType":5126,"count":24,"type":"VEC3","min":[-0.9699670238726456,-0.8895160917494283,-0.8931917937376475],"max":[0.9694411658165806,0.8931917937376475,0.7064958896848753]},{"bufferView":38,"componentType":5125,"count":108,"type":"SCALAR","min":[0],"max":[23]},{"bufferView":39,"componentType":5126,"count":8,"type":"VEC3","min":[-0.58,-0.44999999999999996,-0.020000000000000018],"max":[0.58,0.4500000000000002,0.020000000000000018]},{"bufferView":40,"componentType":5126,"count":8,"type":"VEC3","min":[-0.06873456015851935,-0.08833161902736231,-0.9996046883700315],"max":[0.06853315269364318,0.0884876095163357,0.9988656461601261]},{"bufferView":41,"componentType":5125,"count":36,"type":"SCALAR","min":[0],"max":[7]},{"bufferView":42,"componentType":5126,"count":48,"type":"VEC3","min":[-0.4990990257669731,-0.1590990257669731,-0.04400000000000004],"max":[0.4990990257669731,0.1590990257669731,0.04400000000000004]},{"bufferView":43,"componentType":5126,"count":48,"type":"VEC3","min":[-0.5198131326881064,-0.4268857047954158,-0.9719738231534872],"max":[0.5488530490226767,0.45865864648950605,0.9011935199588486]},{"bufferView":44,"componentType":5125,"count":216,"type":"SCALAR","min":[0],"max":[47]},{"bufferView":45,"componentType":5126,"count":56,"type":"VEC3","min":[-0.45,0.2,1.0],"max":[0.45,0.44,2.4]},{"bufferView":46,"componentType":5126,"count":56,"type":"VEC3","min":[-0.882829589295641,-0.9949366763261821,-0.9829306286644103],"max":[0.8505691403297652,0.9950120588831206,0.9389747054313068]},{"bufferView":47,"componentType":5125,"count":252,"type":"SCALAR","min":[0],"max":[55]},{"bufferView":48,"componentType":5126,"count":24,"type":"VEC3","min":[-0.44999999999999996,0.44,1.0],"max":[0.44999999999999996,0.48000000000000004,2.4]},{"bufferView":49,"componentType":5126,"count":24,"type":"VEC3","min":[-0.387922531134911,-0.9976470424790543,-0.05661066234419043],"max":[0.2059903546801655,0.9979511481201901,0.028504201213687293]},{"bufferView":50,"componentType":5125,"count":108,"type":"SCALAR","min":[0],"max":[23]},{"bufferView":51,"componentType":5126,"count":8,"type":"VEC3","min":[-1.28,0.86,0.25],"max":[-1.1500000000000001,1.1400000000000001,0.55]},{"bufferView":52,"componentType":5126,"count":8,"type":"VEC3","min":[-0.9531010207291298,-0.5744021125299285,-0.6179966044142613],"max":[0.8899863208539246,0.6485388306575743,0.5361086383612668]},{"bufferView":53,"componentType":5125,"count":36,"type":"SCALAR","min":[0],"max":[7]},{"bufferView":54,"componentType":5126,"count":8,"type":"VEC3","min":[-1.3,0.9,0.29000000000000004],"max":[-1.28,1.1,0.51]},{"bufferView":55,"componentType":5126,"count":8,"type":"VEC3","min":[-0.9977247310466053,-0.19307161412900226,-0.17802586814790555],"max":[0.9940209955881698,0.19534152062858662,0.17551964920818397]},{"bufferView":56,"componentType":5125,"count":36,"type":"SCALAR","min":[0],"max":[7]},{"bufferView":57,"componentType":5126,"count":8,"type":"VEC3","min":[1.15,0.26999999999999996,-0.1],"max":[1.58,0.43,0.1]},{"bufferView":58,"componentType":5126,"count":8,"type":"VEC3","min":[-0.5024371374057094,-0.8775802613871594,-0.8319743131333729],"max":[0.32654149260917553,0.9149267521347213,0.6182052919096824]},{"bufferView":59,"componentType":5125,"count":36,"type":"SCALAR","min":[0],"max":[7]},{"bufferView":60,"componentType":5126,"count":8,"type":"VEC3","min":[1.58,0.22999999999999998,-0.14],"max":[1.6,0.47,0.14]},{"bufferView":61,"componentType":5126,"count":8,"type":"VEC3","min":[-0.9984975820275063,-0.16279069767441873,-0.14094257319619238],"max":[0.9959151882218734,0.1639924498275427,0.13953488372093031]},{"bufferView":62,"componentType":5125,"count":36,"type":"SCALAR","min":[0],"max":[7]},{"bufferView":63,"componentType":5126,"count":8,"type":"VEC3","min":[-0.66,1.1099999999999999,-1.02],"max":[0.66,1.17,-0.8]},{"bufferView":64,"componentType":5126,"count":8,"type":"VEC3","min":[-0.08737040566610386,-0.9898267954648646,-0.47847133369734035],"max":[0.04499212706658479,0.9905790388632171,0.2630541792128489]},{"bufferView":65,"componentType":5125,"count":36,"type":"SCALAR","min":[0],"max":[7]},{"bufferView":66,"componentType":5126,"count":16,"type":"VEC3","min":[-0.665,0.39,-1.02],"max":[0.665,1.1099999999999999,-0.8]},{"bufferView":67,"componentType":5126,"count":16,"type":"VEC3","min":[-0.9930144565593912,-0.12544105012517723,-0.41297848036518797],"max":[0.9912483650842329,0.13420982870670528,0.41053434586421633]},{"bufferView":68,"componentType":5125,"count":72,"type":"SCALAR","min":[0],"max":[15]},{"bufferView":69,"componentType":5126,"count":8,"type":"VEC3","min":[-1.0575,1.4200000000000002,0.07999999999999996],"max":[-1.04,1.8,0.62]},{"bufferView":70,"componentType":5126,"count":8,"type":"VEC3","min":[-0.9996038499104644,-0.09152661497931991,-0.06461090778919121],"max":[0.9988104235653428,0.09166932944385438,0.06440761794841028]},{"bufferView":71,"componentType":5125,"count":36,"type":"SCALAR","min":[0],"max":[7]},{"bufferView":72,"componentType":5126,"count":8,"type":"VEC3","min":[-1.0825,1.4200000000000002,0.07999999999999996],"max":[-1.0575,1.8,0.62]},{"bufferView":73,"componentType":5126,"count":8,"type":"VEC3","min":[-0.9991920300418569,-0.12990826120470497,-0.0920010124550504],"max":[0.9975767906544789,0.13031730394519786,0.09141692455145901]},{"bufferView":74,"componentType":5125,"count":36,"type":"SCALAR","min":[0],"max":[7]},{"bufferView":75,"componentType":5126,"count":8,"type":"VEC3","min":[1.15,1.52,0.62],"max":[1.1724999999999999,1.88,0.7799999999999999]},{"bufferView":76,"componentType":5126,"count":8,"type":"VEC3","min":[-0.9970528746278772,-0.11946953821789964,-0.2702568660921916],"max":[0.9956041078039365,0.12284453783666054,0.2688064609902742]},{"bufferView":77,"componentType":5125,"count":36,"type":"SCALAR","min":[0],"max":[7]},{"bufferView":78,"componentType":5126,"count":8,"type":"VEC3","min":[1.1725,1.4249999999999998,0.59],"max":[1.1975,1.975,0.8099999999999999]},{"bufferView":79,"componentType":5126,"count":8,"type":"VEC3","min":[-0.9981328252068637,-0.08830215713766926,-0.22140372138502312],"max":[0.9973632546798007,0.0899614934766439,0.22075539284417328]},{"bufferView":80,"componentType":5125,"count":36,"type":"SCALAR","min":[0],"max":[7]},{"bufferView":81,"componentType":5126,"count":8,"type":"VEC3","min":[-0.020000000000000018,-0.3999999999999999,-1.1],"max":[0.020000000000000018,0.3999999999999999,0.0]},{"bufferView":82,"componentType":5126,"count":8,"type":"VEC3","min":[-0.9995225528952121,-0.09924419302614068,-0.07244567108413734],"max":[0.998587708239613,0.09943864668900308,0.07217759492810229]},{"bufferView":83,"componentType":5125,"count":36,"type":"SCALAR","min":[0],"max":[7]},{"bufferView":84,"componentType":5126,"count":8,"type":"VEC3","min":[-0.040000000000000036,-0.3599999999999999,-0.91],"max":[-0.020000000000000018,0.3599999999999999,-0.85]},{"bufferView":85,"componentType":5126,"count":8,"type":"VEC3","min":[-0.9863013698630136,-0.04617570965396107,-0.5545520984529393],"max":[0.986023864196598,0.05263157894736849,0.5541085158475322]},{"bufferView":86,"componentType":5125,"count":36,"type":"SCALAR","min":[0],"max":[7]},{"bufferView":87,"componentType":5126,"count":108,"type":"VEC3","min":[-0.32,5.551115123125783e-17,-0.34999999999999987],"max":[0.32,0.38,0.34999999999999987]},{"bufferView":88,"componentType":5126,"count":108,"type":"VEC3","min":[-1.0,-1.0,-1.0],"max":[1.0,1.0,1.0]},{"bufferView":89,"componentType":5125,"count":108,"type":"SCALAR","min":[0],"max":[107]},{"bufferView":90,"componentType":5126,"count":72,"type":"VEC3","min":[-0.30000000000000004,0.12,-0.33000000000000007],"max":[0.30000000000000004,0.31999999999999995,0.33000000000000007]},{"bufferView":91,"componentType":5126,"count":72,"type":"VEC3","min":[-1.0,-1.0,-1.0],"max":[1.0,1.0,1.0]},{"bufferView":92,"componentType":5125,"count":72,"type":"SCALAR","min":[0],"max":[71]},{"bufferView":93,"componentType":5126,"count":108,"type":"VEC3","min":[-0.32,5.551115123125783e-17,-0.3500000000000001],"max":[0.32,0.38,0.3500000000000001]},{"bufferView":94,"componentType":5126,"count":108,"type":"VEC3","min":[-1.0,-1.0,-1.0],"max":[1.0,1.0,1.0]},{"bufferView":95,"componentType":5125,"count":108,"type":"SCALAR","min":[0],"max":[107]},{"bufferView":96,"componentType":5126,"count":72,"type":"VEC3","min":[-0.30000000000000004,0.12,-0.33000000000000007],"max":[0.30000000000000004,0.31999999999999995,0.33000000000000007]},{"bufferView":97,"componentType":5126,"count":72,"type":"VEC3","min":[-1.0,-1.0,-1.0],"max":[1.0,1.0,1.0]},{"bufferView":98,"componentType":5125,"count":72,"type":"SCALAR","min":[0],"max":[71]},{"bufferView":99,"componentType":5126,"count":9,"type":"SCALAR","min":[0.0],"max":[2.0]},{"bufferView":100,"componentType":5126,"count":9,"type":"VEC3","min":[1.315,1.55,0.0],"max":[1.315,1.9,0.0]},{"bufferView":101,"componentType":5126,"count":9,"type":"VEC4","min":[0.0,0.0,0.0,0.9762960071199334],"max":[0.21643961393810288,0.0,0.0,1.0]},{"bufferView":102,"componentType":5126,"count":2,"type":"SCALAR","min":[0.0],"max":[1.0]},{"bufferView":103,"componentType":5126,"count":2,"type":"VEC3","min":[0.0,0.95,-2.29],"max":[0.0,1.75,-2.29]},{"bufferView":104,"componentType":5126,"count":2,"type":"SCALAR","min":[0.0],"max":[1.0]},{"bufferView":105,"componentType":5126,"count":2,"type":"VEC4","min":[0.0,0.0,0.0,0.8191520442889918],"max":[0.0,0.573576436351046,0.0,1.0]}],"bufferViews":[{"buffer":0,"byteOffset":0,"byteLength":1152,"target":34962},{"buffer":0,"byteOffset":1152,"byteLength":1152,"target":34962},{"buffer":0,"byteOffset":2304,"byteLength":1728,"target":34963},{"buffer":0,"byteOffset":4032,"byteLength":9504,"target":34962},{"buffer":0,"byteOffset":13536,"byteLength":9504,"target":34962},{"buffer":0,"byteOffset":23040,"byteLength":3168,"target":34963},{"buffer":0,"byteOffset":26208,"byteLength":6480,"target":34962},{"buffer":0,"byteOffset":32688,"byteLength":6480,"target":34962},{"buffer":0,"byteOffset":39168,"byteLength":2160,"target":34963},{"buffer":0,"byteOffset":41328,"byteLength":432,"target":34962},{"buffer":0,"byteOffset":41760,"byteLength":432,"target":34962},{"buffer":0,"byteOffset":42192,"byteLength":144,"target":34963},{"buffer":0,"byteOffset":42336,"byteLength":15840,"target":34962},{"buffer":0,"byteOffset":58176,"byteLength":15840,"target":34962},{"buffer":0,"byteOffset":74016,"byteLength":5280,"target":34963},{"buffer":0,"byteOffset":79296,"byteLength":6336,"target":34962},{"buffer":0,"byteOffset":85632,"byteLength":6336,"target":34962},{"buffer":0,"byteOffset":91968,"byteLength":2112,"target":34963},{"buffer":0,"byteOffset":94080,"byteLength":1584,"target":34962},{"buffer":0,"byteOffset":95664,"byteLength":1584,"target":34962},{"buffer":0,"byteOffset":97248,"byteLength":528,"target":34963},{"buffer":0,"byteOffset":97776,"byteLength":1584,"target":34962},{"buffer":0,"byteOffset":99360,"byteLength":1584,"target":34962},{"buffer":0,"byteOffset":100944,"byteLength":528,"target":34963},{"buffer":0,"byteOffset":101472,"byteLength":1728,"target":34962},{"buffer":0,"byteOffset":103200,"byteLength":1728,"target":34962},{"buffer":0,"byteOffset":104928,"byteLength":576,"target":34963},{"buffer":0,"byteOffset":105504,"byteLength":2160,"target":34962},{"buffer":0,"byteOffset":107664,"byteLength":2160,"target":34962},{"buffer":0,"byteOffset":109824,"byteLength":720,"target":34963},{"buffer":0,"byteOffset":110544,"byteLength":384,"target":34962},{"buffer":0,"byteOffset":110928,"byteLength":384,"target":34962},{"buffer":0,"byteOffset":111312,"byteLength":576,"target":34963},{"buffer":0,"byteOffset":111888,"byteLength":96,"target":34962},{"buffer":0,"byteOffset":111984,"byteLength":96,"target":34962},{"buffer":0,"byteOffset":112080,"byteLength":144,"target":34963},{"buffer":0,"byteOffset":112224,"byteLength":288,"target":34962},{"buffer":0,"byteOffset":112512,"byteLength":288,"target":34962},{"buffer":0,"byteOffset":112800,"byteLength":432,"target":34963},{"buffer":0,"byteOffset":113232,"byteLength":96,"target":34962},{"buffer":0,"byteOffset":113328,"byteLength":96,"target":34962},{"buffer":0,"byteOffset":113424,"byteLength":144,"target":34963},{"buffer":0,"byteOffset":113568,"byteLength":576,"target":34962},{"buffer":0,"byteOffset":114144,"byteLength":576,"target":34962},{"buffer":0,"byteOffset":114720,"byteLength":864,"target":34963},{"buffer":0,"byteOffset":115584,"byteLength":672,"target":34962},{"buffer":0,"byteOffset":116256,"byteLength":672,"target":34962},{"buffer":0,"byteOffset":116928,"byteLength":1008,"target":34963},{"buffer":0,"byteOffset":117936,"byteLength":288,"target":34962},{"buffer":0,"byteOffset":118224,"byteLength":288,"target":34962},{"buffer":0,"byteOffset":118512,"byteLength":432,"target":34963},{"buffer":0,"byteOffset":118944,"byteLength":96,"target":34962},{"buffer":0,"byteOffset":119040,"byteLength":96,"target":34962},{"buffer":0,"byteOffset":119136,"byteLength":144,"target":34963},{"buffer":0,"byteOffset":119280,"byteLength":96,"target":34962},{"buffer":0,"byteOffset":119376,"byteLength":96,"target":34962},{"buffer":0,"byteOffset":119472,"byteLength":144,"target":34963},{"buffer":0,"byteOffset":119616,"byteLength":96,"target":34962},{"buffer":0,"byteOffset":119712,"byteLength":96,"target":34962},{"buffer":0,"byteOffset":119808,"byteLength":144,"target":34963},{"buffer":0,"byteOffset":119952,"byteLength":96,"target":34962},{"buffer":0,"byteOffset":120048,"byteLength":96,"target":34962},{"buffer":0,"byteOffset":120144,"byteLength":144,"target":34963},{"buffer":0,"byteOffset":120288,"byteLength":96,"target":34962},{"buffer":0,"byteOffset":120384,"byteLength":96,"target":34962},{"buffer":0,"byteOffset":120480,"byteLength":144,"target":34963},{"buffer":0,"byteOffset":120624,"byteLength":192,"target":34962},{"buffer":0,"byteOffset":120816,"byteLength":192,"target":34962},{"buffer":0,"byteOffset":121008,"byteLength":288,"target":34963},{"buffer":0,"byteOffset":121296,"byteLength":96,"target":34962},{"buffer":0,"byteOffset":121392,"byteLength":96,"target":34962},{"buffer":0,"byteOffset":121488,"byteLength":144,"target":34963},{"buffer":0,"byteOffset":121632,"byteLength":96,"target":34962},{"buffer":0,"byteOffset":121728,"byteLength":96,"target":34962},{"buffer":0,"byteOffset":121824,"byteLength":144,"target":34963},{"buffer":0,"byteOffset":121968,"byteLength":96,"target":34962},{"buffer":0,"byteOffset":122064,"byteLength":96,"target":34962},{"buffer":0,"byteOffset":122160,"byteLength":144,"target":34963},{"buffer":0,"byteOffset":122304,"byteLength":96,"target":34962},{"buffer":0,"byteOffset":122400,"byteLength":96,"target":34962},{"buffer":0,"byteOffset":122496,"byteLength":144,"target":34963},{"buffer":0,"byteOffset":122640,"byteLength":96,"target":34962},{"buffer":0,"byteOffset":122736,"byteLength":96,"target":34962},{"buffer":0,"byteOffset":122832,"byteLength":144,"target":34963},{"buffer":0,"byteOffset":122976,"byteLength":96,"target":34962},{"buffer":0,"byteOffset":123072,"byteLength":96,"target":34962},{"buffer":0,"byteOffset":123168,"byteLength":144,"target":34963},{"buffer":0,"byteOffset":123312,"byteLength":1296,"target":34962},{"buffer":0,"byteOffset":124608,"byteLength":1296,"target":34962},{"buffer":0,"byteOffset":125904,"byteLength":432,"target":34963},{"buffer":0,"byteOffset":126336,"byteLength":864,"target":34962},{"buffer":0,"byteOffset":127200,"byteLength":864,"target":34962},{"buffer":0,"byteOffset":128064,"byteLength":288,"target":34963},{"buffer":0,"byteOffset":128352,"byteLength":1296,"target":34962},{"buffer":0,"byteOffset":129648,"byteLength":1296,"target":34962},{"buffer":0,"byteOffset":130944,"byteLength":432,"target":34963},{"buffer":0,"byteOffset":131376,"byteLength":864,"target":34962},{"buffer":0,"byteOffset":132240,"byteLength":864,"target":34962},{"buffer":0,"byteOffset":133104,"byteLength":288,"target":34963},{"buffer":0,"byteOffset":133392,"byteLength":36},{"buffer":0,"byteOffset":133428,"byteLength":108,"target":34962},{"buffer":0,"byteOffset":133536,"byteLength":144},{"buffer":0,"byteOffset":133680,"byteLength":8},{"buffer":0,"byteOffset":133688,"byteLength":24,"target":34962},{"buffer":0,"byteOffset":133712,"byteLength":8},{"buffer":0,"byteOffset":133720,"byteLength":32}],"buffers":[{"byteLength":133752,"uri":"processor-d12-rev5-sample.bin"}]}