{"asset":{"version":"2.0","generator":"yudian ART-F04-GEO generate_charger_r1.py (python stdlib, original)"},"scene":0,"scenes":[{"name":"Scene","nodes":[0]}],"nodes":[{"name":"ChargingStation","translation":[0.0,0.0,0.0],"children":[1,2,3,4,5,6,7,8,9,10,11]},{"name":"Foundation","translation":[0.0,0.0,0.0],"mesh":0},{"name":"CabinetFoot","translation":[0.0,0.0,0.0],"mesh":1},{"name":"Cabinet","translation":[0.0,0.0,0.0],"mesh":2},{"name":"CabinetCap","translation":[0.0,0.0,0.0],"mesh":3},{"name":"ArmStem","translation":[0.0,0.0,0.0],"mesh":4},{"name":"ContactHead","translation":[0.0,0.0,0.0],"mesh":5},{"name":"PowerInGuard","translation":[0.0,0.0,0.0],"mesh":6},{"name":"ServicePanel","translation":[0.0,0.0,0.0],"mesh":7},{"name":"BayMark","translation":[0.0,0.0,0.0],"mesh":8},{"name":"Socket_Dock","translation":[0.65,0.57,-0.35],"rotation":[0.0,0.707106781,0.0,0.707106781]},{"name":"Socket_PowerIn","translation":[1.055,0.18,-0.66],"rotation":[0.0,0.0,0.0,1.0]}],"meshes":[{"name":"Foundation","primitives":[{"attributes":{"POSITION":0,"NORMAL":1},"indices":2,"material":0,"mode":4}]},{"name":"CabinetFoot","primitives":[{"attributes":{"POSITION":3,"NORMAL":4},"indices":5,"material":0,"mode":4}]},{"name":"Cabinet","primitives":[{"attributes":{"POSITION":6,"NORMAL":7},"indices":8,"material":1,"mode":4}]},{"name":"CabinetCap","primitives":[{"attributes":{"POSITION":9,"NORMAL":10},"indices":11,"material":1,"mode":4}]},{"name":"ArmStem","primitives":[{"attributes":{"POSITION":12,"NORMAL":13},"indices":14,"material":0,"mode":4}]},{"name":"ContactHead","primitives":[{"attributes":{"POSITION":15,"NORMAL":16},"indices":17,"material":2,"mode":4}]},{"name":"PowerInGuard","primitives":[{"attributes":{"POSITION":18,"NORMAL":19},"indices":20,"material":0,"mode":4}]},{"name":"ServicePanel","primitives":[{"attributes":{"POSITION":21,"NORMAL":22},"indices":23,"material":0,"mode":4}]},{"name":"BayMark","primitives":[{"attributes":{"POSITION":24,"NORMAL":25},"indices":26,"material":2,"mode":4}]}],"materials":[{"name":"frame_dark","pbrMetallicRoughness":{"baseColorFactor":[0.0401,0.0578,0.0694,1.0],"metallicFactor":0.2,"roughnessFactor":0.75}},{"name":"body_light","pbrMetallicRoughness":{"baseColorFactor":[0.6818,0.714,0.6718,1.0],"metallicFactor":0.0,"roughnessFactor":0.65}},{"name":"accent_warm","pbrMetallicRoughness":{"baseColorFactor":[0.6712,0.1975,0.048,1.0],"metallicFactor":0.0,"roughnessFactor":0.6}}],"accessors":[{"bufferView":0,"componentType":5126,"count":36,"type":"VEC3","min":[-0.9,0.0,-1.1],"max":[0.9,0.02,1.1]},{"bufferView":1,"componentType":5126,"count":36,"type":"VEC3","min":[-1.0,-1.0,-1.0],"max":[1.0,1.0,1.0]},{"bufferView":2,"componentType":5125,"count":36,"type":"SCALAR","min":[0],"max":[35]},{"bufferView":3,"componentType":5126,"count":36,"type":"VEC3","min":[0.8099999999999999,0.0,-0.6599999999999999],"max":[1.2999999999999998,0.08,-0.03999999999999998]},{"bufferView":4,"componentType":5126,"count":36,"type":"VEC3","min":[-1.0,-1.0,-1.0],"max":[1.0,1.0,1.0]},{"bufferView":5,"componentType":5125,"count":36,"type":"SCALAR","min":[0],"max":[35]},{"bufferView":6,"componentType":5126,"count":36,"type":"VEC3","min":[0.865,0.07999999999999996,-0.6],"max":[1.2449999999999999,1.4,-0.09999999999999998]},{"bufferView":7,"componentType":5126,"count":36,"type":"VEC3","min":[-1.0,-1.0,-1.0],"max":[1.0,1.0,1.0]},{"bufferView":8,"componentType":5125,"count":36,"type":"SCALAR","min":[0],"max":[35]},{"bufferView":9,"componentType":5126,"count":36,"type":"VEC3","min":[0.845,1.4000000000000001,-0.62],"max":[1.265,1.45,-0.07999999999999996]},{"bufferView":10,"componentType":5126,"count":36,"type":"VEC3","min":[-1.0,-1.0,-1.0],"max":[1.0,1.0,1.0]},{"bufferView":11,"componentType":5125,"count":36,"type":"SCALAR","min":[0],"max":[35]},{"bufferView":12,"componentType":5126,"count":36,"type":"VEC3","min":[0.7100000000000001,0.5299999999999999,-0.39999999999999997],"max":[0.88,0.61,-0.3]},{"bufferView":13,"componentType":5126,"count":36,"type":"VEC3","min":[-1.0,-1.0,-1.0],"max":[1.0,1.0,1.0]},{"bufferView":14,"componentType":5125,"count":36,"type":"SCALAR","min":[0],"max":[35]},{"bufferView":15,"componentType":5126,"count":36,"type":"VEC3","min":[0.65,0.51,-0.43],"max":[0.7100000000000001,0.6299999999999999,-0.26999999999999996]},{"bufferView":16,"componentType":5126,"count":36,"type":"VEC3","min":[-1.0,-1.0,-1.0],"max":[1.0,1.0,1.0]},{"bufferView":17,"componentType":5125,"count":36,"type":"SCALAR","min":[0],"max":[35]},{"bufferView":18,"componentType":5126,"count":36,"type":"VEC3","min":[0.9949999999999999,0.12,-0.66],"max":[1.115,0.24,-0.57]},{"bufferView":19,"componentType":5126,"count":36,"type":"VEC3","min":[-1.0,-1.0,-1.0],"max":[1.0,1.0,1.0]},{"bufferView":20,"componentType":5125,"count":36,"type":"SCALAR","min":[0],"max":[35]},{"bufferView":21,"componentType":5126,"count":36,"type":"VEC3","min":[1.245,0.51,-0.52],"max":[1.263,1.11,-0.17999999999999997]},{"bufferView":22,"componentType":5126,"count":36,"type":"VEC3","min":[-1.0,-1.0,-1.0],"max":[1.0,1.0,1.0]},{"bufferView":23,"componentType":5125,"count":36,"type":"SCALAR","min":[0],"max":[35]},{"bufferView":24,"componentType":5126,"count":144,"type":"VEC3","min":[-0.7975,0.019999999999999997,-1.0175],"max":[0.7975,0.024,1.0175]},{"bufferView":25,"componentType":5126,"count":144,"type":"VEC3","min":[-1.0,-1.0,-1.0],"max":[1.0,1.0,1.0]},{"bufferView":26,"componentType":5125,"count":144,"type":"SCALAR","min":[0],"max":[143]}],"bufferViews":[{"buffer":0,"byteOffset":0,"byteLength":432,"target":34962},{"buffer":0,"byteOffset":432,"byteLength":432,"target":34962},{"buffer":0,"byteOffset":864,"byteLength":144,"target":34963},{"buffer":0,"byteOffset":1008,"byteLength":432,"target":34962},{"buffer":0,"byteOffset":1440,"byteLength":432,"target":34962},{"buffer":0,"byteOffset":1872,"byteLength":144,"target":34963},{"buffer":0,"byteOffset":2016,"byteLength":432,"target":34962},{"buffer":0,"byteOffset":2448,"byteLength":432,"target":34962},{"buffer":0,"byteOffset":2880,"byteLength":144,"target":34963},{"buffer":0,"byteOffset":3024,"byteLength":432,"target":34962},{"buffer":0,"byteOffset":3456,"byteLength":432,"target":34962},{"buffer":0,"byteOffset":3888,"byteLength":144,"target":34963},{"buffer":0,"byteOffset":4032,"byteLength":432,"target":34962},{"buffer":0,"byteOffset":4464,"byteLength":432,"target":34962},{"buffer":0,"byteOffset":4896,"byteLength":144,"target":34963},{"buffer":0,"byteOffset":5040,"byteLength":432,"target":34962},{"buffer":0,"byteOffset":5472,"byteLength":432,"target":34962},{"buffer":0,"byteOffset":5904,"byteLength":144,"target":34963},{"buffer":0,"byteOffset":6048,"byteLength":432,"target":34962},{"buffer":0,"byteOffset":6480,"byteLength":432,"target":34962},{"buffer":0,"byteOffset":6912,"byteLength":144,"target":34963},{"buffer":0,"byteOffset":7056,"byteLength":432,"target":34962},{"buffer":0,"byteOffset":7488,"byteLength":432,"target":34962},{"buffer":0,"byteOffset":7920,"byteLength":144,"target":34963},{"buffer":0,"byteOffset":8064,"byteLength":1728,"target":34962},{"buffer":0,"byteOffset":9792,"byteLength":1728,"target":34962},{"buffer":0,"byteOffset":11520,"byteLength":576,"target":34963}],"buffers":[{"byteLength":12096,"uri":"charger-r1.bin"}]}