{"asset":{"version":"2.0","generator":"yudian ART-P01-CRATE-GEO generate_crate_r1.py (python stdlib, original)"},"scene":0,"scenes":[{"name":"Scene","nodes":[0]}],"nodes":[{"name":"Crate","mesh":0,"translation":[0.0,0.0,0.0]}],"meshes":[{"name":"Crate","primitives":[{"attributes":{"POSITION":0,"NORMAL":1},"indices":2,"material":0,"mode":4},{"attributes":{"POSITION":3,"NORMAL":4},"indices":5,"material":1,"mode":4},{"attributes":{"POSITION":6,"NORMAL":7},"indices":8,"material":0,"mode":4},{"attributes":{"POSITION":9,"NORMAL":10},"indices":11,"material":2,"mode":4}]}],"materials":[{"name":"frame_dark","pbrMetallicRoughness":{"baseColorFactor":[0.0401,0.0578,0.0694,1.0],"metallicFactor":0.2,"roughnessFactor":0.75}},{"name":"body_light","pbrMetallicRoughness":{"baseColorFactor":[0.6818,0.714,0.6718,1.0],"metallicFactor":0.0,"roughnessFactor":0.65}},{"name":"accent_warm","pbrMetallicRoughness":{"baseColorFactor":[0.6712,0.1975,0.048,1.0],"metallicFactor":0.0,"roughnessFactor":0.6}}],"accessors":[{"bufferView":0,"componentType":5126,"count":8,"type":"VEC3","min":[-0.295,0.0,-0.325],"max":[0.295,0.14,0.325]},{"bufferView":1,"componentType":5126,"count":8,"type":"VEC3","min":[-0.42085114310985294,-0.9710719993440292,-0.3865511710253807],"max":[0.2296201843589488,0.9874049874136033,0.20915396908948322]},{"bufferView":2,"componentType":5125,"count":36,"type":"SCALAR","min":[0],"max":[7]},{"bufferView":3,"componentType":5126,"count":8,"type":"VEC3","min":[-0.31,0.14,-0.34],"max":[0.31,0.32,0.34]},{"bufferView":4,"componentType":5126,"count":8,"type":"VEC3","min":[-0.48947455395743444,-0.9573253555430601,-0.45320702232968135],"max":[0.27658494966766073,0.9812464974810483,0.2534096529378688]},{"bufferView":5,"componentType":5125,"count":36,"type":"SCALAR","min":[0],"max":[7]},{"bufferView":6,"componentType":5126,"count":8,"type":"VEC3","min":[-0.32,0.31999999999999995,-0.35],"max":[0.32,0.38,0.35]},{"bufferView":7,"componentType":5126,"count":8,"type":"VEC3","min":[-0.18363800922420942,-0.9952617878012233,-0.16824708270863784],"max":[0.09325585033842967,0.9979890818328224,0.08530815324010495]},{"bufferView":8,"componentType":5125,"count":36,"type":"SCALAR","min":[0],"max":[7]},{"bufferView":9,"componentType":5126,"count":8,"type":"VEC3","min":[0.08,0.24500000000000002,-0.34700000000000003],"max":[0.24,0.29500000000000004,-0.339]},{"bufferView":10,"componentType":5126,"count":8,"type":"VEC3","min":[-0.09826615861883789,-0.30340273279390645,-0.9965058988061003],"max":[0.09481335399809582,0.30443073171677687,0.9871398965082536]},{"bufferView":11,"componentType":5125,"count":36,"type":"SCALAR","min":[0],"max":[7]}],"bufferViews":[{"buffer":0,"byteOffset":0,"byteLength":96,"target":34962},{"buffer":0,"byteOffset":96,"byteLength":96,"target":34962},{"buffer":0,"byteOffset":192,"byteLength":144,"target":34963},{"buffer":0,"byteOffset":336,"byteLength":96,"target":34962},{"buffer":0,"byteOffset":432,"byteLength":96,"target":34962},{"buffer":0,"byteOffset":528,"byteLength":144,"target":34963},{"buffer":0,"byteOffset":672,"byteLength":96,"target":34962},{"buffer":0,"byteOffset":768,"byteLength":96,"target":34962},{"buffer":0,"byteOffset":864,"byteLength":144,"target":34963},{"buffer":0,"byteOffset":1008,"byteLength":96,"target":34962},{"buffer":0,"byteOffset":1104,"byteLength":96,"target":34962},{"buffer":0,"byteOffset":1200,"byteLength":144,"target":34963}],"buffers":[{"byteLength":1344,"uri":"crate-r1.bin"}]}